<svg width="104" height="105" viewBox="0 0 104 105" fill="none" xmlns="http://www.w3.org/2000/svg">
<line x1="1.32893" y1="1.51633" x2="17.0618" y2="8.85292" stroke="#CF3031" stroke-width="2" stroke-linecap="round"/>
<line x1="16.8179" y1="8.79891" x2="36.2936" y2="64.9452" stroke="#CF3031" stroke-width="2" stroke-linecap="round"/>
<path d="M35.5453 65.0285L90.2493 65.0285" stroke="#CF3031" stroke-width="2" stroke-linecap="round"/>
<path d="M90.3806 63.8393L102.273 18.649" stroke="#CF3031" stroke-width="2" stroke-linecap="round"/>
<path d="M33.2981 18.2706L102.273 18.2706" stroke="#CF3031" stroke-width="2" stroke-linecap="round"/>
<path d="M35.5454 64.1819L28.5412 82.8667" stroke="#CF3031" stroke-width="2" stroke-linecap="round"/>
<path d="M28.5413 84.056H90.3806" stroke="#CF3031" stroke-width="2" stroke-linecap="round"/>
<circle cx="38.055" cy="94.7589" r="8.51374" stroke="#CF3031" stroke-width="2"/>
<circle cx="78.4883" cy="94.7589" r="8.51374" stroke="#CF3031" stroke-width="2"/>
<path d="M50.0959 47.2495C49.6025 47.4978 49.4039 48.099 49.6521 48.5923C49.9004 49.0857 50.5016 49.2843 50.9949 49.0361L50.0959 47.2495ZM73.5788 54.438C73.7202 54.9718 74.2677 55.29 74.8015 55.1485C75.3354 55.0071 75.6535 54.4596 75.5121 53.9258L73.5788 54.438ZM50.9949 49.0361C57.1683 45.9293 62.7813 47.2066 66.9378 49.3728C69.021 50.4584 70.7212 51.7611 71.9074 52.8247C72.4999 53.356 72.9582 53.8224 73.2669 54.1645C73.4221 54.3364 73.5335 54.4705 73.6031 54.561C73.6387 54.6072 73.6561 54.6326 73.6609 54.6401C73.6901 54.6854 73.6197 54.5925 73.5788 54.438L75.5121 53.9258C75.462 53.7369 75.3618 53.5872 75.3409 53.555C75.2957 53.485 75.2428 53.4122 75.1883 53.3414C75.0779 53.1979 74.9304 53.0226 74.7518 52.8246C74.3928 52.4269 73.8841 51.911 73.2426 51.3357C71.9606 50.1862 70.1243 48.7781 67.8621 47.5992C63.3277 45.236 57.0134 43.7683 50.0959 47.2495L50.9949 49.0361Z" fill="#CF3031"/>
<circle cx="52.0454" cy="35.6819" r="2.5" fill="#CF3031"/>
<circle cx="74.0454" cy="35.6819" r="2.5" fill="#CF3031"/>
</svg>
