<svg width="348" height="366" viewBox="0 0 348 366" fill="none" xmlns="http://www.w3.org/2000/svg">
<path d="M25.2757 321.46C24.7957 321.4 24.3457 321.37 23.9257 321.37C23.5357 321.34 23.2657 321.325 23.1157 321.325C22.9957 321.295 22.9357 321.235 22.9357 321.145C22.7257 320.185 22.5757 319.345 22.4857 318.625C22.3957 317.875 22.3357 317.185 22.3057 316.555C22.2757 315.655 22.2007 314.77 22.0807 313.9C21.9907 313 21.7807 311.815 21.4507 310.345C19.7707 310.615 18.6457 310.75 18.0757 310.75C17.4757 310.75 17.0257 310.645 16.7257 310.435C16.4257 310.195 16.2757 309.82 16.2757 309.31C16.2757 309.01 16.4407 308.86 16.7707 308.86L18.1207 308.725C18.3307 308.695 19.2907 308.575 21.0007 308.365C20.9407 307.495 20.8207 305.71 20.6407 303.01C20.5507 300.85 20.4157 299.125 20.2357 297.835L14.6107 298.33C14.1907 298.6 13.8607 298.735 13.6207 298.735C13.2607 298.465 13.0357 298.12 12.9457 297.7C13.6657 296.92 15.3907 296.275 18.1207 295.765C20.8807 295.255 23.8657 295 27.0757 295C31.0957 295 34.5457 295.435 37.4257 296.305C40.3057 297.145 41.8657 298.45 42.1057 300.22C41.1757 300.22 40.2757 300.115 39.4057 299.905C38.5357 299.695 37.4407 299.38 36.1207 298.96C34.4407 298.39 32.8957 297.955 31.4857 297.655C30.1057 297.355 28.5457 297.205 26.8057 297.205C25.6957 297.205 24.4807 297.295 23.1607 297.475C23.1607 300.265 23.2357 303.79 23.3857 308.05L24.9607 307.915C29.7607 307.525 32.5657 307.33 33.3757 307.33C33.7657 307.33 34.0357 307.36 34.1857 307.42C34.3357 307.45 34.4557 307.51 34.5457 307.6C34.5757 308.5 33.7207 309.145 31.9807 309.535C30.2407 309.895 27.4807 310.15 23.7007 310.3C23.8507 311.77 24.1357 313.69 24.5557 316.06C24.9457 318.28 25.1857 320.08 25.2757 321.46ZM57.7404 322C54.6204 322 51.9054 321.46 49.5954 320.38C47.3154 319.27 46.1754 317.335 46.1754 314.575C46.1754 313.585 46.4754 312.625 47.0754 311.695C47.6754 310.765 48.5604 310.015 49.7304 309.445C50.9004 308.845 52.3254 308.545 54.0054 308.545C55.2954 308.545 56.3904 308.605 57.2904 308.725C58.1904 308.845 59.2254 309.175 60.3954 309.715C61.5654 310.255 62.7804 311.11 64.0404 312.28C63.5604 310.21 62.8404 308.395 61.8804 306.835C60.9204 305.275 59.8404 304.075 58.6404 303.235C57.4704 302.365 56.3154 301.93 55.1754 301.93C54.6354 301.93 54.1254 302.035 53.6454 302.245C53.1954 302.425 52.6404 302.695 51.9804 303.055C51.2304 303.535 50.6754 303.775 50.3154 303.775C50.1654 303.775 50.0304 303.73 49.9104 303.64C49.8204 303.52 49.7754 303.385 49.7754 303.235C49.7754 302.035 50.3004 301.105 51.3504 300.445C52.4304 299.785 53.7354 299.485 55.2654 299.545C57.3654 299.665 59.2854 300.565 61.0254 302.245C62.7654 303.895 64.1304 305.95 65.1204 308.41C66.1404 310.87 66.6504 313.285 66.6504 315.655C66.6504 316.045 66.6204 316.6 66.5604 317.32L65.1204 317.23C63.9804 314.92 62.5104 313.285 60.7104 312.325C58.9404 311.335 57.1554 310.84 55.3554 310.84C53.0454 310.84 51.3954 311.185 50.4054 311.875C49.4154 312.565 48.9204 313.57 48.9204 314.89C48.9204 316.27 49.6104 317.38 50.9904 318.22C52.3704 319.06 54.1404 319.48 56.3004 319.48C57.5004 319.48 58.4604 319.42 59.1804 319.3C59.9004 319.15 60.6504 318.955 61.4304 318.715C62.0604 318.505 62.6154 318.355 63.0954 318.265C63.5754 318.175 64.1904 318.13 64.9404 318.13C65.7804 318.13 66.3054 318.19 66.5154 318.31C66.7554 318.43 66.8754 318.7 66.8754 319.12C66.8754 319.42 66.2604 319.795 65.0304 320.245C63.8004 320.695 62.4204 321.1 60.8904 321.46C59.3604 321.82 58.3104 322 57.7404 322ZM74.3021 321.685C73.6421 318.415 73.1321 314.545 72.7721 310.075C72.4421 305.575 72.2771 301.225 72.2771 297.025C72.2771 294.925 72.3221 293.065 72.4121 291.445C72.4121 291.055 72.7121 290.86 73.3121 290.86C73.7921 290.86 74.0921 290.98 74.2121 291.22C74.3621 291.46 74.4371 291.835 74.4371 292.345C74.4371 297.205 74.5271 301.36 74.7071 304.81C74.8871 308.23 75.1271 311.92 75.4271 315.88C75.6071 318.43 75.7271 320.155 75.7871 321.055C75.8171 321.535 75.5621 321.775 75.0221 321.775C74.8421 321.775 74.6021 321.745 74.3021 321.685ZM87.9807 322C87.6807 322.06 87.4857 322.09 87.3957 322.09C86.4657 322.09 85.8207 321.4 85.4607 320.02C85.1307 318.64 84.9657 316.705 84.9657 314.215C84.9657 313.195 84.9957 311.605 85.0557 309.445C85.1157 308.125 85.1457 307.135 85.1457 306.475C81.4557 306.475 79.6107 306.055 79.6107 305.215C79.6107 304.945 79.6407 304.735 79.7007 304.585C79.7907 304.435 79.9707 304.36 80.2407 304.36L85.1457 304.045C85.1157 302.575 85.0407 300.97 84.9207 299.23C84.8007 297.67 84.7257 296.23 84.6957 294.91C84.6957 294.58 84.8307 294.355 85.1007 294.235C85.3707 294.085 85.6557 294.01 85.9557 294.01C86.3157 294.01 86.6157 294.205 86.8557 294.595C87.0957 294.955 87.2157 295.33 87.2157 295.72L87.5307 303.955L91.2657 304.135C91.8357 304.075 92.3157 304.18 92.7057 304.45C93.1257 304.72 93.3507 305.17 93.3807 305.8C92.7507 306.07 92.0607 306.235 91.3107 306.295C90.5607 306.355 89.3007 306.385 87.5307 306.385C87.5307 309.175 87.6657 313.765 87.9357 320.155C87.9357 320.815 87.9357 321.28 87.9357 321.55C87.9657 321.79 87.9807 321.94 87.9807 322ZM108.768 322C105.648 322 102.933 321.46 100.623 320.38C98.3429 319.27 97.2029 317.335 97.2029 314.575C97.2029 313.585 97.5029 312.625 98.1029 311.695C98.7029 310.765 99.5879 310.015 100.758 309.445C101.928 308.845 103.353 308.545 105.033 308.545C106.323 308.545 107.418 308.605 108.318 308.725C109.218 308.845 110.253 309.175 111.423 309.715C112.593 310.255 113.808 311.11 115.068 312.28C114.588 310.21 113.868 308.395 112.908 306.835C111.948 305.275 110.868 304.075 109.668 303.235C108.498 302.365 107.343 301.93 106.203 301.93C105.663 301.93 105.153 302.035 104.673 302.245C104.223 302.425 103.668 302.695 103.008 303.055C102.258 303.535 101.703 303.775 101.343 303.775C101.193 303.775 101.058 303.73 100.938 303.64C100.848 303.52 100.803 303.385 100.803 303.235C100.803 302.035 101.328 301.105 102.378 300.445C103.458 299.785 104.763 299.485 106.293 299.545C108.393 299.665 110.313 300.565 112.053 302.245C113.793 303.895 115.158 305.95 116.148 308.41C117.168 310.87 117.678 313.285 117.678 315.655C117.678 316.045 117.648 316.6 117.588 317.32L116.148 317.23C115.008 314.92 113.538 313.285 111.738 312.325C109.968 311.335 108.183 310.84 106.383 310.84C104.073 310.84 102.423 311.185 101.433 311.875C100.443 312.565 99.9479 313.57 99.9479 314.89C99.9479 316.27 100.638 317.38 102.018 318.22C103.398 319.06 105.168 319.48 107.328 319.48C108.528 319.48 109.488 319.42 110.208 319.3C110.928 319.15 111.678 318.955 112.458 318.715C113.088 318.505 113.643 318.355 114.123 318.265C114.603 318.175 115.218 318.13 115.968 318.13C116.808 318.13 117.333 318.19 117.543 318.31C117.783 318.43 117.903 318.7 117.903 319.12C117.903 319.42 117.288 319.795 116.058 320.245C114.828 320.695 113.448 321.1 111.918 321.46C110.388 321.82 109.338 322 108.768 322ZM141.845 320.2C141.275 317.92 140.84 315.625 140.54 313.315C140.24 310.975 139.97 307.135 139.73 301.795C139.73 301.435 139.85 301.12 140.09 300.85C140.36 300.58 140.66 300.445 140.99 300.445H141.395C141.545 301.435 141.65 303.025 141.71 305.215C141.71 305.455 141.74 306.265 141.8 307.645C141.86 308.995 142.01 310.27 142.25 311.47C145.73 311.14 148.505 310.465 150.575 309.445C152.675 308.425 153.725 306.97 153.725 305.08C153.725 302.71 152.675 300.775 150.575 299.275C148.475 297.775 145.31 297.025 141.08 297.025C139.31 297.025 137.81 297.355 136.58 298.015C136.37 298.105 136.22 298.3 136.13 298.6C136.04 298.87 135.965 299.26 135.905 299.77C135.845 300.31 135.77 300.715 135.68 300.985C135.59 301.255 135.425 301.39 135.185 301.39C134.915 301.39 134.735 301.195 134.645 300.805C134.585 300.385 134.555 299.44 134.555 297.97C134.555 297.13 135.125 296.47 136.265 295.99C137.405 295.51 138.875 295.27 140.675 295.27C145.925 295.27 149.825 296.095 152.375 297.745C154.925 299.395 156.2 301.93 156.2 305.35C156.2 307.18 155.465 308.71 153.995 309.94C152.525 311.17 150.74 312.085 148.64 312.685C146.54 313.255 144.53 313.54 142.61 313.54C142.67 313.9 142.73 314.23 142.79 314.53C142.85 314.83 142.895 315.085 142.925 315.295C143.345 317.335 143.555 318.91 143.555 320.02C143.555 320.68 143.465 321.205 143.285 321.595C143.135 321.985 142.79 322.12 142.25 322L141.845 320.2ZM169.455 322.045C167.685 322.045 166.08 321.655 164.64 320.875C163.23 320.065 162.12 318.955 161.31 317.545C160.53 316.105 160.14 314.47 160.14 312.64C160.14 309.64 161.235 307.405 163.425 305.935C165.645 304.465 168.36 303.73 171.57 303.73C173.04 303.73 174.405 304.09 175.665 304.81C176.955 305.53 177.99 306.565 178.77 307.915C179.55 309.265 179.94 310.825 179.94 312.595C179.94 314.515 179.445 316.195 178.455 317.635C177.465 319.045 176.16 320.14 174.54 320.92C172.95 321.67 171.255 322.045 169.455 322.045ZM168.96 319.48C171.75 319.48 173.865 318.85 175.305 317.59C176.745 316.33 177.465 314.485 177.465 312.055C177.465 310.405 176.895 308.98 175.755 307.78C174.645 306.58 173.085 305.98 171.075 305.98C169.725 305.98 168.36 306.235 166.98 306.745C165.6 307.255 164.46 308.02 163.56 309.04C162.66 310.06 162.21 311.29 162.21 312.73C162.21 313.93 162.51 315.055 163.11 316.105C163.71 317.125 164.52 317.95 165.54 318.58C166.59 319.18 167.73 319.48 168.96 319.48ZM195.939 322.045C192.429 322.045 189.699 321.25 187.749 319.66C185.829 318.04 184.869 315.55 184.869 312.19C184.869 310.48 185.289 308.86 186.129 307.33C186.999 305.77 188.154 304.525 189.594 303.595C191.064 302.635 192.639 302.155 194.319 302.155C196.029 302.155 197.484 302.53 198.684 303.28C199.884 304 200.484 305.05 200.484 306.43C200.484 307.39 200.304 308.08 199.944 308.5C199.614 308.89 199.239 309.085 198.819 309.085C198.819 307.645 198.429 306.475 197.649 305.575C196.869 304.675 195.759 304.225 194.319 304.225C192.879 304.225 191.634 304.615 190.584 305.395C189.534 306.145 188.724 307.15 188.154 308.41C187.614 309.64 187.344 310.93 187.344 312.28C187.344 315.13 188.304 317.065 190.224 318.085C192.174 319.105 194.739 319.615 197.919 319.615C198.999 319.615 200.409 319.555 202.149 319.435C202.209 319.435 202.344 319.495 202.554 319.615C202.764 319.735 202.929 319.81 203.049 319.84V320.11C203.049 320.98 202.284 321.52 200.754 321.73C199.224 321.94 197.619 322.045 195.939 322.045ZM215.529 322.045C213.759 322.045 212.154 321.655 210.714 320.875C209.304 320.065 208.194 318.955 207.384 317.545C206.604 316.105 206.214 314.47 206.214 312.64C206.214 309.64 207.309 307.405 209.499 305.935C211.719 304.465 214.434 303.73 217.644 303.73C219.114 303.73 220.479 304.09 221.739 304.81C223.029 305.53 224.064 306.565 224.844 307.915C225.624 309.265 226.014 310.825 226.014 312.595C226.014 314.515 225.519 316.195 224.529 317.635C223.539 319.045 222.234 320.14 220.614 320.92C219.024 321.67 217.329 322.045 215.529 322.045ZM215.034 319.48C217.824 319.48 219.939 318.85 221.379 317.59C222.819 316.33 223.539 314.485 223.539 312.055C223.539 310.405 222.969 308.98 221.829 307.78C220.719 306.58 219.159 305.98 217.149 305.98C215.799 305.98 214.434 306.235 213.054 306.745C211.674 307.255 210.534 308.02 209.634 309.04C208.734 310.06 208.284 311.29 208.284 312.73C208.284 313.93 208.584 315.055 209.184 316.105C209.784 317.125 210.594 317.95 211.614 318.58C212.664 319.18 213.804 319.48 215.034 319.48ZM248.853 338.02C248.253 338.02 247.533 336.415 246.693 333.205C245.883 329.995 245.148 326.425 244.488 322.495C243.858 318.595 243.543 316.135 243.543 315.115C243.543 312.085 244.563 309.88 246.603 308.5C248.643 307.09 251.268 306.385 254.478 306.385C256.188 306.385 257.808 306.745 259.338 307.465C260.868 308.155 262.098 309.16 263.028 310.48C263.958 311.77 264.423 313.27 264.423 314.98C264.423 317.11 263.673 318.61 262.173 319.48C260.703 320.35 258.843 320.785 256.593 320.785C254.253 320.785 252.258 320.395 250.608 319.615C248.988 318.805 248.178 317.71 248.178 316.33L248.223 315.88C248.433 315.64 248.658 315.52 248.898 315.52C249.108 315.52 249.333 315.61 249.573 315.79C249.843 315.94 250.128 316.12 250.428 316.33C251.358 317.02 252.273 317.575 253.173 317.995C254.103 318.415 255.258 318.625 256.638 318.625C258.528 318.625 259.863 318.295 260.643 317.635C261.453 316.945 261.858 315.865 261.858 314.395C261.858 313.315 261.498 312.355 260.778 311.515C260.058 310.675 259.128 310.03 257.988 309.58C256.848 309.13 255.678 308.905 254.478 308.905C251.688 308.905 249.588 309.505 248.178 310.705C246.768 311.875 246.138 313.84 246.288 316.6C246.558 321.28 246.978 325.21 247.548 328.39C248.148 331.57 249.183 334.27 250.653 336.49L250.698 336.58C250.698 336.64 250.623 336.7 250.473 336.76C250.353 336.85 250.263 336.925 250.203 336.985C249.843 337.555 249.393 337.9 248.853 338.02ZM280.935 322C277.815 322 275.1 321.46 272.79 320.38C270.51 319.27 269.37 317.335 269.37 314.575C269.37 313.585 269.67 312.625 270.27 311.695C270.87 310.765 271.755 310.015 272.925 309.445C274.095 308.845 275.52 308.545 277.2 308.545C278.49 308.545 279.585 308.605 280.485 308.725C281.385 308.845 282.42 309.175 283.59 309.715C284.76 310.255 285.975 311.11 287.235 312.28C286.755 310.21 286.035 308.395 285.075 306.835C284.115 305.275 283.035 304.075 281.835 303.235C280.665 302.365 279.51 301.93 278.37 301.93C277.83 301.93 277.32 302.035 276.84 302.245C276.39 302.425 275.835 302.695 275.175 303.055C274.425 303.535 273.87 303.775 273.51 303.775C273.36 303.775 273.225 303.73 273.105 303.64C273.015 303.52 272.97 303.385 272.97 303.235C272.97 302.035 273.495 301.105 274.545 300.445C275.625 299.785 276.93 299.485 278.46 299.545C280.56 299.665 282.48 300.565 284.22 302.245C285.96 303.895 287.325 305.95 288.315 308.41C289.335 310.87 289.845 313.285 289.845 315.655C289.845 316.045 289.815 316.6 289.755 317.32L288.315 317.23C287.175 314.92 285.705 313.285 283.905 312.325C282.135 311.335 280.35 310.84 278.55 310.84C276.24 310.84 274.59 311.185 273.6 311.875C272.61 312.565 272.115 313.57 272.115 314.89C272.115 316.27 272.805 317.38 274.185 318.22C275.565 319.06 277.335 319.48 279.495 319.48C280.695 319.48 281.655 319.42 282.375 319.3C283.095 319.15 283.845 318.955 284.625 318.715C285.255 318.505 285.81 318.355 286.29 318.265C286.77 318.175 287.385 318.13 288.135 318.13C288.975 318.13 289.5 318.19 289.71 318.31C289.95 318.43 290.07 318.7 290.07 319.12C290.07 319.42 289.455 319.795 288.225 320.245C286.995 320.695 285.615 321.1 284.085 321.46C282.555 321.82 281.505 322 280.935 322ZM298.982 322C297.752 319.6 296.777 316.78 296.057 313.54C295.367 310.3 295.022 307.495 295.022 305.125C295.022 304.195 295.232 303.595 295.652 303.325C295.892 303.175 296.072 303.1 296.192 303.1C296.402 303.1 296.552 303.265 296.642 303.595C296.762 303.925 296.882 304.525 297.002 305.395L297.227 307.015C297.557 305.395 298.187 304.12 299.117 303.19C300.077 302.23 301.247 301.75 302.627 301.75C304.157 301.75 305.297 302.05 306.047 302.65C306.797 303.22 307.172 304.18 307.172 305.53C305.672 304.81 304.307 304.45 303.077 304.45C301.907 304.45 300.902 304.765 300.062 305.395C299.222 306.025 298.637 306.955 298.307 308.185C298.037 309.025 297.902 309.82 297.902 310.57C297.902 311.38 298.007 312.145 298.217 312.865C298.457 313.555 298.817 314.41 299.297 315.43C299.747 316.48 300.092 317.38 300.332 318.13C300.602 318.88 300.752 319.69 300.782 320.56C300.782 321.07 300.602 321.445 300.242 321.685C299.882 321.895 299.462 322 298.982 322ZM321.868 322C318.748 322 316.033 321.46 313.723 320.38C311.443 319.27 310.303 317.335 310.303 314.575C310.303 313.585 310.603 312.625 311.203 311.695C311.803 310.765 312.688 310.015 313.858 309.445C315.028 308.845 316.453 308.545 318.133 308.545C319.423 308.545 320.518 308.605 321.418 308.725C322.318 308.845 323.353 309.175 324.523 309.715C325.693 310.255 326.908 311.11 328.168 312.28C327.688 310.21 326.968 308.395 326.008 306.835C325.048 305.275 323.968 304.075 322.768 303.235C321.598 302.365 320.443 301.93 319.303 301.93C318.763 301.93 318.253 302.035 317.773 302.245C317.323 302.425 316.768 302.695 316.108 303.055C315.358 303.535 314.803 303.775 314.443 303.775C314.293 303.775 314.158 303.73 314.038 303.64C313.948 303.52 313.903 303.385 313.903 303.235C313.903 302.035 314.428 301.105 315.478 300.445C316.558 299.785 317.863 299.485 319.393 299.545C321.493 299.665 323.413 300.565 325.153 302.245C326.893 303.895 328.258 305.95 329.248 308.41C330.268 310.87 330.778 313.285 330.778 315.655C330.778 316.045 330.748 316.6 330.688 317.32L329.248 317.23C328.108 314.92 326.638 313.285 324.838 312.325C323.068 311.335 321.283 310.84 319.483 310.84C317.173 310.84 315.523 311.185 314.533 311.875C313.543 312.565 313.048 313.57 313.048 314.89C313.048 316.27 313.738 317.38 315.118 318.22C316.498 319.06 318.268 319.48 320.428 319.48C321.628 319.48 322.588 319.42 323.308 319.3C324.028 319.15 324.778 318.955 325.558 318.715C326.188 318.505 326.743 318.355 327.223 318.265C327.703 318.175 328.318 318.13 329.068 318.13C329.908 318.13 330.433 318.19 330.643 318.31C330.883 318.43 331.003 318.7 331.003 319.12C331.003 319.42 330.388 319.795 329.158 320.245C327.928 320.695 326.548 321.1 325.018 321.46C323.488 321.82 322.438 322 321.868 322ZM24.4021 339.46C24.4021 340.75 24.4621 342.01 24.5821 343.24C24.7321 344.44 24.9571 346.135 25.2571 348.325C25.8271 352.015 26.1121 354.955 26.1121 357.145C26.1121 357.595 26.0221 357.865 25.8421 357.955C25.6621 358.045 25.4521 358.09 25.2121 358.09C24.9721 358.09 24.8071 358.09 24.7171 358.09C24.2971 358.09 23.9671 358.045 23.7271 357.955C23.4871 357.835 23.2921 357.565 23.1421 357.145L22.1971 344.905C22.1071 343.675 21.9871 341.2 21.8371 337.48C20.5471 338.98 19.2721 340.12 18.0121 340.9C16.7521 341.65 15.4621 342.025 14.1421 342.025C12.2521 342.025 10.3621 340.69 8.47207 338.02C8.56207 338.47 8.60707 339.07 8.60707 339.82C8.60707 340.57 8.60707 341.005 8.60707 341.125L8.56207 355.84C8.56207 356.14 8.39707 356.38 8.06707 356.56C7.76707 356.71 7.45207 356.785 7.12207 356.785C6.70207 356.785 6.40207 356.635 6.22207 356.335C6.07207 356.005 5.95207 355.57 5.86207 355.03V348.73C5.86207 347.77 5.89207 346.69 5.95207 345.49C6.01207 344.29 6.05707 343.45 6.08707 342.97C6.23707 340.87 6.31207 338.965 6.31207 337.255C6.31207 336.745 6.22207 336.265 6.04207 335.815C5.86207 335.335 5.59207 334.81 5.23207 334.24C4.87207 333.67 4.60207 333.175 4.42207 332.755C4.27207 332.335 4.19707 331.885 4.19707 331.405C4.19707 330.835 4.48207 330.55 5.05207 330.55C5.95207 330.55 6.68707 330.88 7.25707 331.54C7.82707 332.17 8.44207 333.13 9.10207 334.42C9.67207 335.47 10.1671 336.295 10.5871 336.895C11.0071 337.495 11.5471 338.02 12.2071 338.47C12.8671 338.89 13.6621 339.1 14.5921 339.1C15.9421 339.16 17.0521 338.905 17.9221 338.335C18.7921 337.735 19.4521 337.015 19.9021 336.175C20.3521 335.335 20.7871 334.315 21.2071 333.115C21.5671 332.125 21.8821 331.435 22.1521 331.045C22.4221 330.625 22.7521 330.46 23.1421 330.55C24.0421 330.49 24.4921 331.315 24.4921 333.025C24.4921 334.465 24.4771 335.53 24.4471 336.22L24.4021 339.46ZM43.5461 358C40.4261 358 37.7111 357.46 35.4011 356.38C33.1211 355.27 31.9811 353.335 31.9811 350.575C31.9811 349.585 32.2811 348.625 32.8811 347.695C33.4811 346.765 34.3661 346.015 35.5361 345.445C36.7061 344.845 38.1311 344.545 39.8111 344.545C41.1011 344.545 42.1961 344.605 43.0961 344.725C43.9961 344.845 45.0311 345.175 46.2011 345.715C47.3711 346.255 48.5861 347.11 49.8461 348.28C49.3661 346.21 48.6461 344.395 47.6861 342.835C46.7261 341.275 45.6461 340.075 44.4461 339.235C43.2761 338.365 42.1211 337.93 40.9811 337.93C40.4411 337.93 39.9311 338.035 39.4511 338.245C39.0011 338.425 38.4461 338.695 37.7861 339.055C37.0361 339.535 36.4811 339.775 36.1211 339.775C35.9711 339.775 35.8361 339.73 35.7161 339.64C35.6261 339.52 35.5811 339.385 35.5811 339.235C35.5811 338.035 36.1061 337.105 37.1561 336.445C38.2361 335.785 39.5411 335.485 41.0711 335.545C43.1711 335.665 45.0911 336.565 46.8311 338.245C48.5711 339.895 49.9361 341.95 50.9261 344.41C51.9461 346.87 52.4561 349.285 52.4561 351.655C52.4561 352.045 52.4261 352.6 52.3661 353.32L50.9261 353.23C49.7861 350.92 48.3161 349.285 46.5161 348.325C44.7461 347.335 42.9611 346.84 41.1611 346.84C38.8511 346.84 37.2011 347.185 36.2111 347.875C35.2211 348.565 34.7261 349.57 34.7261 350.89C34.7261 352.27 35.4161 353.38 36.7961 354.22C38.1761 355.06 39.9461 355.48 42.1061 355.48C43.3061 355.48 44.2661 355.42 44.9861 355.3C45.7061 355.15 46.4561 354.955 47.2361 354.715C47.8661 354.505 48.4211 354.355 48.9011 354.265C49.3811 354.175 49.9961 354.13 50.7461 354.13C51.5861 354.13 52.1111 354.19 52.3211 354.31C52.5611 354.43 52.6811 354.7 52.6811 355.12C52.6811 355.42 52.0661 355.795 50.8361 356.245C49.6061 356.695 48.2261 357.1 46.6961 357.46C45.1661 357.82 44.1161 358 43.5461 358ZM64.8778 358C64.5778 358.06 64.3828 358.09 64.2928 358.09C63.3628 358.09 62.7178 357.4 62.3578 356.02C62.0278 354.64 61.8628 352.705 61.8628 350.215C61.8628 349.195 61.8928 347.605 61.9528 345.445C62.0128 344.125 62.0428 343.135 62.0428 342.475C58.3528 342.475 56.5078 342.055 56.5078 341.215C56.5078 340.945 56.5378 340.735 56.5978 340.585C56.6878 340.435 56.8678 340.36 57.1378 340.36L62.0428 340.045C62.0128 338.575 61.9378 336.97 61.8178 335.23C61.6978 333.67 61.6228 332.23 61.5928 330.91C61.5928 330.58 61.7278 330.355 61.9978 330.235C62.2678 330.085 62.5528 330.01 62.8528 330.01C63.2128 330.01 63.5128 330.205 63.7528 330.595C63.9928 330.955 64.1128 331.33 64.1128 331.72L64.4278 339.955L68.1628 340.135C68.7328 340.075 69.2128 340.18 69.6028 340.45C70.0228 340.72 70.2478 341.17 70.2778 341.8C69.6478 342.07 68.9578 342.235 68.2078 342.295C67.4578 342.355 66.1978 342.385 64.4278 342.385C64.4278 345.175 64.5628 349.765 64.8328 356.155C64.8328 356.815 64.8328 357.28 64.8328 357.55C64.8628 357.79 64.8778 357.94 64.8778 358ZM85.665 358C82.545 358 79.83 357.46 77.52 356.38C75.24 355.27 74.1 353.335 74.1 350.575C74.1 349.585 74.4 348.625 75 347.695C75.6 346.765 76.485 346.015 77.655 345.445C78.825 344.845 80.25 344.545 81.93 344.545C83.22 344.545 84.315 344.605 85.215 344.725C86.115 344.845 87.15 345.175 88.32 345.715C89.49 346.255 90.705 347.11 91.965 348.28C91.485 346.21 90.765 344.395 89.805 342.835C88.845 341.275 87.765 340.075 86.565 339.235C85.395 338.365 84.24 337.93 83.1 337.93C82.56 337.93 82.05 338.035 81.57 338.245C81.12 338.425 80.565 338.695 79.905 339.055C79.155 339.535 78.6 339.775 78.24 339.775C78.09 339.775 77.955 339.73 77.835 339.64C77.745 339.52 77.7 339.385 77.7 339.235C77.7 338.035 78.225 337.105 79.275 336.445C80.355 335.785 81.66 335.485 83.19 335.545C85.29 335.665 87.21 336.565 88.95 338.245C90.69 339.895 92.055 341.95 93.045 344.41C94.065 346.87 94.575 349.285 94.575 351.655C94.575 352.045 94.545 352.6 94.485 353.32L93.045 353.23C91.905 350.92 90.435 349.285 88.635 348.325C86.865 347.335 85.08 346.84 83.28 346.84C80.97 346.84 79.32 347.185 78.33 347.875C77.34 348.565 76.845 349.57 76.845 350.89C76.845 352.27 77.535 353.38 78.915 354.22C80.295 355.06 82.065 355.48 84.225 355.48C85.425 355.48 86.385 355.42 87.105 355.3C87.825 355.15 88.575 354.955 89.355 354.715C89.985 354.505 90.54 354.355 91.02 354.265C91.5 354.175 92.115 354.13 92.865 354.13C93.705 354.13 94.23 354.19 94.44 354.31C94.68 354.43 94.8 354.7 94.8 355.12C94.8 355.42 94.185 355.795 92.955 356.245C91.725 356.695 90.345 357.1 88.815 357.46C87.285 357.82 86.235 358 85.665 358ZM103.712 358C102.482 355.6 101.507 352.78 100.787 349.54C100.097 346.3 99.7518 343.495 99.7518 341.125C99.7518 340.195 99.9618 339.595 100.382 339.325C100.622 339.175 100.802 339.1 100.922 339.1C101.132 339.1 101.282 339.265 101.372 339.595C101.492 339.925 101.612 340.525 101.732 341.395L101.957 343.015C102.287 341.395 102.917 340.12 103.847 339.19C104.807 338.23 105.977 337.75 107.357 337.75C108.887 337.75 110.027 338.05 110.777 338.65C111.527 339.22 111.902 340.18 111.902 341.53C110.402 340.81 109.037 340.45 107.807 340.45C106.637 340.45 105.632 340.765 104.792 341.395C103.952 342.025 103.367 342.955 103.037 344.185C102.767 345.025 102.632 345.82 102.632 346.57C102.632 347.38 102.737 348.145 102.947 348.865C103.187 349.555 103.547 350.41 104.027 351.43C104.477 352.48 104.822 353.38 105.062 354.13C105.332 354.88 105.482 355.69 105.512 356.56C105.512 357.07 105.332 357.445 104.972 357.685C104.612 357.895 104.192 358 103.712 358ZM139.197 358C136.077 358 133.362 357.46 131.052 356.38C128.772 355.27 127.632 353.335 127.632 350.575C127.632 349.585 127.932 348.625 128.532 347.695C129.132 346.765 130.017 346.015 131.187 345.445C132.357 344.845 133.782 344.545 135.462 344.545C136.752 344.545 137.847 344.605 138.747 344.725C139.647 344.845 140.682 345.175 141.852 345.715C143.022 346.255 144.237 347.11 145.497 348.28C145.017 346.21 144.297 344.395 143.337 342.835C142.377 341.275 141.297 340.075 140.097 339.235C138.927 338.365 137.772 337.93 136.632 337.93C136.092 337.93 135.582 338.035 135.102 338.245C134.652 338.425 134.097 338.695 133.437 339.055C132.687 339.535 132.132 339.775 131.772 339.775C131.622 339.775 131.487 339.73 131.367 339.64C131.277 339.52 131.232 339.385 131.232 339.235C131.232 338.035 131.757 337.105 132.807 336.445C133.887 335.785 135.192 335.485 136.722 335.545C138.822 335.665 140.742 336.565 142.482 338.245C144.222 339.895 145.587 341.95 146.577 344.41C147.597 346.87 148.107 349.285 148.107 351.655C148.107 352.045 148.077 352.6 148.017 353.32L146.577 353.23C145.437 350.92 143.967 349.285 142.167 348.325C140.397 347.335 138.612 346.84 136.812 346.84C134.502 346.84 132.852 347.185 131.862 347.875C130.872 348.565 130.377 349.57 130.377 350.89C130.377 352.27 131.067 353.38 132.447 354.22C133.827 355.06 135.597 355.48 137.757 355.48C138.957 355.48 139.917 355.42 140.637 355.3C141.357 355.15 142.107 354.955 142.887 354.715C143.517 354.505 144.072 354.355 144.552 354.265C145.032 354.175 145.647 354.13 146.397 354.13C147.237 354.13 147.762 354.19 147.972 354.31C148.212 354.43 148.332 354.7 148.332 355.12C148.332 355.42 147.717 355.795 146.487 356.245C145.257 356.695 143.877 357.1 142.347 357.46C140.817 357.82 139.767 358 139.197 358ZM173.129 358C172.829 358.06 172.634 358.09 172.544 358.09C171.614 358.09 170.969 357.4 170.609 356.02C170.279 354.64 170.114 352.705 170.114 350.215C170.114 349.195 170.144 347.605 170.204 345.445C170.264 344.125 170.294 343.135 170.294 342.475C166.604 342.475 164.759 342.055 164.759 341.215C164.759 340.945 164.789 340.735 164.849 340.585C164.939 340.435 165.119 340.36 165.389 340.36L170.294 340.045C170.264 338.575 170.189 336.97 170.069 335.23C169.949 333.67 169.874 332.23 169.844 330.91C169.844 330.58 169.979 330.355 170.249 330.235C170.519 330.085 170.804 330.01 171.104 330.01C171.464 330.01 171.764 330.205 172.004 330.595C172.244 330.955 172.364 331.33 172.364 331.72L172.679 339.955L176.414 340.135C176.984 340.075 177.464 340.18 177.854 340.45C178.274 340.72 178.499 341.17 178.529 341.8C177.899 342.07 177.209 342.235 176.459 342.295C175.709 342.355 174.449 342.385 172.679 342.385C172.679 345.175 172.814 349.765 173.084 356.155C173.084 356.815 173.084 357.28 173.084 357.55C173.114 357.79 173.129 357.94 173.129 358ZM203.051 357.775C202.511 357.775 202.076 357.55 201.746 357.1C201.446 356.62 201.176 355.9 200.936 354.94C200.696 353.95 200.321 352.24 199.811 349.81C199.301 351.82 198.341 353.425 196.931 354.625C195.521 355.795 193.796 356.38 191.756 356.38C189.896 356.38 188.321 355.735 187.031 354.445C185.771 353.125 184.826 351.4 184.196 349.27C183.566 347.11 183.251 344.785 183.251 342.295C183.251 341.155 183.356 340.18 183.566 339.37C183.806 338.53 184.091 337.9 184.421 337.48C184.781 337.06 185.126 336.865 185.456 336.895C185.816 336.895 185.996 337.135 185.996 337.615C185.996 338.005 185.891 338.62 185.681 339.46C185.471 340.39 185.366 341.455 185.366 342.655C185.366 344.455 185.621 346.21 186.131 347.92C186.671 349.63 187.451 351.04 188.471 352.15C189.521 353.23 190.751 353.77 192.161 353.77C193.331 353.77 194.396 353.425 195.356 352.735C196.316 352.045 197.066 351.175 197.606 350.125C198.176 349.075 198.461 348.04 198.461 347.02V339.865C198.791 339.235 199.241 338.92 199.811 338.92C200.321 338.92 200.666 339.355 200.846 340.225C201.026 341.095 201.116 342.325 201.116 343.915C201.116 345.265 201.101 346.3 201.071 347.02C201.251 348.01 201.521 349.015 201.881 350.035C202.271 351.055 202.751 352.21 203.321 353.5C204.011 355.09 204.356 356.065 204.356 356.425C204.356 357.325 203.921 357.775 203.051 357.775ZM220.886 358C217.766 358 215.051 357.46 212.741 356.38C210.461 355.27 209.321 353.335 209.321 350.575C209.321 349.585 209.621 348.625 210.221 347.695C210.821 346.765 211.706 346.015 212.876 345.445C214.046 344.845 215.471 344.545 217.151 344.545C218.441 344.545 219.536 344.605 220.436 344.725C221.336 344.845 222.371 345.175 223.541 345.715C224.711 346.255 225.926 347.11 227.186 348.28C226.706 346.21 225.986 344.395 225.026 342.835C224.066 341.275 222.986 340.075 221.786 339.235C220.616 338.365 219.461 337.93 218.321 337.93C217.781 337.93 217.271 338.035 216.791 338.245C216.341 338.425 215.786 338.695 215.126 339.055C214.376 339.535 213.821 339.775 213.461 339.775C213.311 339.775 213.176 339.73 213.056 339.64C212.966 339.52 212.921 339.385 212.921 339.235C212.921 338.035 213.446 337.105 214.496 336.445C215.576 335.785 216.881 335.485 218.411 335.545C220.511 335.665 222.431 336.565 224.171 338.245C225.911 339.895 227.276 341.95 228.266 344.41C229.286 346.87 229.796 349.285 229.796 351.655C229.796 352.045 229.766 352.6 229.706 353.32L228.266 353.23C227.126 350.92 225.656 349.285 223.856 348.325C222.086 347.335 220.301 346.84 218.501 346.84C216.191 346.84 214.541 347.185 213.551 347.875C212.561 348.565 212.066 349.57 212.066 350.89C212.066 352.27 212.756 353.38 214.136 354.22C215.516 355.06 217.286 355.48 219.446 355.48C220.646 355.48 221.606 355.42 222.326 355.3C223.046 355.15 223.796 354.955 224.576 354.715C225.206 354.505 225.761 354.355 226.241 354.265C226.721 354.175 227.336 354.13 228.086 354.13C228.926 354.13 229.451 354.19 229.661 354.31C229.901 354.43 230.021 354.7 230.021 355.12C230.021 355.42 229.406 355.795 228.176 356.245C226.946 356.695 225.566 357.1 224.036 357.46C222.506 357.82 221.456 358 220.886 358ZM258.643 326.32C259.993 326.32 261.283 326.665 262.513 327.355C263.743 328.015 264.733 328.87 265.483 329.92C266.263 330.97 266.653 332.02 266.653 333.07H265.663C265.213 333.07 264.808 332.935 264.448 332.665C264.118 332.395 263.683 331.96 263.143 331.36C262.363 330.52 261.658 329.89 261.028 329.47C260.428 329.05 259.648 328.84 258.688 328.84C257.038 328.84 255.658 329.605 254.548 331.135C253.438 332.635 252.778 334.405 252.568 336.445C252.478 337.375 252.433 338.305 252.433 339.235C252.433 340.765 252.538 342.175 252.748 343.465C253.138 343.525 254.053 343.6 255.493 343.69C256.933 343.78 258.118 343.855 259.048 343.915C259.378 343.915 260.023 343.945 260.983 344.005C261.283 344.005 261.493 344.08 261.613 344.23C261.763 344.35 261.838 344.575 261.838 344.905C261.838 345.715 260.923 346.12 259.093 346.12C257.503 346.12 255.508 345.835 253.108 345.265C253.438 346.615 253.858 347.86 254.368 349C254.878 350.11 255.538 351.445 256.348 353.005C256.918 354.115 257.338 354.985 257.608 355.615C257.878 356.215 258.013 356.725 258.013 357.145C258.013 357.475 257.908 357.715 257.698 357.865C257.488 357.985 257.188 358.045 256.798 358.045C255.988 358.045 255.223 357.19 254.503 355.48C253.813 353.74 253.018 351.34 252.118 348.28L251.308 345.625C250.648 345.685 249.823 345.865 248.833 346.165C248.743 346.195 248.428 346.285 247.888 346.435C247.378 346.555 246.913 346.615 246.493 346.615C246.013 346.615 245.773 346.33 245.773 345.76C245.773 345.01 246.163 344.515 246.943 344.275C247.723 344.005 248.458 343.855 249.148 343.825C249.838 343.765 250.273 343.72 250.453 343.69C250.393 342.55 250.363 341.53 250.363 340.63C250.363 336.76 250.948 333.415 252.118 330.595C253.318 327.745 255.493 326.32 258.643 326.32ZM276.432 358.045C274.662 358.045 273.057 357.655 271.617 356.875C270.207 356.065 269.097 354.955 268.287 353.545C267.507 352.105 267.117 350.47 267.117 348.64C267.117 345.64 268.212 343.405 270.402 341.935C272.622 340.465 275.337 339.73 278.547 339.73C280.017 339.73 281.382 340.09 282.642 340.81C283.932 341.53 284.967 342.565 285.747 343.915C286.527 345.265 286.917 346.825 286.917 348.595C286.917 350.515 286.422 352.195 285.432 353.635C284.442 355.045 283.137 356.14 281.517 356.92C279.927 357.67 278.232 358.045 276.432 358.045ZM275.937 355.48C278.727 355.48 280.842 354.85 282.282 353.59C283.722 352.33 284.442 350.485 284.442 348.055C284.442 346.405 283.872 344.98 282.732 343.78C281.622 342.58 280.062 341.98 278.052 341.98C276.702 341.98 275.337 342.235 273.957 342.745C272.577 343.255 271.437 344.02 270.537 345.04C269.637 346.06 269.187 347.29 269.187 348.73C269.187 349.93 269.487 351.055 270.087 352.105C270.687 353.125 271.497 353.95 272.517 354.58C273.567 355.18 274.707 355.48 275.937 355.48ZM321.051 358.045C320.601 358.045 320.331 357.925 320.241 357.685C320.151 357.415 320.106 357.01 320.106 356.47C320.136 356.26 320.151 356.02 320.151 355.75C320.151 355.45 320.166 355.225 320.196 355.075C320.376 353.635 320.466 352.27 320.466 350.98C320.466 348.13 319.986 345.91 319.026 344.32C318.066 342.7 316.551 341.89 314.481 341.89C313.341 341.89 312.201 342.175 311.061 342.745C309.951 343.315 309.036 344.02 308.316 344.86C307.626 345.7 307.281 346.465 307.281 347.155C307.431 348.025 307.701 349.09 308.091 350.35C308.121 350.5 308.241 350.965 308.451 351.745C308.691 352.525 308.811 353.23 308.811 353.86L308.856 354.715C308.856 355.195 308.616 355.435 308.136 355.435C307.536 355.435 307.041 355.045 306.651 354.265C306.291 353.485 305.886 352.27 305.436 350.62C304.986 349 304.551 347.665 304.131 346.615C303.711 345.565 303.141 344.665 302.421 343.915C301.701 343.165 300.786 342.79 299.676 342.79C298.146 342.79 296.946 343.315 296.076 344.365C295.236 345.415 294.816 346.705 294.816 348.235C294.816 349.255 294.906 350.605 295.086 352.285C295.236 353.545 295.311 354.625 295.311 355.525C295.311 356.065 295.251 356.47 295.131 356.74C295.011 357.01 294.726 357.145 294.276 357.145C293.676 357.145 293.256 356.95 293.016 356.56C292.776 356.14 292.656 355.51 292.656 354.67C292.656 353.02 292.566 351.025 292.386 348.685C292.356 348.385 292.296 347.62 292.206 346.39C292.116 345.13 292.101 343.87 292.161 342.61L292.206 341.125C292.386 340.945 292.596 340.855 292.836 340.855C293.166 340.855 293.436 341.065 293.646 341.485C293.886 341.875 294.006 342.475 294.006 343.285C294.456 342.505 295.116 341.8 295.986 341.17C296.856 340.54 297.771 340.225 298.731 340.225C300.381 340.225 301.746 340.57 302.826 341.26C303.936 341.92 304.941 343 305.841 344.5C306.681 342.97 307.941 341.665 309.621 340.585C311.331 339.505 313.086 338.965 314.886 338.965C316.746 338.965 318.291 339.67 319.521 341.08C320.781 342.49 321.696 344.185 322.266 346.165C322.866 348.145 323.166 349.975 323.166 351.655C323.166 353.155 323.031 354.595 322.761 355.975C322.521 357.355 321.951 358.045 321.051 358.045ZM338.752 358C336.832 358 335.062 357.625 333.442 356.875C331.822 356.125 330.532 355.06 329.572 353.68C328.612 352.3 328.132 350.71 328.132 348.91C328.132 346.9 328.507 345.025 329.257 343.285C330.007 341.515 331.102 340.105 332.542 339.055C334.012 337.975 335.722 337.435 337.672 337.435C339.712 337.435 341.257 338.095 342.307 339.415C343.357 340.705 343.852 342.34 343.792 344.32C343.792 346.09 343.087 347.44 341.677 348.37C340.297 349.3 338.527 349.765 336.367 349.765C336.037 349.765 335.542 349.735 334.882 349.675C333.802 349.555 333.037 349.39 332.587 349.18C332.137 348.97 331.912 348.55 331.912 347.92C331.912 347.71 331.972 347.56 332.092 347.47C332.212 347.35 332.452 347.29 332.812 347.29C333.202 347.29 333.892 347.38 334.882 347.56C335.842 347.74 336.697 347.83 337.447 347.83C340.207 347.83 341.587 346.63 341.587 344.23C341.587 342.79 341.317 341.65 340.777 340.81C340.267 339.97 339.352 339.55 338.032 339.55C336.592 339.55 335.302 339.94 334.162 340.72C333.022 341.47 332.137 342.46 331.507 343.69C330.907 344.92 330.607 346.225 330.607 347.605C330.607 349.975 331.267 351.925 332.587 353.455C333.907 354.955 335.947 355.705 338.707 355.705C339.037 355.705 339.592 355.675 340.372 355.615C340.702 355.585 341.107 355.495 341.587 355.345C342.067 355.195 342.412 355.09 342.622 355.03C343.912 354.58 344.857 354.355 345.457 354.355C345.907 354.355 346.252 354.475 346.492 354.715C345.742 355.855 344.617 356.695 343.117 357.235C341.647 357.745 340.192 358 338.752 358Z" fill="white"/>
<g filter="url(#filter0_d_185_242)">
<rect x="39.2381" y="142.893" width="188.629" height="188.629" rx="12.4063" transform="rotate(-45 39.2381 142.893)" fill="white"/>
</g>
<path d="M224.091 97.4048C224.686 99.4509 225.09 100.569 225.375 100.926C225.661 101.283 225.375 102.068 224.733 102.282C224.091 102.496 221.902 103.21 221.902 103.21L220.831 95.5729L221.474 94.2881L223.282 92.6941C223.306 92.6941 223.71 96.0963 224.091 97.4048Z" fill="#F37E4E"/>
<path d="M196.326 111.656C196.326 111.656 200.442 108.206 201.394 106.969C202.726 105.209 203.321 104.495 202.988 103.067C202.631 101.64 202.084 100.688 202.869 100.974C203.654 101.259 216.406 110.443 216.406 110.443C216.406 110.443 213.694 111.656 211.767 113.44C209.863 115.201 208.222 118.865 208.222 118.865L196.326 111.656Z" fill="#FFA171"/>
<path d="M204.367 109.443C206.723 112.846 208.84 117.533 208.84 117.533C208.84 117.533 209.958 115.153 210.791 114.321C212.671 112.441 215.597 110.538 215.597 110.538L209.316 100.664L203.582 102.568L202.797 104.994L201.703 106.588C201.703 106.588 202.916 107.326 204.367 109.443Z" fill="#F37E4E"/>
<path d="M222.306 86.7224C222.306 86.7224 222.996 88.4116 223.187 91.7187C223.353 94.6926 223.401 96.3342 223.282 98.19C223.139 100.617 223.377 102.544 223.306 104.804C223.234 107.064 222.378 109.063 221.593 109.8C220.379 110.918 219.761 111.014 217.619 111.085C215.502 111.156 213.075 110.419 209.887 109.015C206.723 107.611 203.939 107.088 203.297 104.043C202.655 100.997 203.011 98.0948 203.011 98.0948L213.979 87.8406L222.306 86.7224Z" fill="#FFA171"/>
<path d="M208.983 99.0228C208.983 99.0228 208.507 100.022 209.745 101.45C210.982 102.877 211.576 103.829 211.814 104.519C212.052 105.232 210.815 105.399 209.792 104.876C208.793 104.352 208.721 104.043 207.889 104.281C207.056 104.519 205.938 104.638 205.343 104.114C204.748 103.591 204.701 103.472 203.987 103.71C203.273 103.948 202.203 103.543 201.679 102.282C201.18 101.045 208.983 99.0228 208.983 99.0228Z" fill="#5E2D1E"/>
<path fill-rule="evenodd" clip-rule="evenodd" d="M213.385 77.7054C218.167 78.4192 221.759 81.4169 223.544 86.318C225.352 91.2191 225.59 97.9283 225.542 97.8807C224.471 99.6651 222.068 100.997 220.046 102.068C218.05 103.148 216.263 102.096 214.273 100.925L214.193 100.878C212.171 99.6889 210.72 99.5699 209.054 100.046C207.956 100.36 206.277 101.512 204.989 102.397C204.324 102.853 203.763 103.238 203.44 103.4C202.488 103.876 201.275 103.876 200.323 102.568C200.185 102.378 200.039 102.197 199.886 102.007C198.988 100.891 197.852 99.4803 196.611 94.193C195.279 88.5306 196.35 85.2236 200.133 81.2504C203.368 77.872 208.602 76.9917 213.385 77.7054ZM220.998 99.3319C222.14 99.213 223.068 98.5468 223.424 98.1424C223.972 97.5476 223.853 96.6435 223.662 95.4777C223.496 94.3119 222.901 92.0993 221.117 91.6235C219.998 91.3142 218.833 92.3134 218.452 93.6933C218.095 95.0019 218.071 96.358 218.737 97.9044C219.094 98.7372 219.761 99.4509 220.998 99.3319Z" fill="#C82C2F"/>
<path d="M205.962 97.5714C208.406 97.5714 210.387 95.5369 210.387 93.0272C210.387 90.5175 208.406 88.483 205.962 88.483C203.518 88.483 201.536 90.5175 201.536 93.0272C201.536 95.5369 203.518 97.5714 205.962 97.5714Z" fill="#FFAA00"/>
<path d="M205.962 95.7869C207.447 95.7869 208.65 94.5513 208.65 93.0271C208.65 91.5029 207.447 90.2673 205.962 90.2673C204.477 90.2673 203.273 91.5029 203.273 93.0271C203.273 94.5513 204.477 95.7869 205.962 95.7869Z" fill="#FFC648"/>
<path d="M186.453 78.657C186.453 77.063 188.856 76.7537 196.017 77.8243C203.202 78.895 206.414 79.0139 207.984 80.4652C209.53 81.8927 209.174 83.463 208.817 85.8421C208.46 88.2451 207.032 92.0517 206.794 92.9082C206.557 93.7409 205.367 93.7409 204.772 93.3841C204.177 93.0272 204.177 91.3618 204.296 90.7432C204.415 90.1484 202.393 87.9834 202.393 87.9834C202.393 87.9834 200.109 87.5075 198.8 86.7938C197.492 86.08 197.254 85.3663 197.254 85.3663C197.254 85.3663 194.256 85.0094 192.71 84.1767C191.163 83.344 191.044 82.0117 191.044 82.0117C191.044 82.0117 186.453 80.941 186.453 78.657Z" fill="#FFAA00"/>
<path d="M221.45 97.9044C222.054 97.9044 222.544 97.0309 222.544 95.9535C222.544 94.876 222.054 94.0026 221.45 94.0026C220.845 94.0026 220.355 94.876 220.355 95.9535C220.355 97.0309 220.845 97.9044 221.45 97.9044Z" fill="#5E2D1E"/>
<path d="M187.642 79.0616C188.094 80.1322 189.331 80.7508 191.758 80.9173C194.161 81.0839 203.606 81.3456 205.01 81.298C206.437 81.2504 207.698 80.037 203.035 79.4422C198.372 78.8475 192.519 77.9672 190.544 77.9196C188.57 77.8482 187.19 78.0147 187.642 79.0616Z" fill="#FFC648"/>
<path d="M192.567 82.5113C192.781 83.344 193.614 83.6057 195.208 84.0339C196.802 84.4622 197.777 84.3194 199.586 84.2481C201.394 84.2005 204.082 83.6533 204.891 83.5343C205.724 83.4154 207.246 82.4399 203.678 82.2258C200.109 82.0117 194.851 81.8927 193.543 81.8927C192.496 81.8927 192.472 82.0592 192.567 82.5113Z" fill="#FFC648"/>
<path d="M198.991 85.6756C199.3 86.2704 200.371 86.6034 201.084 86.77C201.798 86.9365 202.845 86.3893 204.035 85.8897C205.248 85.3901 206.223 84.5098 205.629 84.4622C205.034 84.4146 202.94 84.7477 201.513 84.8904C200.085 85.0808 198.658 85.0808 198.991 85.6756Z" fill="#FFC648"/>
<path d="M203.368 87.7454C203.868 88.5305 204.248 89.4346 204.653 89.5536C205.057 89.6725 205.652 89.2681 205.819 87.793C205.985 86.3417 206.294 85.2235 205.343 85.9848C204.415 86.7462 203.582 87.0317 203.297 87.222C203.011 87.3886 203.059 87.2696 203.368 87.7454Z" fill="#FFC648"/>
<path d="M216.81 230.543C216.81 230.543 215.93 239.988 215.573 241.487C215.192 242.986 214.336 244.104 214.455 245.722C214.574 247.34 215.835 247.839 219.546 247.839C223.282 247.839 234.226 247.72 234.226 247.72C234.226 247.72 226.018 243.128 224.899 242.367C223.781 241.63 223.401 240.868 223.781 238.751C224.162 236.633 225.28 232.779 225.28 232.779L216.81 230.543Z" fill="#FFA171"/>
<path d="M218.833 238.87C221.426 238.989 223.829 238.156 223.829 238.156L225.709 231.447L216.596 231.708L216.049 238.227C216.049 238.251 216.953 238.775 218.833 238.87Z" fill="#F37E4E"/>
<path d="M225.923 241.534C227.683 242.296 230.657 243.818 232.703 244.96C234.773 246.102 235.606 246.483 235.606 247.554C235.606 248.624 232.109 248.458 227.422 248.458C223.377 248.458 214.455 248.434 214.17 248.434C213.86 248.434 212.956 246.65 213.337 244.223C213.718 241.772 215.573 241.511 215.573 241.511C215.573 241.511 215.859 244.175 218.238 244.342C221.569 244.556 223.258 243.914 224.019 243.462C224.781 243.01 224.781 242.486 224.781 242.486C224.781 242.486 223.781 241.487 224.638 240.963C225.447 240.392 225.923 241.534 225.923 241.534Z" fill="#FFC648"/>
<path d="M142.914 175.679C142.914 175.679 139.964 183.911 149.385 191.191C158.807 198.448 174.7 199.043 191.758 199.043C208.817 199.043 216.097 199.233 216.097 199.233C216.097 199.233 214.931 217.291 213.551 224.928C212.171 232.589 210.601 234.73 211.6 235.515C212.576 236.3 214.931 235.991 220.998 235.991C227.208 235.991 229.753 235.515 230.539 234.54C231.324 233.564 236.51 223.524 238.461 208.821C240.412 194.094 241.602 186.837 238.271 181.556C234.94 176.25 228.469 172.134 219.047 170.564C209.626 168.994 200.989 167.043 200.989 167.043L142.914 175.679Z" fill="#FFC648"/>
<path d="M151.812 182.507C161.4 184.649 177.578 185.243 187.713 179.486C197.849 173.728 203.463 171.516 205.581 170.945C207.698 170.374 213.789 169.803 213.789 169.803L205.414 168.161L167.824 174.323L142.462 178.844C142.462 178.867 147.125 181.461 151.812 182.507Z" fill="#FFAA00"/>
<path d="M197.325 111.18C197.325 111.18 197.063 104.899 187.571 102.901C178.101 100.902 175.96 101.307 172.225 105.042C168.49 108.777 166.491 113.845 168.347 117.58C170.203 121.315 179.434 118.912 184.62 116.914C189.855 114.915 194.779 113.869 197.325 111.18Z" fill="#FFC648"/>
<path d="M196.373 109.919C196.373 109.919 195.112 106.588 191.258 104.804C188.332 103.448 183.431 102.401 179.791 102.401C176.769 102.401 175.246 103.21 174.89 104.495C174.461 106.017 179.719 104.637 185.215 105.851C188.974 106.684 192.638 107.659 194.28 109.491C195.255 110.562 196.207 111.823 196.564 111.585C197.016 111.347 196.659 110.395 196.373 109.919Z" fill="#FFAA00"/>
<path d="M200.442 114.011C204.439 116.295 208.198 118.841 208.198 118.841C208.198 118.841 205.01 126.026 204.629 134.805C204.249 143.584 203.107 150.056 204.058 157.122C205.01 164.188 205.391 168.185 205.391 168.185C205.391 168.185 192.043 175.441 176.769 177.345C161.519 179.248 142.438 178.867 142.438 178.867C142.438 178.867 134.991 166.282 150.646 142.823C166.301 119.364 180.029 114.773 184.406 112.679C188.784 110.585 196.302 111.656 196.302 111.656L200.442 114.011Z" fill="#FFC648"/>
<path d="M147.958 276.318C159.087 276.318 168.109 267.296 168.109 256.166C168.109 245.037 159.087 236.015 147.958 236.015C136.828 236.015 127.806 245.037 127.806 256.166C127.806 267.296 136.828 276.318 147.958 276.318Z" fill="#5E2D1E"/>
<path d="M147.958 268.942C155.014 268.942 160.734 263.222 160.734 256.166C160.734 249.11 155.014 243.39 147.958 243.39C140.902 243.39 135.182 249.11 135.182 256.166C135.182 263.222 140.902 268.942 147.958 268.942Z" fill="#DBB38A"/>
<path d="M147.957 267.586C154.264 267.586 159.377 262.473 159.377 256.166C159.377 249.859 154.264 244.746 147.957 244.746C141.65 244.746 136.537 249.859 136.537 256.166C136.537 262.473 141.65 267.586 147.957 267.586Z" fill="#F9E5D0"/>
<path d="M147.958 260.734C150.48 260.734 152.526 258.689 152.526 256.166C152.526 253.643 150.48 251.598 147.958 251.598C145.435 251.598 143.39 253.643 143.39 256.166C143.39 258.689 145.435 260.734 147.958 260.734Z" fill="#5E2D1E"/>
<path d="M271.983 276.318C283.113 276.318 292.135 267.296 292.135 256.166C292.135 245.037 283.113 236.015 271.983 236.015C260.854 236.015 251.832 245.037 251.832 256.166C251.832 267.296 260.854 276.318 271.983 276.318Z" fill="#5E2D1E"/>
<path d="M271.984 268.942C279.04 268.942 284.76 263.222 284.76 256.166C284.76 249.11 279.04 243.39 271.984 243.39C264.928 243.39 259.208 249.11 259.208 256.166C259.208 263.222 264.928 268.942 271.984 268.942Z" fill="#DBB38A"/>
<path d="M271.984 267.586C278.291 267.586 283.403 262.473 283.403 256.166C283.403 249.859 278.291 244.746 271.984 244.746C265.676 244.746 260.564 249.859 260.564 256.166C260.564 262.473 265.676 267.586 271.984 267.586Z" fill="#F9E5D0"/>
<path d="M271.984 260.734C274.507 260.734 276.552 258.689 276.552 256.166C276.552 253.643 274.507 251.598 271.984 251.598C269.461 251.598 267.416 253.643 267.416 256.166C267.416 258.689 269.461 260.734 271.984 260.734Z" fill="#5E2D1E"/>
<path d="M120.074 237.633C122.57 237.633 124.594 235.172 124.594 232.137C124.594 229.102 122.57 226.641 120.074 226.641C117.577 226.641 115.553 229.102 115.553 232.137C115.553 235.172 117.577 237.633 120.074 237.633Z" fill="#C82C2F"/>
<path d="M133.706 224.809C133.706 224.809 127.972 224.571 125.213 224.809C122.476 225.047 119.978 226.046 119.978 226.046V237.823C119.978 237.823 120.478 238.537 122.714 238.537C124.951 238.537 133.706 224.809 133.706 224.809Z" fill="#F9E5D0"/>
<path d="M167.705 123.028C167.705 123.028 170.536 123.837 175.508 121.411C179.505 119.46 183.693 118.032 187.499 116.367C191.306 114.701 196.326 111.656 196.326 111.656C196.326 111.656 179.125 116.914 178.387 117.104C177.65 117.295 172.058 119.436 172.058 119.436L167.705 123.028Z" fill="#FFAA00"/>
<path d="M142.962 215.887C142.962 215.126 142.509 214.483 141.891 214.174V190.216C141.891 189.312 141.153 188.574 140.249 188.574H136.918C136.014 188.574 135.277 189.312 135.277 190.216V214.008H80.1992C79.1524 214.008 78.2959 214.864 78.2959 215.911C78.2959 216.958 79.1524 217.814 80.1992 217.814H119.17L139.536 228.259C140.202 228.592 141.011 228.33 141.344 227.688L142.248 225.927C142.581 225.261 142.319 224.452 141.677 224.119L129.472 217.838H141.082C142.105 217.79 142.962 216.934 142.962 215.887Z" fill="#9E9E9F"/>
<path d="M193.304 120.435C193.304 120.435 198.61 120.578 199.347 129.809C199.704 134.187 200.037 137.422 200.275 139.635C200.537 141.919 201.798 143.965 203.701 145.226V145.226L203.868 148.557L195.398 149.461L191.044 145.845L193.304 120.435Z" fill="#FFAA00"/>
<path d="M172.463 160.405C173.486 166.496 178.411 169.137 187.808 169.065C197.848 168.994 205.248 166.995 205.248 166.995L203.939 158.882C203.939 158.882 185.667 159.073 182.455 154.552C179.243 150.032 176.246 124.408 176.246 124.408C176.246 124.408 168.704 137.993 172.463 160.405Z" fill="#FFAA00"/>
<path d="M189.474 214.531C189.474 214.531 186.619 209.154 166.919 209.868C147.22 210.582 137.561 214.983 130.304 224.547C124.071 232.779 120.383 240.654 118.218 247.459C116.077 254.263 115.006 254.62 117.147 256.404C119.289 258.189 172.891 258.593 172.891 258.593L178.339 260.33L225.59 259.973L250.999 256.404L296.108 243.509C296.108 243.509 294.514 232.874 282.19 228.045C274.91 225.19 269.271 225.975 269.271 225.975L245.289 155.456C245.289 155.456 243.386 153.22 240.412 151.364C237.438 149.508 232.061 150.436 228.706 152.673C225.375 154.909 232.418 160.833 236.129 167.709C239.841 174.585 244.885 183.364 244.885 205.609C244.885 227.854 244.885 230.305 244.885 234.421C244.885 238.537 243.076 243.652 238.033 247.578C236.296 248.934 200.323 248.672 197.301 248.672C193.495 248.672 183.978 242.653 182.313 233.874C180.647 225.094 189.474 214.531 189.474 214.531Z" fill="#E84C4F"/>
<path d="M163.946 218.361C174.414 221.169 177.578 227.735 178.078 237.014C178.578 245.817 178.34 246.317 178.744 249.005C179.244 252.431 178.982 251.527 195.612 251.884C213.075 252.264 223.377 251.955 231.086 250.361C236.653 249.219 239.674 247.554 242.22 243.842C245.48 239.036 244.694 230.59 244.98 218.576C245.337 203.206 242.458 181.675 238.842 172.467C236.558 166.615 240.65 155.885 245.313 155.504C250 155.123 253.426 217.219 253.426 217.219L261.111 223.144C261.111 223.144 270.318 225.665 271.96 225.832C279.026 226.617 280.691 227.735 280.667 227.759C280.667 227.759 274.672 227.759 267.035 244.152C266.202 245.936 264.608 252.455 264.608 252.455C264.608 252.455 254.806 255.405 253.878 255.619C247.93 256.951 245.86 259.259 245.86 259.259L215.312 260.734L178.411 260.377L172.915 258.617L169.085 237.252L152.216 229.187L138.275 234.801L126.307 245.793L120.36 257.499C120.36 257.499 118.789 257.76 117.171 256.428C115.554 255.096 115.554 255.762 118.242 247.482C120.931 239.203 126.236 232.517 133.516 225.618C140.796 218.718 156.309 216.315 163.946 218.361Z" fill="#C82C2F"/>
<path d="M154.12 222.358C166.277 222.025 172.772 228.402 173.867 237.728C174.961 247.054 172.915 258.617 172.915 258.617L120.36 257.499C120.36 257.499 123.096 223.191 154.12 222.358Z" fill="#E84C4F"/>
<path d="M145.602 187.528C145.602 187.528 140.392 186.433 139.559 190.549C138.727 194.665 139.559 208.654 139.559 211.414C139.559 214.15 146.459 212.271 152.764 211.724C159.068 211.176 169.132 210.13 176.531 211.509C183.931 212.889 189.45 214.579 189.45 214.579C189.45 214.579 192.234 214.436 194.708 214.436C197.182 214.436 197.73 209.487 198.277 205.11C198.824 200.708 197.563 199.066 191.758 199.066C185.953 199.066 154.929 200.97 145.602 187.528Z" fill="#C82C2F"/>
<path d="M234.202 156.48C233.37 159.263 233.465 159.977 231.823 159.501C230.158 159.049 229.444 159.596 228.706 160.976C227.969 162.356 223.02 157.764 223.02 157.764C223.02 157.764 224.591 155.647 227.898 154.457C231.205 153.268 232.489 153.815 233.584 154.172C234.654 154.529 234.464 155.552 234.202 156.48Z" fill="#E84C4F"/>
<path d="M225.78 145.535C227.882 145.535 229.586 142.627 229.586 139.04C229.586 135.453 227.882 132.545 225.78 132.545C223.677 132.545 221.973 135.453 221.973 139.04C221.973 142.627 223.677 145.535 225.78 145.535Z" fill="#E84C4F"/>
<path d="M235.534 140.039C237.413 140.039 238.937 137.44 238.937 134.234C238.937 131.028 237.413 128.429 235.534 128.429C233.656 128.429 232.132 131.028 232.132 134.234C232.132 137.44 233.656 140.039 235.534 140.039Z" fill="#E84C4F"/>
<path d="M227.755 138.493C227.755 138.493 229.729 139.635 230.158 143.87C230.586 148.105 234.535 151.792 234.535 151.792L231.109 153.815C231.109 153.815 229.301 148.961 228.897 146.13C228.468 143.299 227.493 139.064 227.493 139.064L227.755 138.493Z" fill="#E84C4F"/>
<path d="M232.704 135.234C232.704 135.234 232.109 138.493 232.846 142.3C234.25 149.509 237.295 151.745 237.295 151.745L241.602 152.601C241.602 152.601 236.796 147.938 235.535 145.107C234.274 142.276 234.536 137.898 234.536 137.898L232.704 135.234Z" fill="#E84C4F"/>
<path d="M268.557 176.06H268.176C272.054 176.06 275.195 172.682 275.195 168.161V167.067C275.195 162.404 272.054 158.906 268.176 158.906H268.557V176.06Z" fill="#FFC648"/>
<path d="M270.223 176.774H267.677C263.466 176.774 260.064 173.372 260.064 169.16V165.782C260.064 161.571 263.466 158.169 267.677 158.169H270.223V176.774Z" fill="#C82C2F"/>
<path d="M210.506 149.794C210.506 149.794 213.313 149.865 218.166 149.865C223.02 149.865 226.612 149.508 229.134 148.676C231.656 147.843 231.656 147.343 234.202 148.961C236.724 150.579 237.152 150.936 237.295 151.769C237.438 152.601 236.581 156.337 236.177 157.74C235.748 159.144 234.987 159.073 234.559 158.859C234.131 158.644 234.416 156.527 234.488 155.694C234.559 154.862 234.416 154.362 234.416 154.362C234.416 154.362 232.013 153.72 231.109 153.791C230.205 153.862 228.088 153.862 226.47 155.052C225.233 155.98 224.566 156.741 222.734 157.098C221.355 157.36 219.499 157.455 217.81 156.884C216.287 156.384 209.221 156.812 209.221 156.812L210.506 149.794Z" fill="#FFA171"/>
<path d="M175.604 130.642C175.175 137.946 173.629 150.198 175.841 156.408C177.007 159.691 178.744 160.928 181.647 162.546C185.858 164.902 193.733 163.45 200.037 163.284C209.53 163.046 208.888 158.811 208.888 158.811C208.888 158.811 207.46 157.169 208.436 153.172C209.388 149.175 210.173 149.271 210.173 149.271C210.173 149.271 210.53 145.559 205.367 146.32C200.228 147.082 196.968 146.701 196.968 146.701C196.968 146.701 199.062 134.686 196.778 125.907C194.494 117.128 188.76 115.034 184.835 115.939C179.934 117.033 176.175 120.911 175.604 130.642Z" fill="#FFC648"/>
<path d="M213.503 152.506C214.074 154.528 216.049 155.314 217.239 155.718C218.428 156.122 220.451 156.741 222.235 156.051C224.019 155.361 227.85 154.433 227.85 154.433C227.85 154.433 224.876 156.146 224.186 156.646C223.496 157.145 221.735 157.669 220.451 157.502C219.19 157.336 217.572 156.812 216.81 156.646C216.049 156.479 210.196 156.741 210.196 156.741L210.791 150.888L212.147 149.794L213.408 149.889C213.432 149.889 213.075 150.983 213.503 152.506Z" fill="#F37E4E"/>
<path d="M210.125 149.223L212.814 149.651C212.814 149.651 211.6 150.365 211.6 153.053C211.6 156.622 212.361 157.169 212.361 157.169L208.769 158.192C208.769 158.192 206.889 158.454 206.889 154.648C206.889 150.841 207.603 149.461 210.125 149.223Z" fill="#FFC648"/>
<path d="M209.078 148.295C208.555 149.08 207.056 149.056 206.675 153.268C206.295 157.479 206.461 159.025 205.795 160.286C205.129 161.547 204.748 161.714 204.368 162.094C203.987 162.475 202.988 163.07 202.988 163.07C202.988 163.07 205.462 162.856 206.818 161.856C208.198 160.881 208.341 160.595 208.626 160.001C208.912 159.406 208.793 158.407 208.793 158.407C208.793 158.407 207.96 157.027 208.46 153.648C208.959 150.246 210.101 149.223 210.101 149.223C210.101 149.223 210.149 148.89 210.101 148.295C210.054 147.7 209.435 147.105 209.102 146.939C208.817 146.772 209.53 147.629 209.078 148.295Z" fill="#FFAA00"/>
<path d="M225.495 163.641C227.452 163.641 229.04 162.054 229.04 160.096C229.04 158.138 227.452 156.551 225.495 156.551C223.537 156.551 221.95 158.138 221.95 160.096C221.95 162.054 223.537 163.641 225.495 163.641Z" fill="#C82C2F"/>
<path d="M247.145 152.673C242.482 155.528 240.483 159.572 243.814 179.533C247.145 199.495 251.736 222.263 249.453 235.063C247.145 247.863 243.576 249.647 236.914 253.739C230.253 257.832 203.939 258.26 195.493 258.26C187.047 258.26 172.915 258.617 172.915 258.617C172.915 258.617 173.438 260.925 174.961 261.948C176.507 262.971 238.437 261.948 243.029 261.948C247.644 261.948 255.829 255.548 263.751 243.533C271.674 231.494 275.79 218.718 275.005 201.564C274.22 184.411 266.82 170.35 261.943 163.427C257.113 156.503 251.736 149.842 247.145 152.673Z" fill="#E84C4F"/>
<path d="M211.243 234.326C211.243 234.326 217.191 213.103 219.737 207.156C222.283 201.208 223.972 197.829 221.569 197.115C219.166 196.402 206.437 198.947 206.437 198.947L216.097 199.209C216.097 199.233 210.958 230.923 211.243 234.326Z" fill="#FFAA00"/>
<path d="M121.24 257.855L172.891 258.664C173.819 258.688 174.604 258.165 174.747 257.451L174.937 256.428C175.08 255.69 174.343 255.167 173.391 255.048C169.632 254.596 161.733 254.287 147.149 254.192C132.279 254.096 124.19 254.001 120.883 254.382C120.145 254.477 119.788 254.715 119.693 255.286L119.574 256.357C119.455 257.142 120.217 257.832 121.24 257.855Z" fill="#FFC648"/>
<path d="M253.854 255.619L296.132 243.533V243.533C296.822 243.319 297.25 242.605 297.036 241.891C296.869 241.344 296.632 241.035 296.037 240.25C295.418 239.417 294.609 239.774 294.609 239.774L257.875 251.336C257.875 251.36 255.686 254.429 253.854 255.619Z" fill="#FFC648"/>
<path d="M147.363 175.822C155.904 176.155 165.017 176.06 177.721 173.966C194.161 171.278 205.224 166.424 205.224 166.424L205.391 168.161C205.391 168.161 195.969 173.633 183.312 176.274C170.655 178.915 154.358 179.129 151.289 179.129C148.22 179.129 142.438 178.844 142.438 178.844L140.892 174.656C140.916 174.68 143.176 175.655 147.363 175.822Z" fill="white"/>
<path fill-rule="evenodd" clip-rule="evenodd" d="M210.553 120.102H211.005C212.338 120.102 216.24 119.935 217.358 118.032C217.857 117.176 217.738 116.129 217.001 114.963C216.406 114.011 215.597 113.512 214.646 113.488C211.6 113.417 207.96 118.341 207.817 118.556L207.508 118.96L207.913 119.269C207.916 119.271 207.926 119.277 207.941 119.287C208.119 119.4 209.083 120.014 210.553 120.102ZM210.625 119.079C209.911 119.031 209.34 118.841 208.983 118.675C210.149 117.176 212.671 114.487 214.551 114.511H214.622C215.217 114.535 215.74 114.844 216.145 115.51C216.692 116.319 216.787 117.009 216.501 117.509C215.693 118.889 212.124 119.15 210.625 119.079Z" fill="#FFAA00"/>
<path fill-rule="evenodd" clip-rule="evenodd" d="M209.15 126.859C209.436 127.025 209.769 127.097 210.102 127.097C210.625 127.097 211.22 126.883 211.886 126.454C212.719 125.883 213.147 125.17 213.147 124.313C213.171 121.672 209.031 118.746 208.555 118.413L208.127 118.127L207.841 118.556C207.84 118.559 207.835 118.568 207.827 118.581C207.728 118.741 207.196 119.612 207.152 120.911C207.152 120.912 207.151 120.913 207.151 120.916C207.15 121.091 207.109 125.733 209.15 126.859ZM208.15 120.935C208.174 120.388 208.317 119.912 208.436 119.602C209.768 120.625 212.123 122.719 212.1 124.313C212.1 124.837 211.838 125.265 211.291 125.622C210.601 126.074 210.054 126.193 209.625 125.955C208.483 125.336 208.103 122.386 208.15 120.935Z" fill="#FFAA00"/>
<path d="M216.882 121.625C212.528 121.625 208.888 119.698 208.722 119.626C208.484 119.483 208.389 119.198 208.507 118.936C208.65 118.698 208.936 118.603 209.197 118.722C209.221 118.746 212.79 120.602 216.882 120.602C220.76 120.602 221.855 119.079 221.878 119.055C222.045 118.817 222.354 118.77 222.568 118.912C222.806 119.055 222.878 119.364 222.711 119.602C222.663 119.698 221.403 121.625 216.882 121.625Z" fill="#FFAA00"/>
<path d="M215.597 127.763C215.55 127.763 215.478 127.763 215.431 127.739C215.169 127.644 215.026 127.382 215.121 127.121C215.121 127.073 215.169 127.025 215.217 126.93C215.454 126.431 216.144 124.956 215.074 123.837C213.694 122.386 210.101 120.649 210.054 120.625C209.792 120.506 209.697 120.197 209.816 119.959C209.935 119.698 210.244 119.602 210.482 119.721C210.649 119.793 214.289 121.553 215.811 123.147C216.834 124.218 216.93 125.645 216.121 127.358C216.097 127.406 216.097 127.43 216.073 127.454C216.002 127.62 215.788 127.763 215.597 127.763Z" fill="#FFAA00"/>
<path d="M126.307 245.793C126.307 245.793 129.138 233.778 141.319 227.64C153.525 221.502 161.209 225.356 163.945 226.879C167.181 228.687 168.87 233.683 169.084 237.228C169.322 240.797 126.307 245.793 126.307 245.793Z" fill="#F25A62"/>
<path d="M247.811 155.742C245.004 157.907 244.362 162.642 244.861 169.065C245.361 175.489 249.167 195.236 250.381 203.825C251.618 212.414 252.094 223.001 252.094 227.426C252.094 231.851 251.594 234.302 251.594 234.302C251.594 234.302 254.306 229.377 253.569 219.551C252.831 209.725 253.069 202.588 251.356 192.524C249.643 182.46 248.168 172.872 247.906 167.709C247.669 162.546 247.669 158.859 249.881 157.384C252.094 155.909 250.904 153.339 247.811 155.742Z" fill="#F25A62"/>
<path d="M103.277 229.781C106.536 227.735 108.844 227.569 110.914 229.781C112.984 231.994 112.651 234.397 110.748 236.134C108.844 237.87 107.559 237.728 106.465 239.155C105.347 240.583 101.374 240.583 100.279 238.846C99.1372 237.109 98.9945 232.494 103.277 229.781Z" fill="#C1E5F2"/>
<path d="M81.1981 228.687C85.9327 226.522 88.978 225.832 91.5237 227.093C94.0694 228.354 95.9727 229.805 96.4485 232.327C96.9244 234.873 97.2337 236.943 95.4969 239.155C93.7601 241.368 92.3088 242.819 90.2627 243.295C88.1929 243.771 86.123 242.343 85.5044 241.701C84.862 241.059 83.7676 241.392 83.2918 242.343C82.8159 243.295 80.5795 244.08 79.0093 243.295C77.4153 242.51 77.2725 241.701 77.106 240.916C76.9394 240.131 76.1543 240.44 75.6785 239.322C75.1551 238.204 74.2034 231.851 81.1981 228.687Z" fill="#C1E5F2"/>
<path d="M48.6278 226.784C48.3185 231.923 49.2701 234.088 51.4828 235.515C53.6954 236.943 53.6954 237.585 54.0285 239.179C54.3377 240.773 56.5742 242.843 60.6901 242.034C64.8298 241.249 68.1607 237.276 68.47 235.515C68.7793 233.755 69.1123 233.303 70.5398 232.969C71.9673 232.66 76.1071 230.757 76.4164 225.975C76.7257 221.216 74.8223 219.932 73.3948 219.313C71.9673 218.671 71.658 219.004 71.9673 217.576C72.2766 216.149 70.3733 212.818 67.0425 212.342C63.7116 211.866 60.2143 212.342 57.9779 215.53C56.3838 217.814 56.8597 219.194 55.908 219.979C54.9801 220.741 48.9371 221.692 48.6278 226.784Z" fill="#C1E5F2"/>
<path d="M270.223 177.083V177.083C269.818 177.083 269.485 176.75 269.485 176.345V158.692C269.485 158.288 269.818 157.954 270.223 157.954V157.954C270.627 157.954 270.96 158.288 270.96 158.692V176.345C270.96 176.75 270.627 177.083 270.223 177.083Z" fill="white"/>
<path d="M213.361 246.626L235.463 246.721" stroke="#FFDDA1" stroke-width="0.147031"/>
<path d="M221.474 236.11L220.475 235.92C223.972 218.504 229.04 190.168 227.707 188.313C226.256 186.719 219.785 186.576 206.866 186.314C202.845 186.219 198.277 186.124 192.971 185.981C178.554 185.553 172.963 182.722 170.798 180.438C169.537 179.081 169.537 178.011 169.537 177.892L170.56 177.916C170.56 177.987 170.845 184.316 192.995 184.982C198.301 185.148 202.845 185.243 206.866 185.315C220.903 185.6 226.708 185.743 228.445 187.67C228.873 188.146 229.896 189.288 225.78 212.984C223.805 224.523 221.498 235.991 221.474 236.11Z" fill="#FFDDA1"/>
<rect x="68.7789" y="166.448" width="65.5459" height="7.23265" fill="#FFC263"/>
<rect x="68.7789" y="169.731" width="65.5459" height="2.66466" fill="#FBA647"/>
<rect x="67.4942" y="163.664" width="68.0916" height="7.23265" fill="#FFC263"/>
<rect x="68.7789" y="186.6" width="65.5459" height="7.23265" fill="#FFC263"/>
<rect x="68.7789" y="189.859" width="65.5459" height="2.66466" fill="#FBA647"/>
<rect x="67.4942" y="183.792" width="68.0916" height="7.23265" fill="#FFC263"/>
<rect x="69.2786" y="156.432" width="65.5459" height="7.23265" fill="#FCA647"/>
<rect x="69.2786" y="160.215" width="65.5459" height="2.18883" fill="#EF851B"/>
<rect x="68.0174" y="153.624" width="68.0916" height="7.23265" fill="#FBA647"/>
<rect x="67.756" y="176.583" width="65.5459" height="7.23265" fill="#FCA647"/>
<rect x="67.756" y="180.366" width="65.5459" height="2.18883" fill="#EF851B"/>
<rect x="66.4952" y="173.776" width="68.0916" height="7.23265" fill="#FBA647"/>
<rect x="68.7789" y="206.775" width="65.5459" height="7.23265" fill="#FFC263"/>
<rect x="68.7789" y="210.058" width="65.5459" height="2.66466" fill="#FBA647"/>
<rect x="67.4942" y="203.967" width="68.0916" height="7.23265" fill="#FFC263"/>
<rect x="67.756" y="196.759" width="65.5459" height="7.23265" fill="#FCA647"/>
<rect x="67.756" y="200.541" width="65.5459" height="2.18883" fill="#EF851B"/>
<rect x="66.4952" y="193.951" width="68.0916" height="7.23265" fill="#FBA647"/>
<rect x="66.4714" y="146.392" width="65.5459" height="7.23265" fill="#FFC263"/>
<rect x="66.5664" y="149.604" width="65.5459" height="2.66466" fill="#FBA647"/>
<rect x="65.2102" y="143.584" width="68.0916" height="7.23265" fill="#FFC263"/>
<path d="M71.3725 181.172L71.8008 184.027H72.3004C72.3004 184.027 72.3718 186.026 73.2283 188.143C74.0848 190.285 75.7264 191.403 76.7732 192.117C77.8438 192.83 80.1754 194.044 84.3152 193.972C88.4311 193.901 92.0712 193.33 94.1887 191.76C96.3299 190.189 103.015 184.004 103.015 184.004H104.015L105.276 181.149L71.3725 181.172Z" fill="#EF851B"/>
<path d="M72.1575 181.032C72.1575 181.032 72.6809 186.552 75.4407 189.312C78.3195 192.19 82.0548 193.999 87.4317 192.69C92.8086 191.382 94.593 189.454 97.6145 187.218C100.636 184.982 105.228 181.175 105.228 181.175L72.1575 181.032Z" fill="#FFF498"/>
<path d="M78.248 188.574C80.0324 189.93 82.5305 191.001 84.8859 190.787C87.2412 190.572 90.6434 189.597 93.3557 187.48C96.0917 185.338 101.992 181.222 101.992 181.222L74.0369 181.08C74.0369 181.032 74.5603 185.767 78.248 188.574Z" fill="#FBE17B"/>
<path d="M80.8175 184.886C83.387 185.1 84.6956 183.34 85.0524 182.793C85.4331 182.198 85.6948 181.127 85.6948 181.127H76.7729C76.7729 181.127 77.225 184.577 80.8175 184.886Z" fill="#C14423"/>
<path d="M91.3808 181.175C91.3808 181.175 92.1184 183.935 95.4968 183.911C98.4707 183.911 99.5414 181.103 99.5414 181.103C99.5414 181.103 91.5236 181.175 91.3808 181.175Z" fill="#C14423"/>
<path d="M88.9304 188.931C90.7174 188.931 92.1661 187.482 92.1661 185.695C92.1661 183.908 90.7174 182.46 88.9304 182.46C87.1434 182.46 85.6947 183.908 85.6947 185.695C85.6947 187.482 87.1434 188.931 88.9304 188.931Z" fill="#C14423"/>
<path d="M81.7695 183.768C82.1769 183.768 82.5071 183.438 82.5071 183.031C82.5071 182.623 82.1769 182.293 81.7695 182.293C81.3622 182.293 81.032 182.623 81.032 183.031C81.032 183.438 81.3622 183.768 81.7695 183.768Z" fill="#D85A41"/>
<path d="M88.74 187.979C89.2525 187.979 89.6679 187.564 89.6679 187.051C89.6679 186.539 89.2525 186.124 88.74 186.124C88.2276 186.124 87.8121 186.539 87.8121 187.051C87.8121 187.564 88.2276 187.979 88.74 187.979Z" fill="#D85A41"/>
<path d="M88.1928 185.457C88.5344 185.457 88.8114 185.18 88.8114 184.839C88.8114 184.497 88.5344 184.22 88.1928 184.22C87.8511 184.22 87.5742 184.497 87.5742 184.839C87.5742 185.18 87.8511 185.457 88.1928 185.457Z" fill="#D85A41"/>
<path d="M94.5926 183.126C94.9342 183.126 95.2112 182.849 95.2112 182.507C95.2112 182.165 94.9342 181.889 94.5926 181.889C94.251 181.889 93.974 182.165 93.974 182.507C93.974 182.849 94.251 183.126 94.5926 183.126Z" fill="#D85A41"/>
<path d="M96.4959 182.555C96.8376 182.555 97.1145 182.278 97.1145 181.936C97.1145 181.595 96.8376 181.318 96.4959 181.318C96.1543 181.318 95.8773 181.595 95.8773 181.936C95.8773 182.278 96.1543 182.555 96.4959 182.555Z" fill="#D85A41"/>
<path d="M94.0698 218.695V218.695C93.7843 218.695 93.5463 218.457 93.5701 218.171L94.8549 142.871C94.8549 142.585 95.0928 142.395 95.3783 142.371C95.6638 142.371 95.8779 142.609 95.8779 142.895L94.5932 218.195C94.5932 218.457 94.3553 218.695 94.0698 218.695Z" fill="#C82C2F"/>
<path d="M111.699 218.528V218.528C111.414 218.528 111.176 218.29 111.2 218.005L112.484 143.251C112.484 142.966 112.722 142.752 113.008 142.752C113.293 142.752 113.508 142.99 113.508 143.275L112.223 218.028C112.199 218.29 111.985 218.528 111.699 218.528Z" fill="#C82C2F"/>
<path fill-rule="evenodd" clip-rule="evenodd" d="M103.443 143.204H103.562C103.681 143.204 103.8 143.156 103.872 143.085C103.99 142.99 104.062 142.847 104.062 142.68C104.062 142.49 103.895 138.112 102.301 134.758C101.231 132.521 99.2559 130.927 97.3764 130.761C96.4009 130.666 94.9734 130.927 93.8077 132.593C92.737 134.115 92.4753 135.614 93.0225 137.018C94.6404 141.229 103.086 143.132 103.443 143.204ZM94.6645 133.187C95.3307 132.236 96.1396 131.76 97.0675 131.76C97.1389 131.76 97.2102 131.76 97.3292 131.784C98.8519 131.903 100.517 133.282 101.421 135.21C102.563 137.636 102.92 140.705 103.039 142.062C101.064 141.538 95.188 139.73 93.9984 136.661C93.5701 135.566 93.7843 134.424 94.6645 133.187Z" fill="#C82C2F"/>
<path fill-rule="evenodd" clip-rule="evenodd" d="M103.158 143.275C103.253 143.394 103.396 143.465 103.539 143.465C103.563 143.465 103.563 143.465 103.586 143.442C103.753 143.442 107.916 143.085 111.2 141.562C113.246 140.61 114.816 138.755 115.22 136.851C115.458 135.686 115.244 134.591 114.578 133.83C113.388 132.45 111.937 131.927 110.391 132.283C107.369 132.997 104.562 137.018 103.063 142.823C103.015 142.99 103.063 143.156 103.158 143.275ZM110.628 133.283C110.866 133.235 111.08 133.211 111.318 133.211C112.222 133.211 113.055 133.64 113.84 134.496C114.292 135.019 114.435 135.805 114.245 136.661C113.888 138.279 112.532 139.849 110.795 140.658C108.463 141.752 105.584 142.205 104.252 142.371C105.68 137.399 108.13 133.854 110.628 133.283Z" fill="#C82C2F"/>
<path d="M100.874 143.323C96.4486 143.323 91.9996 141.681 87.6933 140.087C83.7201 138.636 79.961 137.256 76.2733 137.042C68.0414 136.59 66.8043 142.181 66.7567 142.418C66.7091 142.68 66.4474 142.871 66.1619 142.823C65.8764 142.775 65.7098 142.514 65.7574 142.228C65.7812 142.157 67.1849 135.519 76.3209 136.019C80.1514 136.233 84.1483 137.708 88.0264 139.111C93.1178 140.991 98.3995 142.918 103.443 142.062C103.729 142.014 103.991 142.204 104.038 142.466C104.086 142.752 103.895 143.013 103.634 143.061C102.706 143.251 101.802 143.323 100.874 143.323Z" fill="#C82C2F"/>
<path d="M66.852 159.192C58.9056 159.192 54.98 152.149 54.9562 152.054C54.8135 151.816 54.9086 151.507 55.1704 151.364C55.4083 151.221 55.7176 151.317 55.8603 151.578C55.9079 151.65 60.0238 159.025 68.3033 158.097C73.823 157.479 76.7493 155.195 80.1515 152.578C82.0549 151.102 84.0058 149.58 86.5991 148.176C95.8302 143.18 103.277 142.395 103.586 142.371C103.872 142.347 104.11 142.537 104.133 142.823C104.157 143.108 103.967 143.346 103.681 143.37C103.61 143.37 96.0919 144.179 87.0749 149.056C84.553 150.412 82.6259 151.911 80.7463 153.363C77.3679 155.98 74.2036 158.454 68.3985 159.096C67.8751 159.168 67.3517 159.192 66.852 159.192Z" fill="#C82C2F"/>
<defs>
<filter id="filter0_d_185_242" x="20.7641" y="0.761112" width="303.71" height="303.71" filterUnits="userSpaceOnUse" color-interpolation-filters="sRGB">
<feFlood flood-opacity="0" result="BackgroundImageFix"/>
<feColorMatrix in="SourceAlpha" type="matrix" values="0 0 0 0 0 0 0 0 0 0 0 0 0 0 0 0 0 0 127 0" result="hardAlpha"/>
<feOffset dy="9.72292"/>
<feGaussianBlur stdDeviation="11.8064"/>
<feColorMatrix type="matrix" values="0 0 0 0 0 0 0 0 0 0 0 0 0 0 0 0 0 0 0.15 0"/>
<feBlend mode="normal" in2="BackgroundImageFix" result="effect1_dropShadow_185_242"/>
<feBlend mode="normal" in="SourceGraphic" in2="effect1_dropShadow_185_242" result="shape"/>
</filter>
</defs>
</svg>
