<svg width="322" height="296" viewBox="0 0 322 296" fill="none" xmlns="http://www.w3.org/2000/svg">
<path d="M308.539 266.696C308.539 266.696 267.995 239.348 249.375 227.629C230.755 215.91 224.252 208.853 219.694 207.66C215.136 206.467 197.339 196.911 194.608 193.46C191.877 190.01 163.37 177.396 147.178 173.813C130.986 170.23 119.286 166.217 111.907 161.876C104.528 157.536 98.9901 162.203 92.804 159.273C86.6178 156.343 79.6743 152.978 73.4881 151.568C67.3019 150.157 56.2312 150.697 51.1289 147.658C46.0266 144.62 28.7744 143.536 24.756 141.363C20.7376 139.191 8.37 135.286 8.47885 120.093C8.58774 104.899 20.8513 87.9689 27.6859 78.9618C34.5205 69.9547 48.5115 57.038 60.2449 51.2873C71.9783 45.5366 89.983 35.4409 94.2144 31.6402C98.4458 27.8395 117.009 22.4153 119.721 21.658C122.433 20.9007 137.196 16.0115 146.96 13.2994C156.725 10.5873 166.063 8.74139 173.986 9.2857C181.909 9.83001 190.699 10.1519 198.84 7.97936C206.981 5.80686 232.156 11.7658 239.213 14.9276C246.27 18.0893 255.06 24.9144 257.119 35.0054C259.177 45.0964 251.557 55.6276 251.557 55.6276L249.957 61.7049L296.441 247.091L308.539 266.696Z" fill="#ECDA8F" stroke="#170C33" stroke-width="5" stroke-miterlimit="10"/>
<path opacity="0.1" d="M257.289 41.5938C257.289 41.5938 213.503 32.705 171.62 45.9483C129.736 59.1915 70.5916 100.105 63.5771 111.738C53.524 128.38 60.2639 133.852 72.8682 136.142C85.4724 138.433 136.249 120.556 136.249 120.556C136.249 120.556 176.623 86.9512 178.251 85.8768C179.879 84.8024 224.162 65.2594 224.162 65.2594L250.44 59.9725L257.289 41.5938Z" fill="white"/>
<path d="M252.049 54.7377C252.049 54.7377 256.716 59.1868 258.023 65.1505C259.329 71.1143 259.215 74.6972 269.855 86.9607C269.855 86.9607 271.63 90.8703 274.589 100.275C277.547 109.68 282.985 107.304 283.851 122.644C283.851 122.644 291.448 137.984 292.844 143.337C294.24 148.69 298.415 155.643 301.018 164.536C303.621 173.43 303.858 182.409 305.647 189.57C307.436 196.731 310.352 205.487 310.57 209.392C310.787 213.297 315.345 228.206 316.865 234.719C318.384 241.232 318.095 248.682 318.569 254.83C319.042 260.978 320.301 267.202 314.082 273.573C307.862 279.944 319.435 291.805 307.787 293.178C296.138 294.55 302.94 279.362 300.261 270.747C297.582 262.133 302.358 261.418 299.03 256.785C295.703 252.151 293.317 248.535 291.216 249.406C289.114 250.277 291.793 259.606 288.466 262.938C285.139 266.27 277.253 263.368 276.747 252.009C276.24 240.65 279.927 240.579 271.611 235.008C263.295 229.437 259.021 221.755 256.413 216.487C253.805 211.219 243.625 207.172 243.312 217.642C243 228.112 233.765 225.816 234.632 215.039C235.498 204.261 235.209 205.847 221.9 195.212C208.59 184.576 203.44 184.288 204.605 196.513C204.605 196.513 204.893 198.88 202.002 197.673C199.11 196.466 196.937 195.212 197.368 189.281C197.799 183.35 197.803 182.768 195.56 182.409C193.316 182.049 188.758 179.441 185.289 172.942C181.82 166.444 170.455 167.443 170.02 171.996C169.584 176.549 160.109 179.095 156.128 168.739C152.148 158.383 152.436 168.451 145.057 162.586C137.679 156.722 135.146 153.759 123.285 153.324C111.424 152.888 98.2518 144.425 93.6181 142.329C88.9843 140.232 77.9988 140.592 73.3604 138.542C68.7219 136.493 58.2144 130.439 66.8476 120.017C75.4808 109.594 88.8234 100.204 97.059 93.8095C105.295 87.4151 107.472 88.7072 118.978 81.6549C130.484 74.6026 134.067 72.1035 142.965 68.7382C151.864 65.373 163.37 62.5521 171.506 58.1029C179.642 53.6538 185.095 57.8852 200.714 52.7877C216.333 47.6901 210.805 55.0643 233.922 52.3522C233.926 52.3522 248.471 50.1182 252.049 54.7377Z" fill="#D37A48" stroke="#170C33" stroke-width="5" stroke-miterlimit="10"/>
<g opacity="0.2">
<path opacity="0.2" d="M277.447 163.268C276.608 163.268 275.928 162.588 275.928 161.748C275.928 160.909 276.608 160.229 277.447 160.229C278.286 160.229 278.966 160.909 278.966 161.748C278.966 162.588 278.286 163.268 277.447 163.268Z" fill="#170C33"/>
<path opacity="0.2" d="M269.088 154.313C268.249 154.313 267.569 153.633 267.569 152.793C267.569 151.954 268.249 151.274 269.088 151.274C269.927 151.274 270.607 151.954 270.607 152.793C270.607 153.633 269.927 154.313 269.088 154.313Z" fill="#170C33"/>
<path opacity="0.2" d="M252.267 148.543C251.428 148.543 250.747 147.863 250.747 147.024C250.747 146.185 251.428 145.504 252.267 145.504C253.106 145.504 253.786 146.185 253.786 147.024C253.786 147.863 253.106 148.543 252.267 148.543Z" fill="#170C33"/>
<path opacity="0.2" d="M226.656 150.062C225.817 150.062 225.137 149.382 225.137 148.543C225.137 147.704 225.817 147.024 226.656 147.024C227.495 147.024 228.175 147.704 228.175 148.543C228.175 149.382 227.495 150.062 226.656 150.062Z" fill="#170C33"/>
<path opacity="0.2" d="M219.708 158.634C218.869 158.634 218.188 157.954 218.188 157.115C218.188 156.276 218.869 155.596 219.708 155.596C220.547 155.596 221.227 156.276 221.227 157.115C221.227 157.954 220.547 158.634 219.708 158.634Z" fill="#170C33"/>
<path opacity="0.2" d="M245.972 179.583C245.133 179.583 244.453 178.903 244.453 178.064C244.453 177.224 245.133 176.544 245.972 176.544C246.811 176.544 247.491 177.224 247.491 178.064C247.491 178.903 246.811 179.583 245.972 179.583Z" fill="#170C33"/>
<path opacity="0.2" d="M250.042 187.937C249.203 187.937 248.523 187.257 248.523 186.418C248.523 185.578 249.203 184.898 250.042 184.898C250.881 184.898 251.562 185.578 251.562 186.418C251.562 187.257 250.881 187.937 250.042 187.937Z" fill="#170C33"/>
<path opacity="0.2" d="M237.997 184.628C237.158 184.628 236.477 183.948 236.477 183.109C236.477 182.27 237.158 181.59 237.997 181.59C238.836 181.59 239.516 182.27 239.516 183.109C239.516 183.948 238.836 184.628 237.997 184.628Z" fill="#170C33"/>
</g>
<path opacity="0.3" d="M291.282 211.432C291.282 211.432 309.949 219.251 304.09 232.731C298.23 246.211 283.794 224.051 273.589 218.532C263.385 213.013 270.442 203.987 275.435 205.019C280.429 206.051 287.59 209.861 291.282 211.432Z" fill="white"/>
<path d="M294.595 209.065C294.595 209.065 313.263 216.884 307.403 230.364C301.543 243.844 287.108 221.684 276.903 216.165C266.698 210.646 273.755 201.62 278.749 202.652C283.742 203.684 290.903 207.494 294.595 209.065Z" fill="#EFE5BC" stroke="#170C33" stroke-width="5" stroke-miterlimit="10"/>
<g opacity="0.2">
<path opacity="0.2" d="M300.403 222.309C299.563 222.309 298.883 221.629 298.883 220.789C298.883 219.95 299.563 219.27 300.403 219.27C301.242 219.27 301.922 219.95 301.922 220.789C301.922 221.629 301.242 222.309 300.403 222.309Z" fill="#170C33"/>
<path opacity="0.2" d="M290.851 214.764C290.012 214.764 289.332 214.084 289.332 213.245C289.332 212.406 290.012 211.725 290.851 211.725C291.69 211.725 292.371 212.406 292.371 213.245C292.371 214.084 291.69 214.764 290.851 214.764Z" fill="#170C33"/>
<path opacity="0.2" d="M278.479 211.404C277.64 211.404 276.96 210.723 276.96 209.884C276.96 209.045 277.64 208.365 278.479 208.365C279.318 208.365 279.999 209.045 279.999 209.884C279.999 210.723 279.318 211.404 278.479 211.404Z" fill="#170C33"/>
</g>
<path opacity="0.2" d="M246.238 85.5787C246.238 85.5787 250.724 74.8676 241.533 68.3549C232.341 61.8421 211.941 62.3391 211.941 62.3391C211.941 62.3391 213.461 64.9423 216.717 71.7438C219.973 78.5453 232.199 87.6754 246.238 85.5787Z" fill="white"/>
<path d="M250.497 83.2122C250.497 83.2122 254.984 72.5011 245.792 65.9884C236.6 59.4756 216.201 59.9726 216.201 59.9726C216.201 59.9726 217.72 62.5758 220.976 69.3773C224.233 76.1787 236.458 85.3089 250.497 83.2122Z" fill="#418454" stroke="#170C33" stroke-width="5" stroke-linecap="round" stroke-linejoin="round"/>
<path d="M250.497 83.2121C250.497 83.2121 241.504 71.4172 232.914 70.693L250.497 83.2121Z" fill="#595440"/>
<path d="M251.831 82.2181C248.045 77.9583 243.742 74.0582 238.545 71.6112C236.8 70.7756 234.91 70.2839 232.979 70.1629C232.836 70.1565 232.695 70.2071 232.589 70.3038C232.482 70.4004 232.419 70.5352 232.411 70.6788C232.405 70.8144 232.451 70.9471 232.539 71.0506C232.626 71.1541 232.75 71.2208 232.885 71.2373C238.209 72.1508 242.351 76.1929 245.891 80.0456C247.072 81.3796 248.178 82.778 249.204 84.2344C249.334 84.4148 249.498 84.5672 249.688 84.6828C249.877 84.7983 250.088 84.8746 250.308 84.907C250.527 84.9395 250.751 84.9274 250.966 84.8717C251.181 84.8159 251.383 84.7175 251.559 84.5823C251.735 84.4471 251.882 84.278 251.991 84.0848C252.101 83.8917 252.17 83.6785 252.196 83.458C252.221 83.2374 252.202 83.014 252.139 82.801C252.077 82.5881 251.972 82.3898 251.831 82.2181Z" fill="#170C33"/>
<path d="M251.831 82.2181C248.045 77.9583 243.742 74.0582 238.545 71.6112C236.8 70.7756 234.91 70.2839 232.979 70.1629C232.836 70.1565 232.695 70.2071 232.589 70.3038C232.482 70.4004 232.419 70.5352 232.411 70.6788C232.405 70.8144 232.451 70.9471 232.539 71.0506C232.626 71.1541 232.75 71.2208 232.885 71.2373C238.209 72.1508 242.351 76.1929 245.891 80.0456C247.072 81.3796 248.178 82.778 249.204 84.2344C249.334 84.4148 249.498 84.5672 249.688 84.6828C249.877 84.7983 250.088 84.8746 250.308 84.907C250.527 84.9395 250.751 84.9274 250.966 84.8717C251.181 84.8159 251.383 84.7175 251.559 84.5823C251.735 84.4471 251.882 84.278 251.991 84.0848C252.101 83.8917 252.17 83.6785 252.196 83.458C252.221 83.2374 252.202 83.014 252.139 82.801C252.077 82.5881 251.972 82.3898 251.831 82.2181Z" fill="#170C33"/>
<path d="M277.582 205.742C277.582 205.742 289.141 206.862 292.646 196.156C296.15 185.45 289.645 166.109 289.645 166.109C289.645 166.109 287.608 168.33 282.073 173.451C276.538 178.573 271.429 192.951 277.582 205.742Z" fill="#418454" stroke="#170C33" stroke-width="5" stroke-linecap="round" stroke-linejoin="round"/>
<path d="M278.927 206.723C281.877 201.847 284.331 196.584 285.132 190.896C285.415 188.982 285.326 187.031 284.871 185.15C284.834 185.011 284.744 184.892 284.621 184.819C284.497 184.746 284.349 184.725 284.21 184.76C284.079 184.795 283.965 184.877 283.892 184.992C283.819 185.106 283.792 185.244 283.816 185.377C284.518 190.734 281.88 195.885 279.246 200.407C278.321 201.929 277.312 203.399 276.224 204.81C276.09 204.987 275.993 205.189 275.939 205.404C275.884 205.619 275.874 205.843 275.908 206.063C275.942 206.282 276.019 206.493 276.136 206.681C276.253 206.87 276.406 207.033 276.588 207.162C276.769 207.29 276.974 207.381 277.191 207.428C277.408 207.475 277.632 207.479 277.85 207.438C278.068 207.397 278.276 207.313 278.461 207.19C278.646 207.067 278.804 206.908 278.927 206.723Z" fill="#170C33"/>
<path opacity="0.2" d="M260.988 178.081C267.652 168.932 274.175 159.622 268.746 152.077C263.412 144.547 248.294 147.415 238.118 161.127C227.942 174.839 229.598 190.146 238.359 193.061C247.172 196.057 254.168 187.117 260.988 178.081Z" fill="white"/>
<path d="M260.988 177.134C267.652 167.985 274.175 158.675 268.746 151.131C263.412 143.6 248.294 146.469 238.118 160.18C227.942 173.892 229.598 189.199 238.359 192.115C247.172 195.111 254.168 186.17 260.988 177.134Z" fill="#EFE5BC" stroke="#170C33" stroke-width="5" stroke-miterlimit="10"/>
<path opacity="0.2" d="M211.335 136.297C201.887 130.064 192.284 123.98 185 129.753C177.724 135.43 181.29 150.399 195.458 159.929C209.627 169.459 224.841 167.095 227.347 158.208C229.932 149.266 220.676 142.692 211.335 136.297Z" fill="white"/>
<path d="M210.389 136.341C200.941 130.108 191.339 124.024 184.054 129.797C176.779 135.474 180.345 150.443 194.513 159.973C208.682 169.503 223.895 167.139 226.402 158.252C228.986 149.31 219.731 142.736 210.389 136.341Z" fill="#EFE5BC" stroke="#170C33" stroke-width="5" stroke-miterlimit="10"/>
<path opacity="0.2" d="M249.639 126.182C260.947 125.689 272.293 124.985 274.808 116.037C277.37 107.172 265.703 97.1395 248.638 97.7307C231.573 98.3218 220.637 109.159 223.819 117.827C226.971 126.586 238.322 126.482 249.639 126.182Z" fill="white"/>
<path d="M250.379 125.592C261.687 125.099 273.033 124.395 275.547 115.447C278.11 106.582 266.443 96.5494 249.378 97.1406C232.313 97.7317 221.377 108.569 224.559 117.237C227.71 125.996 239.062 125.892 250.379 125.592Z" fill="#EFE5BC" stroke="#170C33" stroke-width="5" stroke-miterlimit="10"/>
<path opacity="0.2" d="M202.45 82.2132C192.653 76.5451 182.71 71.035 175.776 77.225C168.847 83.3194 173.284 98.0529 187.988 106.735C202.691 115.418 217.74 112.165 219.721 103.147C221.776 94.0682 212.151 88.0487 202.45 82.2132Z" fill="white"/>
<path d="M201.509 82.3126C191.712 76.6444 181.769 71.1344 174.835 77.3244C167.906 83.4188 172.343 98.1523 187.047 106.835C201.75 115.517 216.799 112.265 218.78 103.246C220.835 94.1675 211.21 88.148 201.509 82.3126Z" fill="#EFE5BC" stroke="#170C33" stroke-width="5" stroke-miterlimit="10"/>
<path d="M245.388 161.317C245.388 161.317 249.875 150.606 240.684 144.093C231.492 137.581 211.092 138.078 211.092 138.078C211.092 138.078 212.612 140.681 215.868 147.482C219.124 154.284 231.35 163.414 245.388 161.317Z" fill="#418454" stroke="#170C33" stroke-width="5" stroke-linecap="round" stroke-linejoin="round"/>
<path d="M246.723 160.323C242.937 156.063 238.634 152.163 233.437 149.716C231.692 148.881 229.802 148.389 227.871 148.268C227.728 148.261 227.587 148.312 227.481 148.409C227.375 148.505 227.311 148.64 227.303 148.784C227.298 148.919 227.343 149.052 227.431 149.156C227.519 149.259 227.642 149.326 227.777 149.342C233.101 150.256 237.243 154.298 240.783 158.151C241.964 159.485 243.07 160.883 244.096 162.339C244.226 162.52 244.39 162.672 244.58 162.788C244.769 162.903 244.98 162.98 245.2 163.012C245.419 163.044 245.643 163.032 245.858 162.977C246.073 162.921 246.275 162.822 246.451 162.687C246.627 162.552 246.774 162.383 246.883 162.19C246.993 161.997 247.062 161.783 247.088 161.563C247.113 161.342 247.094 161.119 247.031 160.906C246.969 160.693 246.864 160.495 246.723 160.323Z" fill="#170C33"/>
<path d="M201.723 130.89C201.723 130.89 213.306 130.056 214.966 118.914C216.625 107.771 206.969 89.7949 206.969 89.7949C206.969 89.7949 205.333 92.3261 200.735 98.3032C196.137 104.28 193.512 119.311 201.723 130.89Z" fill="#418454" stroke="#170C33" stroke-width="5" stroke-linecap="round" stroke-linejoin="round"/>
<path d="M203.212 131.632C205.303 126.33 206.84 120.73 206.676 114.988C206.633 113.053 206.219 111.145 205.454 109.367C205.395 109.236 205.287 109.134 205.152 109.083C205.018 109.032 204.869 109.035 204.738 109.094C204.614 109.15 204.516 109.25 204.463 109.375C204.411 109.5 204.407 109.641 204.453 109.768C206.043 114.932 204.307 120.452 202.468 125.351C201.811 127.007 201.063 128.625 200.227 130.199C200.125 130.396 200.063 130.611 200.045 130.832C200.028 131.054 200.055 131.276 200.125 131.487C200.196 131.698 200.307 131.892 200.454 132.058C200.601 132.225 200.78 132.36 200.98 132.456C201.18 132.552 201.397 132.607 201.619 132.618C201.841 132.628 202.062 132.594 202.271 132.517C202.479 132.44 202.67 132.322 202.831 132.17C202.993 132.018 203.123 131.835 203.212 131.632Z" fill="#170C33"/>
<g opacity="0.2">
<path opacity="0.2" d="M201.438 110.361C200.599 110.361 199.919 109.681 199.919 108.842C199.919 108.003 200.599 107.323 201.438 107.323C202.277 107.323 202.958 108.003 202.958 108.842C202.958 109.681 202.277 110.361 201.438 110.361Z" fill="#170C33"/>
<path opacity="0.2" d="M190.756 116.193C189.916 116.193 189.236 115.512 189.236 114.673C189.236 113.834 189.916 113.154 190.756 113.154C191.595 113.154 192.275 113.834 192.275 114.673C192.275 115.512 191.595 116.193 190.756 116.193Z" fill="#170C33"/>
<path opacity="0.2" d="M182.814 126.26C181.975 126.26 181.294 125.58 181.294 124.741C181.294 123.901 181.975 123.221 182.814 123.221C183.653 123.221 184.333 123.901 184.333 124.741C184.333 125.58 183.653 126.26 182.814 126.26Z" fill="#170C33"/>
</g>
<path d="M43.6928 106.783C36.3565 97.0801 24.287 95.0117 13.2257 99.1011C12.8115 99.2486 12.4728 99.5547 12.2842 99.9519C12.0956 100.349 12.0725 100.805 12.22 101.219C12.3675 101.633 12.6735 101.972 13.0707 102.161C13.4679 102.349 13.9238 102.372 14.338 102.225C17.8747 100.712 21.6805 99.93 25.5271 99.9247C30.6504 99.9957 35.5884 101.852 39.4898 105.174C40.4727 105.991 41.3702 106.906 42.1687 107.905C42.3205 108.098 42.5418 108.225 42.7856 108.259C43.0294 108.292 43.2766 108.229 43.4748 108.083C43.673 107.937 43.8066 107.72 43.8473 107.477C43.888 107.234 43.8326 106.986 43.6928 106.783Z" fill="#170C33"/>
<path d="M50.3903 147.705C53.5047 142.712 54.2572 136.469 53.2301 130.751C52.8828 128.896 52.3744 127.075 51.7108 125.308C51.6487 125.142 51.5265 125.004 51.3681 124.924C51.2097 124.843 51.0267 124.824 50.8554 124.872C50.6841 124.92 50.5369 125.03 50.4428 125.181C50.3488 125.332 50.3149 125.512 50.3477 125.687C50.8364 127.43 51.1736 129.211 51.3558 131.012L51.4647 132.332C51.4647 132.806 51.4647 133.885 51.4647 134.315C51.3498 137.997 50.3027 141.59 48.4213 144.757C48.225 145.086 48.0068 145.403 47.7681 145.703C47.6137 145.874 47.4964 146.075 47.4238 146.293C47.3511 146.512 47.3246 146.743 47.3459 146.972C47.3673 147.201 47.4361 147.423 47.5479 147.625C47.6597 147.826 47.812 148.002 47.9953 148.141C48.1787 148.28 48.3889 148.38 48.6128 148.433C48.8366 148.487 49.0691 148.494 49.2956 148.453C49.5221 148.412 49.7376 148.324 49.9285 148.196C50.1194 148.067 50.2815 147.9 50.4045 147.705H50.3903Z" fill="#170C33"/>
<path d="M239.573 88.783C232 87.4956 224.673 84.8498 218.894 79.7096C216.95 77.9499 215.109 76.0804 213.38 74.1104C215.902 85.129 228.876 92.2287 239.573 88.783Z" fill="#170C33"/>
<path d="M277.447 145.793C267.981 136.71 251.888 132.541 239.109 135.059C238.215 135.243 237.325 135.432 236.444 135.664C238.248 135.948 240.027 136 241.816 136.247C254.111 137.567 266.126 140.787 277.433 145.793H277.447Z" fill="#170C33"/>
<path d="M178.251 101.95C172.661 103.37 168.51 108.179 166.219 113.31C165.978 114.015 165.273 115.624 165.154 116.334C164.989 116.935 164.799 117.797 164.653 118.407C164.566 118.751 164.506 119.101 164.473 119.453C163.935 122.925 164.119 126.469 165.012 129.866C165.898 126.236 166.47 122.658 167.583 119.136C169.618 112.562 173.03 106.636 178.227 101.955L178.251 101.95Z" fill="#170C33"/>
<path opacity="0.2" d="M139.738 125.81C146.402 116.666 152.924 107.351 147.5 99.8063C142.166 92.2759 127.044 95.1489 116.872 108.856C106.701 122.563 108.352 137.875 117.113 140.795C125.931 143.786 132.922 134.846 139.738 125.81Z" fill="white"/>
<path d="M140.684 121.077C147.348 111.933 153.87 102.618 148.446 95.0733C143.112 87.5429 127.99 90.4159 117.818 104.123C107.647 117.83 109.299 133.142 118.06 136.062C126.878 139.053 133.868 130.112 140.684 121.077Z" fill="#EFE5BC" stroke="#170C33" stroke-width="5" stroke-miterlimit="10"/>
<path d="M150.852 104.644C150.852 104.644 139.422 102.591 135.061 112.978C130.701 123.365 135.617 143.17 135.617 143.17C135.617 143.17 137.828 141.121 143.76 136.465C149.692 131.809 155.948 117.892 150.852 104.644Z" fill="#418454" stroke="#170C33" stroke-width="5" stroke-linecap="round" stroke-linejoin="round"/>
<path d="M146.906 105.755C143.57 110.376 140.698 115.423 139.438 121.028C139.001 122.913 138.932 124.864 139.233 126.776C139.258 126.917 139.338 127.043 139.456 127.126C139.573 127.209 139.719 127.242 139.86 127.218C139.994 127.194 140.114 127.121 140.196 127.013C140.278 126.905 140.316 126.77 140.303 126.635C140.038 121.239 143.084 116.318 146.075 112.025C147.121 110.583 148.246 109.199 149.444 107.881C149.592 107.716 149.705 107.522 149.777 107.312C149.849 107.102 149.877 106.879 149.861 106.658C149.845 106.437 149.785 106.221 149.684 106.023C149.583 105.825 149.443 105.65 149.273 105.508C149.102 105.365 148.905 105.258 148.693 105.193C148.481 105.128 148.257 105.107 148.037 105.13C147.816 105.153 147.602 105.22 147.408 105.328C147.213 105.435 147.043 105.58 146.906 105.755Z" fill="#170C33"/>
<g opacity="0.2">
<path opacity="0.2" d="M142.785 103.626C141.946 103.626 141.266 102.946 141.266 102.107C141.266 101.268 141.946 100.587 142.785 100.587C143.624 100.587 144.305 101.268 144.305 102.107C144.305 102.946 143.624 103.626 142.785 103.626Z" fill="#170C33"/>
<path opacity="0.2" d="M132.108 109.462C131.269 109.462 130.588 108.782 130.588 107.943C130.588 107.104 131.269 106.423 132.108 106.423C132.947 106.423 133.627 107.104 133.627 107.943C133.627 108.782 132.947 109.462 132.108 109.462Z" fill="#170C33"/>
<path opacity="0.2" d="M124.161 119.524C123.322 119.524 122.642 118.844 122.642 118.005C122.642 117.166 123.322 116.486 124.161 116.486C125 116.486 125.68 117.166 125.68 118.005C125.68 118.844 125 119.524 124.161 119.524Z" fill="#170C33"/>
</g>
<path d="M119.603 95.2151C114.008 96.635 109.862 101.449 107.566 106.575C107.325 107.28 106.648 108.889 106.502 109.599C106.336 110.2 106.147 111.062 106.028 111.672C105.94 112.016 105.878 112.365 105.844 112.718C105.308 116.189 105.492 119.734 106.383 123.131C107.273 119.51 107.846 115.946 108.977 112.42C111.012 105.846 114.425 99.9198 119.626 95.2387L119.603 95.2151Z" fill="#170C33"/>
<path opacity="0.1" d="M311.942 282.76C311.942 282.76 310.522 287.238 307.058 287.238C303.593 287.238 301.16 283.087 301.16 283.087L302.064 291.843L311.616 292.562C311.616 292.562 312.955 288.549 312.955 288.44C312.955 288.331 311.942 282.76 311.942 282.76Z" fill="white"/>
<path opacity="0.1" d="M196.161 27.7164C196.161 27.7164 135.104 12.2297 78.6565 68.2318" stroke="white" stroke-width="5" stroke-linecap="round" stroke-linejoin="round"/>
<path d="M188.237 24.1334C179.244 22.988 170.086 23.5229 161.117 24.7298C134.199 28.5163 108.144 40.2544 88.061 58.6473C117.558 38.347 152.322 25.4587 188.237 24.1334Z" fill="#170C33"/>
<path opacity="0.1" d="M19.7754 124.316C17.6105 117.681 20.1506 110.901 25.4488 109.172C30.7471 107.444 36.7971 111.421 38.962 118.056C41.1268 124.692 38.5868 131.472 33.2885 133.201C27.9903 134.929 21.9403 130.952 19.7754 124.316Z" fill="white"/>
<path d="M20.3403 148.543C16.0748 146.562 12.3117 143.643 9.33187 140.004C6.35199 136.365 4.23227 132.101 3.13075 127.528C2.32767 124.392 1.69566 121.215 1.23751 118.01C0.301407 121.694 0.130627 125.531 0.735771 129.284C1.22115 132.27 2.23573 135.146 3.73181 137.775C7.16331 143.678 13.43 148.188 20.3403 148.543Z" fill="#170C33"/>
<path d="M176.102 0.36372C170.318 -0.218453 164.482 -0.0196677 158.689 0.38738C144.154 1.6075 129.836 4.69688 116.091 9.57909C91.2974 18.2579 68.5079 31.846 49.0843 49.5313C60.751 41.0527 72.9795 33.3753 85.6854 26.552C103.462 17.1202 122.355 9.9643 141.92 5.25303C153.132 2.67822 164.563 0.718703 176.093 0.36372H176.102Z" fill="#170C33"/>
</svg>
