<svg width="375" height="381" viewBox="0 0 375 381" fill="none" xmlns="http://www.w3.org/2000/svg">
<g filter="url(#filter0_d_180_318)">
<rect x="16" y="180.5" width="242.538" height="242.538" rx="12.4063" transform="rotate(-45 16 180.5)" fill="white"/>
</g>
<path d="M253.682 122.012C254.447 124.643 254.967 126.08 255.334 126.539C255.701 126.998 255.334 128.008 254.508 128.283C253.682 128.558 250.867 129.476 250.867 129.476L249.491 119.656L250.317 118.004L252.642 115.955C252.672 115.955 253.192 120.329 253.682 122.012Z" fill="#F37E4E"/>
<path d="M217.982 140.336C217.982 140.336 223.274 135.9 224.498 134.309C226.211 132.046 226.976 131.128 226.548 129.292C226.089 127.457 225.385 126.233 226.395 126.6C227.404 126.967 243.801 138.776 243.801 138.776C243.801 138.776 240.314 140.336 237.836 142.63C235.389 144.894 233.278 149.605 233.278 149.605L217.982 140.336Z" fill="#FFA171"/>
<path d="M228.322 137.491C231.35 141.865 234.073 147.892 234.073 147.892C234.073 147.892 235.51 144.833 236.581 143.762C238.998 141.345 242.76 138.898 242.76 138.898L234.684 126.203L227.312 128.65L226.303 131.77L224.895 133.82C224.895 133.82 226.455 134.768 228.322 137.491Z" fill="#F37E4E"/>
<path d="M251.388 108.276C251.388 108.276 252.275 110.448 252.519 114.7C252.734 118.524 252.795 120.635 252.642 123.021C252.458 126.142 252.764 128.619 252.672 131.526C252.581 134.432 251.479 137.001 250.47 137.95C248.91 139.387 248.114 139.51 245.361 139.602C242.639 139.693 239.518 138.745 235.419 136.94C231.35 135.135 227.771 134.462 226.945 130.547C226.119 126.631 226.578 122.899 226.578 122.899L240.681 109.714L251.388 108.276Z" fill="#FFA171"/>
<path d="M234.257 124.092C234.257 124.092 233.645 125.377 235.236 127.212C236.826 129.048 237.591 130.271 237.897 131.159C238.203 132.076 236.612 132.29 235.297 131.617C234.012 130.944 233.92 130.547 232.849 130.853C231.779 131.159 230.341 131.312 229.576 130.639C228.811 129.966 228.75 129.813 227.833 130.118C226.915 130.424 225.538 129.904 224.865 128.283C224.223 126.692 234.257 124.092 234.257 124.092Z" fill="#5E2D1E"/>
<path fill-rule="evenodd" clip-rule="evenodd" d="M239.916 96.6824C246.065 97.6001 250.684 101.455 252.978 107.756C255.303 114.058 255.609 122.685 255.548 122.624C254.171 124.918 251.082 126.631 248.481 128.008C245.915 129.396 243.617 128.044 241.058 126.538L240.956 126.478C238.356 124.948 236.49 124.796 234.348 125.407C232.936 125.811 230.777 127.293 229.121 128.431C228.266 129.017 227.545 129.512 227.129 129.721C225.905 130.333 224.345 130.333 223.121 128.65C222.944 128.406 222.756 128.173 222.56 127.929C221.405 126.495 219.944 124.68 218.349 117.882C216.636 110.601 218.013 106.349 222.877 101.24C227.037 96.8965 233.767 95.7646 239.916 96.6824ZM249.705 124.49C251.173 124.337 252.366 123.48 252.825 122.96C253.529 122.195 253.376 121.033 253.131 119.534C252.917 118.035 252.152 115.19 249.858 114.578C248.42 114.18 246.921 115.465 246.432 117.24C245.973 118.922 245.942 120.666 246.799 122.654C247.258 123.725 248.114 124.643 249.705 124.49Z" fill="#C82C2F"/>
<path d="M230.371 122.226C233.514 122.226 236.061 119.61 236.061 116.383C236.061 113.156 233.514 110.54 230.371 110.54C227.229 110.54 224.682 113.156 224.682 116.383C224.682 119.61 227.229 122.226 230.371 122.226Z" fill="#FFAA00"/>
<path d="M230.372 119.931C232.281 119.931 233.829 118.343 233.829 116.383C233.829 114.423 232.281 112.834 230.372 112.834C228.463 112.834 226.915 114.423 226.915 116.383C226.915 118.343 228.463 119.931 230.372 119.931Z" fill="#FFC648"/>
<path d="M205.287 97.906C205.287 95.8564 208.377 95.4587 217.585 96.8353C226.823 98.2119 230.953 98.3649 232.972 100.231C234.96 102.066 234.501 104.085 234.043 107.144C233.584 110.234 231.748 115.129 231.442 116.23C231.136 117.301 229.607 117.301 228.842 116.842C228.077 116.383 228.077 114.242 228.23 113.446C228.383 112.681 225.783 109.898 225.783 109.898C225.783 109.898 222.846 109.286 221.164 108.368C219.481 107.45 219.175 106.533 219.175 106.533C219.175 106.533 215.321 106.074 213.332 105.003C211.344 103.932 211.191 102.219 211.191 102.219C211.191 102.219 205.287 100.843 205.287 97.906Z" fill="#FFAA00"/>
<path d="M250.286 122.654C251.063 122.654 251.693 121.531 251.693 120.146C251.693 118.76 251.063 117.637 250.286 117.637C249.509 117.637 248.879 118.76 248.879 120.146C248.879 121.531 249.509 122.654 250.286 122.654Z" fill="#5E2D1E"/>
<path d="M206.816 98.4261C207.397 99.8026 208.988 100.598 212.109 100.812C215.198 101.026 227.343 101.363 229.148 101.302C230.983 101.24 232.605 99.6803 226.609 98.9155C220.613 98.1507 213.087 97.0189 210.548 96.9577C208.009 96.8659 206.235 97.08 206.816 98.4261Z" fill="#FFC648"/>
<path d="M213.149 102.862C213.424 103.932 214.495 104.269 216.545 104.82C218.594 105.37 219.848 105.187 222.173 105.095C224.498 105.034 227.955 104.33 228.995 104.177C230.066 104.024 232.024 102.77 227.435 102.495C222.846 102.219 216.086 102.066 214.403 102.066C213.057 102.066 213.027 102.28 213.149 102.862Z" fill="#FFC648"/>
<path d="M221.408 106.93C221.806 107.695 223.183 108.123 224.1 108.337C225.018 108.552 226.364 107.848 227.894 107.206C229.454 106.563 230.708 105.431 229.943 105.37C229.179 105.309 226.487 105.737 224.651 105.921C222.816 106.165 220.98 106.165 221.408 106.93Z" fill="#FFC648"/>
<path d="M227.037 109.592C227.679 110.601 228.169 111.764 228.689 111.917C229.209 112.07 229.974 111.55 230.188 109.653C230.402 107.787 230.799 106.349 229.576 107.328C228.383 108.307 227.312 108.674 226.945 108.919C226.578 109.133 226.639 108.98 227.037 109.592Z" fill="#FFC648"/>
<path d="M244.321 293.199C244.321 293.199 243.189 305.344 242.73 307.271C242.24 309.198 241.139 310.636 241.292 312.716C241.445 314.796 243.066 315.439 247.839 315.439C252.641 315.439 266.713 315.286 266.713 315.286C266.713 315.286 256.159 309.382 254.722 308.403C253.284 307.455 252.794 306.476 253.284 303.753C253.773 301.03 255.211 296.075 255.211 296.075L244.321 293.199Z" fill="#FFA171"/>
<path d="M246.921 303.906C250.256 304.059 253.345 302.988 253.345 302.988L255.762 294.362L244.046 294.698L243.342 303.08C243.342 303.111 244.504 303.784 246.921 303.906Z" fill="#F37E4E"/>
<path d="M256.037 307.332C258.301 308.311 262.125 310.269 264.756 311.737C267.417 313.206 268.488 313.695 268.488 315.072C268.488 316.448 263.991 316.234 257.965 316.234C252.764 316.234 241.292 316.204 240.925 316.204C240.528 316.204 239.365 313.909 239.855 310.789C240.344 307.638 242.73 307.302 242.73 307.302C242.73 307.302 243.097 310.728 246.156 310.942C250.439 311.217 252.611 310.391 253.59 309.81C254.569 309.229 254.569 308.556 254.569 308.556C254.569 308.556 253.284 307.271 254.385 306.598C255.426 305.864 256.037 307.332 256.037 307.332Z" fill="#FFC648"/>
<path d="M149.306 222.656C149.306 222.656 145.512 233.241 157.626 242.602C169.74 251.932 190.175 252.697 212.109 252.697C234.043 252.697 243.404 252.941 243.404 252.941C243.404 252.941 241.905 276.16 240.13 285.98C238.356 295.83 236.337 298.583 237.622 299.593C238.876 300.602 241.905 300.204 249.705 300.204C257.69 300.204 260.963 299.593 261.972 298.338C262.982 297.084 269.651 284.175 272.159 265.269C274.668 246.334 276.197 237.003 271.914 230.212C267.632 223.39 259.311 218.098 247.197 216.079C235.083 214.06 223.978 211.552 223.978 211.552L149.306 222.656Z" fill="#FFC648"/>
<path d="M160.746 231.436C173.074 234.189 193.876 234.954 206.908 227.551C219.94 220.148 227.159 217.303 229.882 216.569C232.605 215.834 240.436 215.1 240.436 215.1L229.668 212.989L181.334 220.912L148.724 226.725C148.724 226.755 154.72 230.09 160.746 231.436Z" fill="#FFAA00"/>
<path d="M219.267 139.724C219.267 139.724 218.93 131.648 206.725 129.078C194.549 126.509 191.796 127.029 186.993 131.831C182.19 136.634 179.621 143.15 182.007 147.953C184.393 152.756 196.262 149.666 202.931 147.096C209.661 144.527 215.994 143.181 219.267 139.724Z" fill="#FFC648"/>
<path d="M218.043 138.103C218.043 138.103 216.422 133.82 211.466 131.525C207.703 129.782 201.402 128.436 196.721 128.436C192.836 128.436 190.878 129.476 190.419 131.128C189.869 133.086 196.629 131.311 203.696 132.871C208.529 133.942 213.24 135.196 215.351 137.552C216.605 138.929 217.829 140.55 218.288 140.244C218.869 139.938 218.41 138.714 218.043 138.103Z" fill="#FFAA00"/>
<path d="M223.274 143.364C228.414 146.301 233.247 149.574 233.247 149.574C233.247 149.574 229.148 158.813 228.658 170.101C228.169 181.389 226.701 189.71 227.924 198.795C229.148 207.881 229.637 213.02 229.637 213.02C229.637 213.02 212.476 222.35 192.836 224.798C173.227 227.245 148.693 226.755 148.693 226.755C148.693 226.755 139.118 210.573 159.247 180.41C179.376 150.247 197.027 144.343 202.656 141.651C208.285 138.959 217.951 140.336 217.951 140.336L223.274 143.364Z" fill="#FFC648"/>
<path d="M155.791 352.056C170.101 352.056 181.701 340.456 181.701 326.146C181.701 311.836 170.101 300.235 155.791 300.235C141.481 300.235 129.88 311.836 129.88 326.146C129.88 340.456 141.481 352.056 155.791 352.056Z" fill="#5E2D1E"/>
<path d="M155.791 342.573C164.863 342.573 172.218 335.218 172.218 326.146C172.218 317.073 164.863 309.718 155.791 309.718C146.718 309.718 139.363 317.073 139.363 326.146C139.363 335.218 146.718 342.573 155.791 342.573Z" fill="#DBB38A"/>
<path d="M155.79 340.829C163.9 340.829 170.474 334.255 170.474 326.146C170.474 318.036 163.9 311.462 155.79 311.462C147.681 311.462 141.106 318.036 141.106 326.146C141.106 334.255 147.681 340.829 155.79 340.829Z" fill="#F9E5D0"/>
<path d="M155.79 332.019C159.034 332.019 161.664 329.389 161.664 326.146C161.664 322.902 159.034 320.272 155.79 320.272C152.547 320.272 149.917 322.902 149.917 326.146C149.917 329.389 152.547 332.019 155.79 332.019Z" fill="#5E2D1E"/>
<path d="M315.262 352.056C329.572 352.056 341.172 340.456 341.172 326.146C341.172 311.836 329.572 300.235 315.262 300.235C300.952 300.235 289.351 311.836 289.351 326.146C289.351 340.456 300.952 352.056 315.262 352.056Z" fill="#5E2D1E"/>
<path d="M315.262 342.573C324.335 342.573 331.69 335.218 331.69 326.146C331.69 317.073 324.335 309.718 315.262 309.718C306.19 309.718 298.835 317.073 298.835 326.146C298.835 335.218 306.19 342.573 315.262 342.573Z" fill="#DBB38A"/>
<path d="M315.262 340.829C323.372 340.829 329.946 334.255 329.946 326.146C329.946 318.036 323.372 311.462 315.262 311.462C307.152 311.462 300.578 318.036 300.578 326.146C300.578 334.255 307.152 340.829 315.262 340.829Z" fill="#F9E5D0"/>
<path d="M315.262 332.019C318.506 332.019 321.136 329.389 321.136 326.146C321.136 322.902 318.506 320.272 315.262 320.272C312.018 320.272 309.389 322.902 309.389 326.146C309.389 329.389 312.018 332.019 315.262 332.019Z" fill="#5E2D1E"/>
<path d="M119.938 302.315C123.148 302.315 125.75 299.152 125.75 295.249C125.75 291.346 123.148 288.182 119.938 288.182C116.728 288.182 114.126 291.346 114.126 295.249C114.126 299.152 116.728 302.315 119.938 302.315Z" fill="#C82C2F"/>
<path d="M137.466 285.827C137.466 285.827 130.094 285.521 126.545 285.827C123.027 286.133 119.815 287.418 119.815 287.418V302.56C119.815 302.56 120.458 303.478 123.333 303.478C126.209 303.478 137.466 285.827 137.466 285.827Z" fill="#F9E5D0"/>
<path d="M181.181 154.958C181.181 154.958 184.821 155.998 191.215 152.878C196.354 150.37 201.738 148.534 206.633 146.393C211.527 144.251 217.982 140.336 217.982 140.336C217.982 140.336 195.865 147.096 194.916 147.341C193.968 147.586 186.779 150.339 186.779 150.339L181.181 154.958Z" fill="#FFAA00"/>
<path d="M149.367 274.355C149.367 273.376 148.785 272.55 147.99 272.152V241.347C147.99 240.185 147.042 239.237 145.879 239.237H141.596C140.434 239.237 139.486 240.185 139.486 241.347V271.938H68.6674C67.3214 271.938 66.2202 273.04 66.2202 274.386C66.2202 275.732 67.3214 276.833 68.6674 276.833H118.776L144.961 290.262C145.818 290.691 146.858 290.354 147.286 289.528L148.449 287.264C148.877 286.408 148.541 285.368 147.715 284.94L132.021 276.863H146.95C148.265 276.802 149.367 275.701 149.367 274.355Z" fill="#9E9E9F"/>
<path d="M214.097 151.624C214.097 151.624 220.919 151.807 221.867 163.677C222.326 169.306 222.754 173.466 223.06 176.311C223.397 179.248 225.018 181.878 227.465 183.5V183.5L227.679 187.783L216.789 188.945L211.191 184.295L214.097 151.624Z" fill="#FFAA00"/>
<path d="M187.299 203.017C188.614 210.848 194.947 214.244 207.03 214.152C219.94 214.06 229.454 211.491 229.454 211.491L227.771 201.059C227.771 201.059 204.277 201.304 200.147 195.491C196.018 189.679 192.163 156.733 192.163 156.733C192.163 156.733 182.466 174.2 187.299 203.017Z" fill="#FFAA00"/>
<path d="M209.172 272.611C209.172 272.611 205.501 265.698 180.172 266.616C154.842 267.533 142.422 273.193 133.092 285.49C125.077 296.075 120.335 306.2 117.552 314.949C114.798 323.698 113.422 324.157 116.175 326.452C118.928 328.746 187.85 329.266 187.85 329.266L194.855 331.499L255.609 331.04L288.28 326.452L346.281 309.871C346.281 309.871 344.231 296.197 328.385 289.987C319.024 286.316 311.774 287.326 311.774 287.326L280.938 196.654C280.938 196.654 278.491 193.778 274.667 191.392C270.843 189.006 263.93 190.199 259.616 193.075C255.334 195.95 264.389 203.567 269.161 212.408C273.933 221.249 280.418 232.537 280.418 261.14C280.418 289.742 280.418 292.893 280.418 298.185C280.418 303.478 278.093 310.055 271.608 315.102C269.375 316.846 223.121 316.51 219.236 316.51C214.342 316.51 202.105 308.77 199.964 297.482C197.823 286.194 209.172 272.611 209.172 272.611Z" fill="#E84C4F"/>
<path d="M176.348 277.537C189.808 281.146 193.877 289.589 194.519 301.52C195.161 312.839 194.856 313.481 195.376 316.938C196.018 321.343 195.681 320.18 217.065 320.639C239.518 321.129 252.764 320.731 262.676 318.681C269.834 317.213 273.719 315.072 276.992 310.3C281.183 304.12 280.174 293.26 280.541 277.812C281 258.05 277.298 230.365 272.649 218.526C269.712 211.001 274.973 197.204 280.969 196.715C286.996 196.226 291.401 276.068 291.401 276.068L301.282 283.685C301.282 283.685 313.12 286.928 315.231 287.142C324.317 288.152 326.458 289.589 326.428 289.62C326.428 289.62 318.719 289.62 308.899 310.697C307.828 312.992 305.779 321.373 305.779 321.373C305.779 321.373 293.175 325.167 291.982 325.442C284.334 327.155 281.673 330.123 281.673 330.123L242.394 332.019L194.947 331.56L187.881 329.297L182.956 301.826L161.267 291.455L143.34 298.675L127.953 312.808L120.305 327.859C120.305 327.859 118.286 328.195 116.206 326.482C114.126 324.769 114.126 325.626 117.583 314.98C121.039 304.334 127.861 295.738 137.222 286.867C146.583 277.995 166.528 274.906 176.348 277.537Z" fill="#C82C2F"/>
<path d="M163.714 282.676C179.346 282.248 187.697 290.446 189.104 302.438C190.512 314.429 187.881 329.297 187.881 329.297L120.305 327.859C120.305 327.859 123.823 283.747 163.714 282.676Z" fill="#E84C4F"/>
<path d="M152.762 237.891C152.762 237.891 146.063 236.483 144.992 241.776C143.921 247.068 144.992 265.055 144.992 268.604C144.992 272.122 153.863 269.705 161.97 269.002C170.077 268.298 183.017 266.952 192.53 268.726C202.044 270.501 209.141 272.673 209.141 272.673C209.141 272.673 212.721 272.489 215.902 272.489C219.083 272.489 219.787 266.126 220.491 260.497C221.194 254.838 219.573 252.727 212.109 252.727C204.645 252.727 164.754 255.175 152.762 237.891Z" fill="#C82C2F"/>
<path d="M266.683 197.969C265.613 201.549 265.735 202.466 263.624 201.854C261.483 201.273 260.565 201.977 259.617 203.751C258.668 205.525 252.305 199.621 252.305 199.621C252.305 199.621 254.324 196.899 258.577 195.369C262.829 193.84 264.481 194.543 265.888 195.002C267.264 195.461 267.02 196.776 266.683 197.969Z" fill="#E84C4F"/>
<path d="M255.854 183.897C258.557 183.897 260.748 180.158 260.748 175.546C260.748 170.934 258.557 167.195 255.854 167.195C253.15 167.195 250.959 170.934 250.959 175.546C250.959 180.158 253.15 183.897 255.854 183.897Z" fill="#E84C4F"/>
<path d="M268.396 176.831C270.812 176.831 272.771 173.489 272.771 169.367C272.771 165.244 270.812 161.902 268.396 161.902C265.98 161.902 264.022 165.244 264.022 169.367C264.022 173.489 265.98 176.831 268.396 176.831Z" fill="#E84C4F"/>
<path d="M258.393 174.842C258.393 174.842 260.932 176.311 261.483 181.756C262.033 187.201 267.111 191.943 267.111 191.943L262.706 194.543C262.706 194.543 260.381 188.302 259.861 184.662C259.311 181.022 258.056 175.577 258.056 175.577L258.393 174.842Z" fill="#E84C4F"/>
<path d="M264.756 170.651C264.756 170.651 263.991 174.842 264.94 179.737C266.745 189.006 270.66 191.882 270.66 191.882L276.197 192.983C276.197 192.983 270.018 186.987 268.397 183.347C266.775 179.706 267.112 174.078 267.112 174.078L264.756 170.651Z" fill="#E84C4F"/>
<path d="M310.856 223.146H310.367C315.353 223.146 319.391 218.802 319.391 212.99V211.582C319.391 205.586 315.353 201.09 310.367 201.09H310.856V223.146Z" fill="#FFC648"/>
<path d="M312.998 224.063H309.725C304.31 224.063 299.936 219.689 299.936 214.274V209.93C299.936 204.516 304.31 200.141 309.725 200.141H312.998V224.063Z" fill="#C82C2F"/>
<path d="M236.214 189.373C236.214 189.373 239.824 189.465 246.064 189.465C252.305 189.465 256.924 189.006 260.167 187.935C263.41 186.865 263.41 186.222 266.683 188.302C269.925 190.383 270.476 190.842 270.66 191.912C270.843 192.983 269.742 197.786 269.222 199.591C268.671 201.395 267.692 201.304 267.142 201.028C266.591 200.753 266.958 198.03 267.05 196.96C267.142 195.889 266.958 195.247 266.958 195.247C266.958 195.247 263.868 194.421 262.706 194.512C261.543 194.604 258.821 194.604 256.741 196.134C255.15 197.327 254.293 198.306 251.938 198.765C250.164 199.101 247.778 199.223 245.606 198.489C243.648 197.847 234.562 198.398 234.562 198.398L236.214 189.373Z" fill="#FFA171"/>
<path d="M191.337 164.747C190.787 174.139 188.798 189.893 191.643 197.878C193.142 202.099 195.375 203.69 199.108 205.77C204.522 208.799 214.648 206.932 222.754 206.718C234.96 206.412 234.134 200.967 234.134 200.967C234.134 200.967 232.299 198.856 233.553 193.717C234.777 188.578 235.786 188.7 235.786 188.7C235.786 188.7 236.245 183.928 229.607 184.907C222.999 185.886 218.808 185.396 218.808 185.396C218.808 185.396 221.5 169.948 218.563 158.66C215.627 147.372 208.254 144.68 203.207 145.842C196.905 147.249 192.072 152.236 191.337 164.747Z" fill="#FFC648"/>
<path d="M240.069 192.86C240.803 195.461 243.342 196.47 244.871 196.99C246.401 197.51 249.001 198.306 251.296 197.418C253.59 196.531 258.515 195.338 258.515 195.338C258.515 195.338 254.691 197.541 253.804 198.183C252.917 198.826 250.653 199.499 249.001 199.285C247.38 199.07 245.3 198.397 244.321 198.183C243.342 197.969 235.817 198.306 235.817 198.306L236.581 190.78L238.325 189.373L239.946 189.495C239.977 189.495 239.518 190.903 240.069 192.86Z" fill="#F37E4E"/>
<path d="M235.725 188.639L239.182 189.19C239.182 189.19 237.622 190.107 237.622 193.564C237.622 198.153 238.6 198.856 238.6 198.856L233.981 200.172C233.981 200.172 231.565 200.508 231.565 195.614C231.565 190.719 232.482 188.945 235.725 188.639Z" fill="#FFC648"/>
<path d="M234.379 187.446C233.706 188.455 231.779 188.425 231.289 193.839C230.8 199.254 231.014 201.242 230.157 202.864C229.301 204.485 228.811 204.699 228.322 205.189C227.833 205.678 226.548 206.443 226.548 206.443C226.548 206.443 229.729 206.168 231.473 204.883C233.247 203.629 233.431 203.261 233.798 202.497C234.165 201.732 234.012 200.447 234.012 200.447C234.012 200.447 232.941 198.673 233.584 194.329C234.226 189.954 235.694 188.639 235.694 188.639C235.694 188.639 235.756 188.211 235.694 187.446C235.633 186.681 234.838 185.916 234.41 185.702C234.043 185.488 234.96 186.589 234.379 187.446Z" fill="#FFAA00"/>
<path d="M255.487 207.177C258.004 207.177 260.045 205.136 260.045 202.619C260.045 200.102 258.004 198.061 255.487 198.061C252.97 198.061 250.929 200.102 250.929 202.619C250.929 205.136 252.97 207.177 255.487 207.177Z" fill="#C82C2F"/>
<path d="M283.324 193.075C277.329 196.746 274.759 201.946 279.042 227.612C283.324 253.278 289.228 282.553 286.292 299.011C283.324 315.469 278.736 317.764 270.17 323.025C261.605 328.287 227.771 328.838 216.911 328.838C206.051 328.838 187.88 329.296 187.88 329.296C187.88 329.296 188.553 332.264 190.511 333.579C192.5 334.895 272.128 333.579 278.032 333.579C283.967 333.579 294.49 325.35 304.677 309.902C314.864 294.423 320.156 277.995 319.147 255.939C318.137 233.883 308.623 215.804 302.352 206.902C296.142 198 289.228 189.434 283.324 193.075Z" fill="#E84C4F"/>
<path d="M237.163 298.063C237.163 298.063 244.811 270.776 248.084 263.128C251.357 255.48 253.529 251.137 250.439 250.219C247.35 249.301 230.983 252.574 230.983 252.574L243.403 252.911C243.403 252.941 236.796 293.689 237.163 298.063Z" fill="#FFAA00"/>
<path d="M121.437 328.318L187.85 329.358C189.043 329.388 190.053 328.715 190.236 327.798L190.481 326.482C190.664 325.534 189.716 324.861 188.492 324.708C183.659 324.127 173.503 323.729 154.751 323.607C135.631 323.484 125.23 323.362 120.978 323.851C120.03 323.974 119.571 324.28 119.448 325.014L119.296 326.39C119.143 327.4 120.121 328.287 121.437 328.318Z" fill="#FFC648"/>
<path d="M291.951 325.442L346.312 309.902V309.902C347.199 309.626 347.749 308.709 347.474 307.791C347.26 307.087 346.954 306.69 346.189 305.68C345.394 304.609 344.354 305.068 344.354 305.068L297.121 319.936C297.121 319.966 294.307 323.912 291.951 325.442Z" fill="#FFC648"/>
<path d="M155.026 222.84C166.008 223.268 177.725 223.146 194.06 220.454C215.199 216.997 229.424 210.756 229.424 210.756L229.638 212.989C229.638 212.989 217.524 220.025 201.249 223.421C184.975 226.817 164.02 227.092 160.074 227.092C156.128 227.092 148.694 226.725 148.694 226.725L146.705 221.341C146.736 221.371 149.642 222.626 155.026 222.84Z" fill="white"/>
<path fill-rule="evenodd" clip-rule="evenodd" d="M236.276 151.196H236.857C238.57 151.196 243.587 150.981 245.025 148.534C245.667 147.433 245.514 146.087 244.566 144.588C243.801 143.364 242.761 142.722 241.537 142.691C237.622 142.599 232.941 148.932 232.758 149.207L232.36 149.727L232.88 150.125C232.885 150.127 232.897 150.135 232.916 150.147C233.145 150.293 234.385 151.083 236.276 151.196ZM236.368 149.88C235.45 149.819 234.716 149.574 234.257 149.36C235.756 147.433 238.998 143.976 241.415 144.007H241.507C242.272 144.037 242.945 144.435 243.465 145.292C244.168 146.332 244.291 147.219 243.924 147.861C242.884 149.635 238.295 149.972 236.368 149.88Z" fill="#FFAA00"/>
<path fill-rule="evenodd" clip-rule="evenodd" d="M234.471 159.883C234.838 160.098 235.267 160.189 235.695 160.189C236.368 160.189 237.133 159.914 237.989 159.363C239.06 158.629 239.61 157.712 239.61 156.61C239.641 153.215 234.318 149.452 233.706 149.024L233.156 148.657L232.789 149.207C232.786 149.212 232.78 149.223 232.77 149.239C232.643 149.446 231.958 150.566 231.902 152.236C231.902 152.237 231.901 152.239 231.901 152.242C231.899 152.467 231.847 158.436 234.471 159.883ZM233.186 152.266C233.216 151.563 233.4 150.951 233.553 150.553C235.266 151.869 238.294 154.561 238.264 156.61C238.264 157.283 237.927 157.834 237.224 158.293C236.337 158.874 235.633 159.027 235.082 158.721C233.614 157.926 233.124 154.132 233.186 152.266Z" fill="#FFAA00"/>
<path d="M244.413 153.153C238.815 153.153 234.134 150.675 233.92 150.584C233.614 150.4 233.492 150.033 233.645 149.697C233.829 149.391 234.196 149.268 234.532 149.421C234.563 149.452 239.151 151.838 244.413 151.838C249.399 151.838 250.807 149.88 250.837 149.849C251.051 149.544 251.449 149.482 251.724 149.666C252.03 149.849 252.122 150.247 251.908 150.553C251.847 150.675 250.225 153.153 244.413 153.153Z" fill="#FFAA00"/>
<path d="M242.761 161.046C242.7 161.046 242.608 161.046 242.547 161.015C242.21 160.893 242.027 160.556 242.149 160.22C242.149 160.159 242.21 160.097 242.271 159.975C242.577 159.333 243.465 157.436 242.088 155.998C240.314 154.132 235.694 151.899 235.633 151.868C235.297 151.716 235.174 151.318 235.327 151.012C235.48 150.675 235.878 150.553 236.184 150.706C236.398 150.798 241.078 153.062 243.036 155.111C244.352 156.488 244.474 158.323 243.434 160.526C243.403 160.587 243.403 160.618 243.373 160.648C243.281 160.862 243.006 161.046 242.761 161.046Z" fill="#FFAA00"/>
<path d="M127.952 312.808C127.952 312.808 131.593 297.36 147.255 289.467C162.949 281.575 172.829 286.53 176.347 288.488C180.508 290.813 182.68 297.237 182.955 301.795C183.261 306.384 127.952 312.808 127.952 312.808Z" fill="#F25A62"/>
<path d="M284.182 197.021C280.572 199.805 279.746 205.892 280.388 214.152C281.031 222.412 285.925 247.802 287.485 258.845C289.076 269.889 289.688 283.502 289.688 289.192C289.688 294.882 289.045 298.033 289.045 298.033C289.045 298.033 292.533 291.7 291.585 279.066C290.636 266.432 290.942 257.255 288.74 244.315C286.537 231.375 284.64 219.047 284.304 212.408C283.998 205.77 283.998 201.028 286.843 199.132C289.688 197.235 288.158 193.931 284.182 197.021Z" fill="#F25A62"/>
<path d="M98.3406 292.22C102.532 289.589 105.499 289.375 108.16 292.22C110.822 295.065 110.393 298.155 107.946 300.388C105.499 302.621 103.847 302.438 102.44 304.273C101.002 306.109 95.8933 306.109 94.4861 303.875C93.0178 301.642 92.8342 295.708 98.3406 292.22Z" fill="#C1E5F2"/>
<path d="M69.9518 290.813C76.0394 288.029 79.9551 287.142 83.2283 288.763C86.5016 290.385 88.9489 292.251 89.5607 295.493C90.1725 298.767 90.5702 301.428 88.337 304.273C86.1039 307.118 84.2378 308.984 81.607 309.596C78.9456 310.208 76.2842 308.372 75.4888 307.546C74.6629 306.72 73.2557 307.149 72.6438 308.372C72.032 309.596 69.1565 310.605 67.1375 309.596C65.0879 308.586 64.9043 307.546 64.6902 306.537C64.476 305.527 63.4665 305.925 62.8547 304.487C62.1817 303.049 60.9581 294.882 69.9518 290.813Z" fill="#C1E5F2"/>
<path d="M28.0732 288.366C27.6755 294.974 28.8991 297.757 31.7441 299.593C34.589 301.428 34.589 302.254 35.0173 304.304C35.415 306.353 38.2906 309.015 43.5828 307.975C48.9057 306.965 53.1884 301.856 53.5861 299.593C53.9838 297.329 54.412 296.748 56.2475 296.32C58.083 295.922 63.4058 293.475 63.8035 287.326C64.2012 281.208 61.7539 279.556 59.9184 278.76C58.083 277.934 57.6853 278.363 58.083 276.527C58.4806 274.692 56.0334 270.409 51.7506 269.797C47.4679 269.185 42.971 269.797 40.0954 273.896C38.0458 276.833 38.6577 278.607 37.434 279.617C36.241 280.596 28.4708 281.819 28.0732 288.366Z" fill="#C1E5F2"/>
<path d="M312.998 224.461V224.461C312.478 224.461 312.05 224.033 312.05 223.513V200.814C312.05 200.294 312.478 199.866 312.998 199.866V199.866C313.518 199.866 313.946 200.294 313.946 200.814V223.513C313.946 224.033 313.518 224.461 312.998 224.461Z" fill="white"/>
<path d="M239.885 313.879L268.305 314.001" stroke="#FFDDA1" stroke-width="0.147031"/>
<path d="M250.317 300.357L249.032 300.113C253.529 277.72 260.045 241.286 258.332 238.9C256.466 236.85 248.145 236.667 231.534 236.33C226.364 236.208 220.491 236.086 213.669 235.902C195.131 235.351 187.942 231.711 185.158 228.774C183.537 227.031 183.537 225.654 183.537 225.501L184.852 225.532C184.852 225.623 185.219 233.761 213.7 234.617C220.521 234.831 226.364 234.954 231.534 235.046C249.583 235.413 257.047 235.596 259.28 238.074C259.831 238.686 261.146 240.154 255.854 270.623C253.315 285.46 250.348 300.204 250.317 300.357Z" fill="#FFDDA1"/>
<rect x="53.9832" y="210.787" width="84.2783" height="9.29967" fill="#FFC263"/>
<rect x="53.9832" y="215.008" width="84.2783" height="3.4262" fill="#FBA647"/>
<rect x="52.3315" y="207.208" width="87.5515" height="9.29967" fill="#FFC263"/>
<rect x="53.9832" y="236.697" width="84.2783" height="9.29967" fill="#FFC263"/>
<rect x="53.9832" y="240.888" width="84.2783" height="3.4262" fill="#FBA647"/>
<rect x="52.3315" y="233.088" width="87.5515" height="9.29967" fill="#FFC263"/>
<rect x="54.6258" y="197.908" width="84.2783" height="9.29967" fill="#FCA647"/>
<rect x="54.6258" y="202.772" width="84.2783" height="2.81438" fill="#EF851B"/>
<rect x="53.0042" y="194.298" width="87.5515" height="9.29967" fill="#FBA647"/>
<rect x="52.6681" y="223.818" width="84.2783" height="9.29967" fill="#FCA647"/>
<rect x="52.6681" y="228.682" width="84.2783" height="2.81438" fill="#EF851B"/>
<rect x="51.047" y="220.209" width="87.5515" height="9.29967" fill="#FBA647"/>
<rect x="53.9832" y="262.639" width="84.2783" height="9.29967" fill="#FFC263"/>
<rect x="53.9832" y="266.86" width="84.2783" height="3.4262" fill="#FBA647"/>
<rect x="52.3315" y="259.029" width="87.5515" height="9.29967" fill="#FFC263"/>
<rect x="52.6681" y="249.76" width="84.2783" height="9.29967" fill="#FCA647"/>
<rect x="52.6681" y="254.624" width="84.2783" height="2.81438" fill="#EF851B"/>
<rect x="51.047" y="246.15" width="87.5515" height="9.29967" fill="#FBA647"/>
<rect x="51.0163" y="184.999" width="84.2783" height="9.29967" fill="#FFC263"/>
<rect x="51.1385" y="189.128" width="84.2783" height="3.4262" fill="#FBA647"/>
<rect x="49.3946" y="181.389" width="87.5515" height="9.29967" fill="#FFC263"/>
<path d="M57.3182 229.719L57.8688 233.39H58.5112C58.5112 233.39 58.603 235.96 59.7043 238.682C60.8056 241.436 62.9163 242.873 64.2623 243.791C65.6389 244.709 68.6369 246.269 73.9597 246.177C79.2519 246.086 83.9324 245.351 86.655 243.332C89.4082 241.313 98.0043 233.36 98.0043 233.36H99.2891L100.91 229.689L57.3182 229.719Z" fill="#EF851B"/>
<path d="M58.3275 229.539C58.3275 229.539 59.0005 236.636 62.549 240.185C66.2505 243.886 71.0533 246.211 77.9669 244.529C84.8805 242.846 87.1748 240.368 91.0599 237.493C94.9449 234.617 100.849 229.722 100.849 229.722L58.3275 229.539Z" fill="#FFF498"/>
<path d="M66.1586 239.236C68.4529 240.98 71.665 242.356 74.6935 242.081C77.722 241.806 82.0965 240.552 85.5839 237.829C89.1019 235.076 96.6885 229.784 96.6885 229.784L60.744 229.6C60.744 229.539 61.417 235.626 66.1586 239.236Z" fill="#FBE17B"/>
<path d="M69.4624 234.495C72.7663 234.77 74.4488 232.506 74.9076 231.803C75.3971 231.038 75.7336 229.661 75.7336 229.661H64.262C64.262 229.661 64.8432 234.097 69.4624 234.495Z" fill="#C14423"/>
<path d="M83.0446 229.722C83.0446 229.722 83.993 233.271 88.3369 233.24C92.1608 233.24 93.5374 229.631 93.5374 229.631C93.5374 229.631 83.2282 229.722 83.0446 229.722Z" fill="#C14423"/>
<path d="M79.8939 239.695C82.1916 239.695 84.0543 237.832 84.0543 235.535C84.0543 233.237 82.1916 231.374 79.8939 231.374C77.5962 231.374 75.7335 233.237 75.7335 235.535C75.7335 237.832 77.5962 239.695 79.8939 239.695Z" fill="#C14423"/>
<path d="M70.6865 233.057C71.2103 233.057 71.6348 232.632 71.6348 232.109C71.6348 231.585 71.2103 231.16 70.6865 231.16C70.1628 231.16 69.7382 231.585 69.7382 232.109C69.7382 232.632 70.1628 233.057 70.6865 233.057Z" fill="#D85A41"/>
<path d="M79.6491 238.471C80.308 238.471 80.8421 237.937 80.8421 237.278C80.8421 236.62 80.308 236.085 79.6491 236.085C78.9902 236.085 78.456 236.62 78.456 237.278C78.456 237.937 78.9902 238.471 79.6491 238.471Z" fill="#D85A41"/>
<path d="M78.9455 235.229C79.3848 235.229 79.7408 234.873 79.7408 234.433C79.7408 233.994 79.3848 233.638 78.9455 233.638C78.5062 233.638 78.1501 233.994 78.1501 234.433C78.1501 234.873 78.5062 235.229 78.9455 235.229Z" fill="#D85A41"/>
<path d="M87.1743 232.231C87.6136 232.231 87.9697 231.875 87.9697 231.436C87.9697 230.996 87.6136 230.64 87.1743 230.64C86.735 230.64 86.3789 230.996 86.3789 231.436C86.3789 231.875 86.735 232.231 87.1743 232.231Z" fill="#D85A41"/>
<path d="M89.6216 231.497C90.0609 231.497 90.417 231.141 90.417 230.701C90.417 230.262 90.0609 229.906 89.6216 229.906C89.1823 229.906 88.8262 230.262 88.8262 230.701C88.8262 231.141 89.1823 231.497 89.6216 231.497Z" fill="#D85A41"/>
<path d="M86.5021 277.965V277.965C86.135 277.965 85.8291 277.659 85.8597 277.292L87.5116 180.471C87.5116 180.104 87.8175 179.859 88.1846 179.829C88.5517 179.829 88.827 180.135 88.827 180.502L87.1751 277.322C87.1751 277.659 86.8692 277.965 86.5021 277.965Z" fill="#C82C2F"/>
<path d="M109.17 277.751V277.751C108.803 277.751 108.497 277.445 108.528 277.078L110.18 180.961C110.18 180.594 110.485 180.318 110.853 180.318C111.22 180.318 111.495 180.624 111.495 180.991L109.843 277.108C109.812 277.445 109.537 277.751 109.17 277.751Z" fill="#C82C2F"/>
<path fill-rule="evenodd" clip-rule="evenodd" d="M98.5544 180.899H98.7074C98.8603 180.899 99.0133 180.838 99.105 180.746C99.258 180.624 99.3498 180.441 99.3498 180.226C99.3498 179.982 99.1356 174.353 97.086 170.04C95.7094 167.164 93.1704 165.114 90.7537 164.9C89.4995 164.778 87.664 165.114 86.165 167.256C84.7884 169.214 84.4519 171.141 85.1555 172.946C87.2357 178.36 98.0955 180.808 98.5544 180.899ZM87.2668 168.02C88.1234 166.797 89.1635 166.185 90.3565 166.185C90.4483 166.185 90.5401 166.185 90.693 166.216C92.6508 166.368 94.7922 168.143 95.9547 170.621C97.423 173.741 97.8819 177.687 98.0349 179.431C95.4958 178.758 87.9398 176.433 86.4103 172.487C85.8596 171.079 86.135 169.611 87.2668 168.02Z" fill="#C82C2F"/>
<path fill-rule="evenodd" clip-rule="evenodd" d="M98.1878 180.991C98.3101 181.144 98.4937 181.236 98.6772 181.236C98.7078 181.236 98.7078 181.236 98.7384 181.205C98.9525 181.205 104.306 180.747 108.528 178.789C111.158 177.565 113.177 175.179 113.697 172.732C114.003 171.233 113.728 169.826 112.871 168.847C111.342 167.072 109.476 166.399 107.487 166.858C103.602 167.776 99.9926 172.946 98.0654 180.41C98.0042 180.624 98.0654 180.838 98.1878 180.991ZM107.793 168.143C108.099 168.082 108.374 168.051 108.68 168.051C109.842 168.051 110.913 168.602 111.923 169.703C112.504 170.376 112.687 171.386 112.443 172.487C111.984 174.567 110.24 176.586 108.007 177.626C105.009 179.033 101.307 179.615 99.5943 179.829C101.43 173.435 104.581 168.877 107.793 168.143Z" fill="#C82C2F"/>
<path d="M95.2507 181.052C89.5608 181.052 83.8403 178.942 78.3033 176.892C73.1946 175.026 68.3612 173.252 63.6196 172.976C53.0351 172.395 51.4444 179.584 51.3832 179.89C51.322 180.226 50.9855 180.471 50.6184 180.41C50.2513 180.349 50.0372 180.012 50.0984 179.645C50.1289 179.553 51.9338 171.018 63.6808 171.661C68.6059 171.936 73.7452 173.833 78.7316 175.638C85.278 178.054 92.0693 180.532 98.5546 179.431C98.9216 179.37 99.2581 179.615 99.3193 179.951C99.3805 180.318 99.1358 180.655 98.7993 180.716C97.6062 180.961 96.4438 181.052 95.2507 181.052Z" fill="#C82C2F"/>
<path d="M51.5058 201.457C41.2884 201.457 36.2408 192.402 36.2103 192.279C36.0267 191.973 36.1491 191.576 36.4856 191.392C36.7915 191.209 37.1892 191.331 37.3727 191.667C37.4339 191.759 42.7261 201.242 53.3718 200.049C60.4689 199.254 64.2316 196.317 68.6062 192.952C71.0534 191.056 73.5619 189.098 76.8963 187.293C88.7657 180.869 98.3406 179.859 98.7383 179.829C99.1054 179.798 99.4113 180.043 99.4419 180.41C99.4725 180.777 99.2278 181.083 98.8607 181.114C98.7689 181.114 89.1022 182.154 77.5082 188.425C74.2655 190.168 71.7876 192.096 69.3709 193.962C65.027 197.327 60.9584 200.508 53.4942 201.334C52.8212 201.426 52.1482 201.457 51.5058 201.457Z" fill="#C82C2F"/>
<defs>
<filter id="filter0_d_180_318" x="-2.47396" y="0.248966" width="379.948" height="379.948" filterUnits="userSpaceOnUse" color-interpolation-filters="sRGB">
<feFlood flood-opacity="0" result="BackgroundImageFix"/>
<feColorMatrix in="SourceAlpha" type="matrix" values="0 0 0 0 0 0 0 0 0 0 0 0 0 0 0 0 0 0 127 0" result="hardAlpha"/>
<feOffset dy="9.72292"/>
<feGaussianBlur stdDeviation="11.8064"/>
<feColorMatrix type="matrix" values="0 0 0 0 0 0 0 0 0 0 0 0 0 0 0 0 0 0 0.15 0"/>
<feBlend mode="normal" in2="BackgroundImageFix" result="effect1_dropShadow_180_318"/>
<feBlend mode="normal" in="SourceGraphic" in2="effect1_dropShadow_180_318" result="shape"/>
</filter>
</defs>
</svg>
