<svg width="104" height="105" viewBox="0 0 104 105" fill="none" xmlns="http://www.w3.org/2000/svg">
<line x1="1.78352" y1="1.33444" x2="17.5164" y2="8.67104" stroke="#CF3031" stroke-width="2" stroke-linecap="round"/>
<line x1="17.2725" y1="8.61703" x2="36.7481" y2="64.7634" stroke="#CF3031" stroke-width="2" stroke-linecap="round"/>
<path d="M36 64.8466L90.704 64.8466" stroke="#CF3031" stroke-width="2" stroke-linecap="round"/>
<path d="M90.8352 63.6574L102.727 18.4672" stroke="#CF3031" stroke-width="2" stroke-linecap="round"/>
<path d="M33.7527 18.0887L102.727 18.0887" stroke="#CF3031" stroke-width="2" stroke-linecap="round"/>
<path d="M36 64L28.9958 82.6849" stroke="#CF3031" stroke-width="2" stroke-linecap="round"/>
<path d="M28.9958 83.8741H90.8352" stroke="#CF3031" stroke-width="2" stroke-linecap="round"/>
<circle cx="38.5096" cy="94.5771" r="8.51374" stroke="#CF3031" stroke-width="2"/>
<circle cx="78.9429" cy="94.5771" r="8.51374" stroke="#CF3031" stroke-width="2"/>
<path d="M50.5505 47.0677C50.0571 47.3159 49.8585 47.9171 50.1067 48.4105C50.355 48.9038 50.9562 49.1025 51.4495 48.8542L50.5505 47.0677ZM74.0334 54.2561C74.1748 54.79 74.7222 55.1081 75.2561 54.9666C75.79 54.8252 76.1081 54.2777 75.9666 53.7439L74.0334 54.2561ZM51.4495 48.8542C57.6229 45.7474 63.2359 47.0247 67.3924 49.1909C69.4756 50.2766 71.1758 51.5792 72.3619 52.6429C72.9545 53.1742 73.4128 53.6405 73.7215 53.9826C73.8767 54.1545 73.9881 54.2886 74.0577 54.3791C74.0933 54.4253 74.1106 54.4507 74.1155 54.4582C74.1447 54.5035 74.0743 54.4107 74.0334 54.2561L75.9666 53.7439C75.9166 53.555 75.8164 53.4053 75.7955 53.3731C75.7503 53.3031 75.6974 53.2304 75.6429 53.1595C75.5325 53.016 75.385 52.8407 75.2063 52.6427C74.8474 52.245 74.3387 51.7291 73.6971 51.1538C72.4151 50.0043 70.5789 48.5962 68.3167 47.4173C63.7823 45.0542 57.468 43.5864 50.5505 47.0677L51.4495 48.8542Z" fill="#CF3031"/>
<circle cx="52.5" cy="35.5" r="2.5" fill="#CF3031"/>
<circle cx="74.5" cy="35.5" r="2.5" fill="#CF3031"/>
</svg>
