<svg width="35" height="35" viewBox="0 0 35 35" fill="none" xmlns="http://www.w3.org/2000/svg">
<path d="M2.91673 8.7427C2.91673 7.94061 3.56715 7.29166 4.36777 7.29166H16.049C16.4339 7.29166 16.8029 7.44453 17.0751 7.71666C17.3472 7.98878 17.5001 8.35786 17.5001 8.7427C17.5001 9.12754 17.3472 9.49662 17.0751 9.76874C16.8029 10.0409 16.4339 10.1937 16.049 10.1937H4.36777C3.98293 10.1937 3.61386 10.0409 3.34173 9.76874C3.06961 9.49662 2.91673 9.12754 2.91673 8.7427Z" fill="#333333"/>
<path d="M2.91673 17.5C2.91673 16.6979 3.56715 16.049 4.36777 16.049H30.6324C31.0172 16.049 31.3863 16.2018 31.6584 16.474C31.9305 16.7461 32.0834 17.1152 32.0834 17.5C32.0834 17.8848 31.9305 18.2539 31.6584 18.526C31.3863 18.7982 31.0172 18.951 30.6324 18.951H4.36777C3.98293 18.951 3.61386 18.7982 3.34173 18.526C3.06961 18.2539 2.91673 17.8848 2.91673 17.5Z" fill="#333333"/>
<path d="M4.36777 24.8062C3.98293 24.8062 3.61386 24.9591 3.34173 25.2312C3.06961 25.5034 2.91673 25.8724 2.91673 26.2573C2.91673 26.6421 3.06961 27.0112 3.34173 27.2833C3.61386 27.5554 3.98293 27.7083 4.36777 27.7083H21.8824C22.2672 27.7083 22.6363 27.5554 22.9084 27.2833C23.1805 27.0112 23.3334 26.6421 23.3334 26.2573C23.3334 25.8724 23.1805 25.5034 22.9084 25.2312C22.6363 24.9591 22.2672 24.8062 21.8824 24.8062H4.36777Z" fill="#333333"/>
</svg>
