<svg width="78" height="78" viewBox="0 0 78 78" fill="none" xmlns="http://www.w3.org/2000/svg">
<g filter="url(#filter0_d_9_202)">
<circle cx="39" cy="35" r="29" fill="white"/>
</g>
<path d="M49.1773 29.6627C49.1947 29.896 49.1947 30.128 49.1947 30.36C49.1947 37.46 43.7907 45.6413 33.9147 45.6413C30.872 45.6413 28.0453 44.76 25.6667 43.2293C26.0987 43.2787 26.5147 43.296 26.964 43.296C29.3813 43.3018 31.7302 42.4935 33.632 41.0013C32.5112 40.9811 31.4248 40.6113 30.5243 39.9437C29.6239 39.276 28.9544 38.3439 28.6093 37.2773C28.9413 37.3267 29.2747 37.36 29.624 37.36C30.1053 37.36 30.5893 37.2933 31.0387 37.1773C29.8223 36.9318 28.7286 36.2725 27.9435 35.3116C27.1583 34.3507 26.7303 33.1475 26.732 31.9067V31.84C27.448 32.2387 28.2787 32.488 29.1587 32.5213C28.4214 32.0315 27.817 31.3667 27.3991 30.5864C26.9813 29.8061 26.7631 28.9345 26.764 28.0493C26.764 27.052 27.0293 26.1373 27.4947 25.34C28.8442 27 30.5273 28.3581 32.4351 29.3262C34.3429 30.2943 36.4327 30.851 38.5693 30.96C38.4867 30.56 38.436 30.1453 38.436 29.7293C38.4356 29.024 38.5743 28.3254 38.8441 27.6737C39.1139 27.0219 39.5095 26.4297 40.0082 25.9309C40.507 25.4321 41.0992 25.0366 41.751 24.7668C42.4027 24.497 43.1013 24.3583 43.8067 24.3587C45.3533 24.3587 46.7493 25.0067 47.7307 26.0547C48.933 25.8222 50.0861 25.3832 51.1387 24.7573C50.7379 25.9984 49.8983 27.0508 48.7773 27.7173C49.8437 27.5957 50.8859 27.3153 51.8693 26.8853C51.1348 27.9561 50.2247 28.8951 49.1773 29.6627Z" fill="#29B2FF"/>
<defs>
<filter id="filter0_d_9_202" x="0" y="0" width="78" height="78" filterUnits="userSpaceOnUse" color-interpolation-filters="sRGB">
<feFlood flood-opacity="0" result="BackgroundImageFix"/>
<feColorMatrix in="SourceAlpha" type="matrix" values="0 0 0 0 0 0 0 0 0 0 0 0 0 0 0 0 0 0 127 0" result="hardAlpha"/>
<feOffset dy="4"/>
<feGaussianBlur stdDeviation="5"/>
<feColorMatrix type="matrix" values="0 0 0 0 0.276788 0 0 0 0 0.334264 0 0 0 0 0.445833 0 0 0 0.15 0"/>
<feBlend mode="normal" in2="BackgroundImageFix" result="effect1_dropShadow_9_202"/>
<feBlend mode="normal" in="SourceGraphic" in2="effect1_dropShadow_9_202" result="shape"/>
</filter>
</defs>
</svg>
