<svg width="89" height="82" viewBox="0 0 89 82" fill="none" xmlns="http://www.w3.org/2000/svg">
<g filter="url(#filter0_d_1_269)">
<path d="M4.80377 72.0982C4.80377 72.0982 15.6706 64.7685 20.6612 61.6276C25.6519 58.4866 27.3949 56.5952 28.6166 56.2755C29.8382 55.9559 34.6081 53.3947 35.3401 52.4699C36.0721 51.5451 43.7128 48.1644 48.0527 47.2041C52.3926 46.2438 55.5285 45.1681 57.5063 44.0048C59.484 42.8415 60.9683 44.0923 62.6263 43.3071C64.2844 42.5219 66.1454 41.6199 67.8034 41.2419C69.4615 40.8639 72.4287 41.0085 73.7963 40.1941C75.1638 39.3797 79.7879 39.0892 80.8649 38.5069C81.9419 37.9246 85.2568 36.8781 85.2276 32.806C85.1984 28.7339 81.9115 24.1963 80.0796 21.7823C78.2478 19.3682 74.4978 15.9063 71.353 14.365C68.2081 12.8237 63.3824 10.1179 62.2483 9.09925C61.1141 8.08061 56.1387 6.62684 55.4118 6.42387C54.6849 6.2209 50.7282 4.91049 48.111 4.1836C45.4939 3.45672 42.991 2.96198 40.8674 3.10787C38.7437 3.25375 36.388 3.34001 34.206 2.75775C32.024 2.17548 25.2763 3.77259 23.3849 4.61998C21.4934 5.46738 19.1376 7.29664 18.5858 10.0012C18.0339 12.7058 20.0764 15.5283 20.0764 15.5283L20.5052 17.1571L8.0463 66.8439L4.80377 72.0982Z" fill="#CF3031" stroke="white" stroke-miterlimit="10"/>
<path d="M19.9445 15.2898C19.9445 15.2898 18.6936 16.4823 18.3435 18.0806C17.9934 19.679 18.0238 20.6393 15.172 23.9261C15.172 23.9261 14.6963 24.974 13.9034 27.4946C13.1105 30.0152 11.6529 29.3784 11.4208 33.4898C11.4208 33.4898 9.38468 37.6012 9.01045 39.0359C8.63621 40.4706 7.51732 42.3341 6.81959 44.7178C6.12186 47.1014 6.05843 49.5078 5.5789 51.4271C5.09937 53.3465 4.31792 55.6933 4.25957 56.7399C4.20121 57.7864 2.97955 61.7824 2.57233 63.5279C2.16511 65.2734 2.2425 67.2701 2.11564 68.918C1.98878 70.5658 1.65133 72.234 3.31826 73.9415C4.9852 75.6489 1.88349 78.8279 5.0055 79.1958C8.12751 79.5637 6.30454 75.4929 7.02256 73.1841C7.74059 70.8754 6.46058 70.6838 7.3524 69.4419C8.24422 68.2 8.88359 67.2308 9.44684 67.4642C10.0101 67.6976 9.29207 70.198 10.1839 71.091C11.0757 71.9841 13.1892 71.2065 13.3249 68.1619C13.4607 65.1174 12.4724 65.0984 14.7014 63.6053C16.9303 62.1122 18.0758 60.0533 18.7748 58.6414C19.4738 57.2295 22.2026 56.1449 22.2863 58.9509C22.37 61.757 24.8451 61.1417 24.6129 58.2532C24.3807 55.3647 24.4581 55.7897 28.0254 52.9393C31.5927 50.0888 32.9729 50.0114 32.6609 53.2881C32.6609 53.2881 32.5835 53.9224 33.3586 53.5989C34.1337 53.2754 34.716 52.9393 34.6005 51.3498C34.4851 49.7603 34.4838 49.6042 35.0851 49.5078C35.6865 49.4114 36.9081 48.7124 37.838 46.9707C38.7679 45.229 41.8138 45.4967 41.9305 46.717C42.0472 47.9374 44.5869 48.6198 45.6538 45.8442C46.7207 43.0686 46.6433 45.7669 48.6211 44.1951C50.5988 42.6234 51.2775 41.8293 54.4566 41.7125C57.6357 41.5958 61.1662 39.3277 62.4081 38.7657C63.6501 38.2037 66.5945 38.3001 67.8377 37.7509C69.0809 37.2016 71.8972 35.5791 69.5833 32.7857C67.2694 29.9924 63.6932 27.4756 61.4859 25.7617C59.2785 24.0479 58.695 24.3942 55.611 22.5041C52.527 20.6139 51.5667 19.9441 49.1818 19.0422C46.7968 18.1403 43.7129 17.3842 41.5321 16.1918C39.3514 14.9993 37.89 16.1334 33.7036 14.7672C29.5173 13.4009 30.999 15.3773 24.8032 14.6505C24.8019 14.6505 20.9035 14.0517 19.9445 15.2898Z" fill="#CF3031" stroke="white" stroke-miterlimit="10"/>
<g opacity="0.2">
<path opacity="0.2" d="M13.1372 44.3778C13.3621 44.3778 13.5444 44.1955 13.5444 43.9706C13.5444 43.7457 13.3621 43.5634 13.1372 43.5634C12.9123 43.5634 12.73 43.7457 12.73 43.9706C12.73 44.1955 12.9123 44.3778 13.1372 44.3778Z" fill="white"/>
<path opacity="0.2" d="M15.3776 41.9776C15.6025 41.9776 15.7848 41.7953 15.7848 41.5704C15.7848 41.3455 15.6025 41.1632 15.3776 41.1632C15.1527 41.1632 14.9703 41.3455 14.9703 41.5704C14.9703 41.7953 15.1527 41.9776 15.3776 41.9776Z" fill="white"/>
<path opacity="0.2" d="M19.8861 40.4313C20.111 40.4313 20.2933 40.249 20.2933 40.0241C20.2933 39.7992 20.111 39.6169 19.8861 39.6169C19.6612 39.6169 19.4789 39.7992 19.4789 40.0241C19.4789 40.249 19.6612 40.4313 19.8861 40.4313Z" fill="white"/>
<path opacity="0.2" d="M26.7505 40.8385C26.9754 40.8385 27.1577 40.6562 27.1577 40.4313C27.1577 40.2064 26.9754 40.0241 26.7505 40.0241C26.5256 40.0241 26.3433 40.2064 26.3433 40.4313C26.3433 40.6562 26.5256 40.8385 26.7505 40.8385Z" fill="white"/>
<path opacity="0.2" d="M28.6128 43.1359C28.8377 43.1359 29.02 42.9535 29.02 42.7286C29.02 42.5037 28.8377 42.3214 28.6128 42.3214C28.3879 42.3214 28.2056 42.5037 28.2056 42.7286C28.2056 42.9535 28.3879 43.1359 28.6128 43.1359Z" fill="white"/>
<path opacity="0.2" d="M21.5734 48.7505C21.7983 48.7505 21.9806 48.5681 21.9806 48.3432C21.9806 48.1184 21.7983 47.936 21.5734 47.936C21.3485 47.936 21.1661 48.1184 21.1661 48.3432C21.1661 48.5681 21.3485 48.7505 21.5734 48.7505Z" fill="white"/>
<path opacity="0.2" d="M20.4824 50.9895C20.7073 50.9895 20.8896 50.8072 20.8896 50.5823C20.8896 50.3574 20.7073 50.175 20.4824 50.175C20.2575 50.175 20.0751 50.3574 20.0751 50.5823C20.0751 50.8072 20.2575 50.9895 20.4824 50.9895Z" fill="white"/>
<path opacity="0.2" d="M23.7109 50.1027C23.9358 50.1027 24.1181 49.9204 24.1181 49.6955C24.1181 49.4706 23.9358 49.2883 23.7109 49.2883C23.486 49.2883 23.3037 49.4706 23.3037 49.6955C23.3037 49.9204 23.486 50.1027 23.7109 50.1027Z" fill="white"/>
</g>
<path opacity="0.3" d="M9.4291 57.2866C9.4291 57.2866 4.42577 59.3822 5.99629 62.9951C7.56681 66.6079 11.436 60.6686 14.1711 59.1894C16.9062 57.7103 15.0147 55.2911 13.6764 55.5677C12.338 55.8442 10.4186 56.8654 9.4291 57.2866Z" fill="white"/>
<path d="M8.5411 56.6523C8.5411 56.6523 3.53777 58.748 5.10829 62.3608C6.67881 65.9736 10.548 60.0343 13.2831 58.5551C16.0182 57.076 14.1267 54.6569 12.7884 54.9334C11.45 55.21 9.53061 56.2311 8.5411 56.6523Z" fill="#CF3031" stroke="white" stroke-miterlimit="10"/>
<g opacity="0.2">
<path opacity="0.2" d="M6.98449 60.2017C7.20939 60.2017 7.39171 60.0194 7.39171 59.7945C7.39171 59.5696 7.20939 59.3873 6.98449 59.3873C6.75959 59.3873 6.57727 59.5696 6.57727 59.7945C6.57727 60.0194 6.75959 60.2017 6.98449 60.2017Z" fill="white"/>
<path opacity="0.2" d="M9.54455 58.1796C9.76945 58.1796 9.95177 57.9973 9.95177 57.7724C9.95177 57.5475 9.76945 57.3652 9.54455 57.3652C9.31965 57.3652 9.13733 57.5475 9.13733 57.7724C9.13733 57.9973 9.31965 58.1796 9.54455 58.1796Z" fill="white"/>
<path opacity="0.2" d="M12.8607 57.2789C13.0856 57.2789 13.2679 57.0966 13.2679 56.8717C13.2679 56.6468 13.0856 56.4645 12.8607 56.4645C12.6358 56.4645 12.4534 56.6468 12.4534 56.8717C12.4534 57.0966 12.6358 57.2789 12.8607 57.2789Z" fill="white"/>
</g>
<path opacity="0.2" d="M21.5023 23.5557C21.5023 23.5557 20.2997 20.6849 22.7633 18.9394C25.2269 17.1939 30.6945 17.3271 30.6945 17.3271C30.6945 17.3271 30.2873 18.0248 29.4145 19.8477C28.5417 21.6706 25.2649 24.1176 21.5023 23.5557Z" fill="white"/>
<path d="M20.3606 22.9214C20.3606 22.9214 19.1579 20.0507 21.6216 18.3051C24.0852 16.5596 29.5528 16.6928 29.5528 16.6928C29.5528 16.6928 29.1456 17.3905 28.2728 19.2134C27.4 21.0363 24.1232 23.4834 20.3606 22.9214Z" fill="white" stroke="#CF3031" stroke-linecap="round" stroke-linejoin="round"/>
<path d="M20.3606 22.9214C20.3606 22.9214 22.7709 19.7602 25.0734 19.5661Z" fill="white"/>
<path d="M20.0028 22.655C21.0177 21.5133 22.1708 20.468 23.5638 19.8122C24.0315 19.5882 24.538 19.4564 25.0556 19.424C25.0941 19.4223 25.1317 19.4359 25.1603 19.4618C25.1888 19.4877 25.2059 19.5238 25.2079 19.5623C25.2094 19.5986 25.1972 19.6342 25.1737 19.6619C25.1502 19.6897 25.1171 19.7075 25.081 19.712C23.6538 19.9568 22.5438 21.0401 21.5949 22.0727C21.2784 22.4303 20.9819 22.8051 20.7069 23.1954C20.6722 23.2438 20.6281 23.2846 20.5773 23.3156C20.5265 23.3465 20.47 23.367 20.4111 23.3757C20.3523 23.3844 20.2923 23.3812 20.2347 23.3662C20.1771 23.3513 20.1231 23.3249 20.0759 23.2887C20.0287 23.2524 19.9892 23.2071 19.9599 23.1553C19.9306 23.1036 19.912 23.0464 19.9051 22.9873C19.8983 22.9282 19.9035 22.8683 19.9202 22.8112C19.937 22.7542 19.9651 22.701 20.0028 22.655V22.655Z" fill="white"/>
<path d="M20.0028 22.655C21.0177 21.5133 22.1708 20.468 23.5638 19.8122C24.0315 19.5882 24.538 19.4564 25.0556 19.424C25.0941 19.4223 25.1317 19.4359 25.1603 19.4618C25.1888 19.4877 25.2059 19.5238 25.2079 19.5623C25.2094 19.5986 25.1972 19.6342 25.1737 19.6619C25.1502 19.6897 25.1171 19.7075 25.081 19.712C23.6538 19.9568 22.5438 21.0401 21.5949 22.0727C21.2784 22.4303 20.9819 22.8051 20.7069 23.1954C20.6722 23.2438 20.6281 23.2846 20.5773 23.3156C20.5265 23.3465 20.47 23.367 20.4111 23.3757C20.3523 23.3844 20.2923 23.3812 20.2347 23.3662C20.1771 23.3513 20.1231 23.3249 20.0759 23.2887C20.0287 23.2524 19.9892 23.2071 19.9599 23.1553C19.9306 23.1036 19.912 23.0464 19.9051 22.9873C19.8983 22.9282 19.9035 22.8683 19.9202 22.8112C19.937 22.7542 19.9651 22.701 20.0028 22.655V22.655Z" fill="#CF3031"/>
<path d="M13.101 55.7616C13.101 55.7616 10.0029 56.0618 9.06358 53.1924C8.12424 50.323 9.86772 45.1392 9.86772 45.1392C9.86772 45.1392 10.4139 45.7345 11.8974 47.1071C13.3809 48.4797 14.7501 52.3333 13.101 55.7616Z" fill="white" stroke="#CF3031" stroke-linecap="round" stroke-linejoin="round"/>
<path d="M12.7407 56.0246C11.95 54.7176 11.2922 53.307 11.0774 51.7825C11.0017 51.2695 11.0255 50.7467 11.1476 50.2426C11.1573 50.2054 11.1814 50.1734 11.2146 50.1539C11.2477 50.1343 11.2873 50.1286 11.3247 50.1381C11.3598 50.1473 11.3902 50.1695 11.4098 50.2002C11.4293 50.2308 11.4366 50.2677 11.4302 50.3035C11.2422 51.7392 11.949 53.1199 12.655 54.3316C12.903 54.7396 13.1734 55.1336 13.4651 55.5117C13.501 55.5592 13.527 55.6134 13.5416 55.671C13.5561 55.7287 13.559 55.7888 13.5499 55.8476C13.5408 55.9064 13.52 55.9627 13.4886 56.0133C13.4573 56.0639 13.4162 56.1077 13.3676 56.1421C13.3191 56.1765 13.2641 56.2007 13.206 56.2135C13.1478 56.2262 13.0877 56.2271 13.0293 56.2161C12.9708 56.2052 12.9151 56.1826 12.8655 56.1496C12.816 56.1167 12.7735 56.0742 12.7407 56.0246V56.0246Z" fill="#CF3031"/>
<path opacity="0.2" d="M17.5487 48.348C15.7625 45.8958 14.0144 43.4006 15.4695 41.3785C16.8992 39.3602 20.951 40.129 23.6785 43.804C26.406 47.479 25.962 51.5815 23.6138 52.3629C21.2517 53.1659 19.3767 50.7696 17.5487 48.348Z" fill="white"/>
<path d="M17.5487 48.0942C15.7625 45.6421 14.0144 43.1469 15.4695 41.1248C16.8992 39.1065 20.951 39.8753 23.6785 43.5503C26.406 47.2253 25.962 51.3278 23.6138 52.1092C21.2517 52.9122 19.3767 50.5159 17.5487 48.0942Z" fill="#CF3031" stroke="white" stroke-miterlimit="10"/>
<path opacity="0.2" d="M30.857 37.1492C33.3893 35.4786 35.963 33.848 37.9155 35.3952C39.8655 36.9168 38.9098 40.9286 35.1123 43.4828C31.3147 46.037 27.2371 45.4034 26.5652 43.0216C25.8725 40.6249 28.3532 38.863 30.857 37.1492Z" fill="white"/>
<path d="M31.1105 37.161C33.6428 35.4904 36.2164 33.8598 38.169 35.4069C40.1189 36.9285 39.1633 40.9403 35.3657 43.4945C31.5682 46.0488 27.4905 45.4152 26.8187 43.0334C26.126 40.6367 28.6067 38.8748 31.1105 37.161Z" fill="#CF3031" stroke="white" stroke-miterlimit="10"/>
<path opacity="0.2" d="M20.5905 34.4381C17.5596 34.3061 14.5188 34.1174 13.8447 31.7191C13.1579 29.3431 16.2849 26.6542 20.8588 26.8126C25.4327 26.9711 28.3638 29.8757 27.5109 32.1989C26.6663 34.5463 23.6237 34.5185 20.5905 34.4381Z" fill="white"/>
<path d="M20.3922 34.28C17.3613 34.1479 14.3204 33.9592 13.6464 31.561C12.9595 29.1849 16.0865 26.4961 20.6604 26.6545C25.2343 26.8129 28.1654 29.7176 27.3126 32.0407C26.4679 34.3882 23.4253 34.3604 20.3922 34.28Z" fill="#CF3031" stroke="white" stroke-miterlimit="10"/>
<path opacity="0.2" d="M33.2383 22.6537C35.8643 21.1346 38.5291 19.6578 40.3875 21.3168C42.2448 22.9502 41.0555 26.899 37.1146 29.226C33.1738 31.5531 29.1403 30.6814 28.6094 28.2643C28.0585 25.831 30.6382 24.2177 33.2383 22.6537Z" fill="white"/>
<path d="M33.4906 22.6804C36.1166 21.1612 38.7814 19.6844 40.6399 21.3434C42.4972 22.9768 41.3078 26.9257 37.3669 29.2527C33.4261 31.5797 29.3926 30.708 28.8617 28.2909C28.3108 25.8577 30.8905 24.2444 33.4906 22.6804Z" fill="#CF3031" stroke="white" stroke-miterlimit="10"/>
<path d="M21.7298 43.8549C21.7298 43.8549 20.5271 40.9842 22.9908 39.2386C25.4544 37.4931 30.922 37.6263 30.922 37.6263C30.922 37.6263 30.5148 38.324 29.642 40.1469C28.7692 41.9698 25.4924 44.4169 21.7298 43.8549Z" fill="white" stroke="#CF3031" stroke-linecap="round" stroke-linejoin="round"/>
<path d="M21.372 43.5885C22.3869 42.4468 23.5401 41.4015 24.933 40.7457C25.4007 40.5217 25.9072 40.3899 26.4248 40.3575C26.4633 40.3558 26.5009 40.3694 26.5295 40.3953C26.558 40.4212 26.5751 40.4573 26.5771 40.4958C26.5786 40.5321 26.5664 40.5677 26.5429 40.5954C26.5194 40.6232 26.4863 40.641 26.4502 40.6455C25.023 40.8903 23.913 41.9736 22.9641 43.0063C22.6476 43.3638 22.3511 43.7386 22.0761 44.1289C22.0414 44.1773 21.9973 44.2181 21.9465 44.2491C21.8957 44.28 21.8392 44.3005 21.7803 44.3092C21.7215 44.3179 21.6615 44.3147 21.6039 44.2997C21.5463 44.2848 21.4923 44.2584 21.4451 44.2222C21.3979 44.1859 21.3584 44.1406 21.3291 44.0888C21.2998 44.0371 21.2812 43.9799 21.2743 43.9208C21.2675 43.8617 21.2727 43.8018 21.2894 43.7447C21.3062 43.6877 21.3343 43.6345 21.372 43.5885V43.5885Z" fill="#CF3031"/>
<path d="M33.4333 35.6999C33.4333 35.6999 30.3288 35.4764 29.884 32.4901C29.4391 29.5038 32.0272 24.6858 32.0272 24.6858C32.0272 24.6858 32.4659 25.3642 33.6982 26.9661C34.9305 28.5681 35.634 32.5967 33.4333 35.6999Z" fill="white" stroke="#CF3031" stroke-linecap="round" stroke-linejoin="round"/>
<path d="M33.0341 35.8987C32.4737 34.4777 32.0618 32.9768 32.1057 31.4378C32.1172 30.9194 32.2283 30.4079 32.4331 29.9315C32.449 29.8964 32.4781 29.869 32.5141 29.8552C32.5501 29.8415 32.59 29.8425 32.6253 29.8581C32.6584 29.8732 32.6846 29.9001 32.6987 29.9336C32.7129 29.9671 32.7139 30.0047 32.7015 30.0389C32.2754 31.4228 32.7407 32.9024 33.2335 34.2153C33.4096 34.6592 33.6101 35.093 33.8342 35.5146C33.8616 35.5674 33.8782 35.6252 33.8829 35.6845C33.8876 35.7438 33.8803 35.8034 33.8615 35.8599C33.8426 35.9163 33.8127 35.9684 33.7733 36.013C33.734 36.0577 33.6861 36.0939 33.6324 36.1197C33.5788 36.1454 33.5205 36.1602 33.4611 36.1629C33.4016 36.1657 33.3422 36.1565 33.2864 36.1359C33.2306 36.1153 33.1795 36.0837 33.1362 36.0429C33.0928 36.0022 33.0581 35.9532 33.0341 35.8987V35.8987Z" fill="#CF3031"/>
<g opacity="0.2">
<path opacity="0.2" d="M33.5096 30.1978C33.7345 30.1978 33.9168 30.0155 33.9168 29.7906C33.9168 29.5657 33.7345 29.3834 33.5096 29.3834C33.2847 29.3834 33.1024 29.5657 33.1024 29.7906C33.1024 30.0155 33.2847 30.1978 33.5096 30.1978Z" fill="white"/>
<path opacity="0.2" d="M36.3728 31.7607C36.5977 31.7607 36.78 31.5784 36.78 31.3535C36.78 31.1286 36.5977 30.9463 36.3728 30.9463C36.1479 30.9463 35.9656 31.1286 35.9656 31.3535C35.9656 31.5784 36.1479 31.7607 36.3728 31.7607Z" fill="white"/>
<path opacity="0.2" d="M38.5015 34.4589C38.7264 34.4589 38.9087 34.2766 38.9087 34.0517C38.9087 33.8268 38.7264 33.6445 38.5015 33.6445C38.2766 33.6445 38.0943 33.8268 38.0943 34.0517C38.0943 34.2766 38.2766 34.4589 38.5015 34.4589Z" fill="white"/>
</g>
<path d="M75.7893 29.2388C77.7556 26.6383 80.9905 26.0839 83.9552 27.18C84.0663 27.2195 84.157 27.3015 84.2076 27.408C84.2582 27.5144 84.2644 27.6366 84.2248 27.7476C84.1853 27.8587 84.1033 27.9494 83.9968 28C83.8903 28.0505 83.7682 28.0567 83.6571 28.0172C82.7092 27.6118 81.6891 27.4021 80.6582 27.4007C79.285 27.4197 77.9615 27.9173 76.9158 28.8075C76.6524 29.0266 76.4118 29.2719 76.1978 29.5395C76.1571 29.5914 76.0978 29.6254 76.0324 29.6343C75.9671 29.6433 75.9008 29.6264 75.8477 29.5873C75.7946 29.5482 75.7588 29.4899 75.7479 29.4249C75.737 29.3598 75.7518 29.2931 75.7893 29.2388V29.2388Z" fill="white"/>
<path d="M73.9942 40.2067C73.1595 38.8684 72.9578 37.1952 73.2331 35.6628C73.3262 35.1656 73.4624 34.6775 73.6403 34.2039C73.6569 34.1593 73.6897 34.1225 73.7322 34.1008C73.7746 34.0792 73.8236 34.0742 73.8696 34.087C73.9155 34.0997 73.9549 34.1293 73.9801 34.1697C74.0053 34.2102 74.0144 34.2586 74.0057 34.3054C73.8747 34.7725 73.7843 35.25 73.7355 35.7326L73.7063 36.0865C73.7063 36.2133 73.7063 36.5026 73.7063 36.618C73.7371 37.6048 74.0177 38.5676 74.522 39.4164C74.5746 39.5048 74.6331 39.5896 74.697 39.6701C74.7384 39.7159 74.7699 39.7697 74.7893 39.8283C74.8088 39.8868 74.8159 39.9488 74.8102 40.0102C74.8045 40.0716 74.786 40.1312 74.7561 40.1851C74.7261 40.239 74.6853 40.2861 74.6361 40.3235C74.587 40.3608 74.5307 40.3875 74.4707 40.4018C74.4107 40.4162 74.3483 40.418 74.2876 40.407C74.2269 40.396 74.1692 40.3726 74.118 40.3381C74.0668 40.3036 74.0234 40.2589 73.9904 40.2067H73.9942Z" fill="white"/>
<path d="M23.2885 24.4145C25.3183 24.0695 27.282 23.3603 28.831 21.9827C29.3519 21.5111 29.8453 21.01 30.3089 20.482C29.6328 23.4352 26.1555 25.338 23.2885 24.4145V24.4145Z" fill="white"/>
<path d="M13.1372 39.6942C15.6744 37.2599 19.9876 36.1423 23.4128 36.8172C23.6526 36.8666 23.8911 36.9174 24.127 36.9795C23.6437 37.0556 23.1667 37.0696 22.6872 37.1356C19.3919 37.4894 16.1715 38.3526 13.141 39.6942H13.1372Z" fill="white"/>
<path d="M39.7244 27.9436C41.2226 28.3242 42.3352 29.6131 42.9492 30.9882C43.0139 31.1772 43.2029 31.6085 43.2346 31.7988C43.279 31.9599 43.3298 32.1908 43.3691 32.3544C43.3923 32.4465 43.4085 32.5402 43.4173 32.6347C43.5614 33.5651 43.5122 34.5151 43.2727 35.4256C43.0355 34.4526 42.882 33.4936 42.5838 32.5498C42.0383 30.7877 41.1237 29.1995 39.7308 27.9449L39.7244 27.9436Z" fill="white"/>
<path opacity="0.2" d="M50.0469 34.3384C48.2608 31.8876 46.5126 29.3911 47.9664 27.369C49.3961 25.3507 53.4493 26.1207 56.1755 29.7945C58.9017 33.4682 58.459 37.572 56.1108 38.3547C53.7474 39.1564 51.8737 36.7601 50.0469 34.3384Z" fill="white"/>
<path d="M49.7932 33.0699C48.007 30.619 46.2589 28.1225 47.7127 26.1004C49.1424 24.0822 53.1956 24.8522 55.9218 28.5259C58.648 32.1996 58.2053 36.3034 55.8571 37.0861C53.4937 37.8878 51.62 35.4915 49.7932 33.0699Z" fill="#CF3031" stroke="white" stroke-miterlimit="10"/>
<path d="M47.0681 28.6656C47.0681 28.6656 50.1316 28.1154 51.3003 30.8993C52.4691 33.6831 51.1513 38.9911 51.1513 38.9911C51.1513 38.9911 50.5587 38.4421 48.9689 37.1942C47.379 35.9462 45.7022 32.2162 47.0681 28.6656Z" fill="white" stroke="#CF3031" stroke-linecap="round" stroke-linejoin="round"/>
<path d="M48.1256 28.9633C49.0196 30.2019 49.7895 31.5546 50.1271 33.0567C50.2441 33.5619 50.2627 34.0849 50.182 34.5972C50.1753 34.6351 50.1539 34.6689 50.1224 34.6911C50.0909 34.7133 50.0519 34.7222 50.0139 34.7157C49.9781 34.7094 49.946 34.6897 49.9241 34.6607C49.9021 34.6318 49.8918 34.5956 49.8954 34.5594C49.9664 33.1132 49.15 31.7943 48.3482 30.6438C48.0679 30.2572 47.7665 29.8864 47.4452 29.5331C47.4055 29.4888 47.3752 29.4369 47.356 29.3806C47.3368 29.3242 47.3291 29.2647 47.3334 29.2053C47.3377 29.146 47.3539 29.0881 47.381 29.0351C47.4081 28.9822 47.4456 28.9352 47.4912 28.897C47.5368 28.8588 47.5897 28.8301 47.6466 28.8127C47.7035 28.7954 47.7633 28.7896 47.8225 28.7958C47.8817 28.802 47.939 28.82 47.9911 28.8488C48.0431 28.8775 48.0889 28.9165 48.1256 28.9633V28.9633Z" fill="#CF3031"/>
<g opacity="0.2">
<path opacity="0.2" d="M49.23 28.3927C49.4549 28.3927 49.6372 28.2104 49.6372 27.9855C49.6372 27.7606 49.4549 27.5783 49.23 27.5783C49.0051 27.5783 48.8228 27.7606 48.8228 27.9855C48.8228 28.2104 49.0051 28.3927 49.23 28.3927Z" fill="white"/>
<path opacity="0.2" d="M52.0919 29.9568C52.3168 29.9568 52.4991 29.7745 52.4991 29.5496C52.4991 29.3247 52.3168 29.1424 52.0919 29.1424C51.867 29.1424 51.6847 29.3247 51.6847 29.5496C51.6847 29.7745 51.867 29.9568 52.0919 29.9568Z" fill="white"/>
<path opacity="0.2" d="M54.2219 32.6538C54.4468 32.6538 54.6291 32.4715 54.6291 32.2466C54.6291 32.0217 54.4468 31.8394 54.2219 31.8394C53.997 31.8394 53.8147 32.0217 53.8147 32.2466C53.8147 32.4715 53.997 32.6538 54.2219 32.6538Z" fill="white"/>
</g>
<path d="M55.4435 26.1385C56.943 26.5191 58.0543 27.8092 58.6696 29.183C58.7343 29.372 58.9157 29.8033 58.955 29.9936C58.9994 30.1547 59.0502 30.3856 59.0819 30.5492C59.1056 30.6413 59.1221 30.735 59.1313 30.8296C59.2748 31.76 59.2256 32.7099 58.9867 33.6204C58.7482 32.65 58.5947 31.6948 58.2915 30.7497C57.746 28.9877 56.8314 27.3994 55.4372 26.1448L55.4435 26.1385Z" fill="white"/>
<path opacity="0.1" d="M3.89166 76.4037C3.89166 76.4037 4.27224 77.6038 5.20085 77.6038C6.12946 77.6038 6.78152 76.4912 6.78152 76.4912L6.53922 78.8381L3.97919 79.0309C3.97919 79.0309 3.62018 77.9552 3.62018 77.926C3.62018 77.8968 3.89166 76.4037 3.89166 76.4037Z" fill="white"/>
<path d="M37.0477 7.08731C39.458 6.78032 41.9127 6.92367 44.3167 7.24715C51.5312 8.26199 58.5148 11.408 63.8975 16.3376C55.9916 10.8968 46.6738 7.44251 37.0477 7.08731V7.08731Z" fill="white"/>
<path d="M82.0485 40.4313C83.1918 39.9002 84.2004 39.1179 84.9991 38.1427C85.7978 37.1674 86.3659 36.0244 86.6611 34.7989C86.8764 33.9584 87.0458 33.1068 87.1686 32.2478C87.4195 33.2353 87.4652 34.2637 87.303 35.2695C87.173 36.0699 86.901 36.8406 86.5 37.5453C85.5803 39.1272 83.9007 40.3361 82.0485 40.4313Z" fill="#CF3031"/>
<path d="M40.3004 0.716624C41.8506 0.560592 43.4148 0.613869 44.9675 0.722965C48.8634 1.04998 52.7008 1.87798 56.3849 3.1865C63.0302 5.51258 69.1383 9.15441 74.3444 13.8944C71.2174 11.622 67.9398 9.5643 64.5343 7.73554C59.7698 5.20766 54.7059 3.28975 49.4621 2.02704C46.4568 1.33695 43.3932 0.811765 40.3029 0.716624H40.3004Z" fill="#CF3031"/>
</g>
<defs>
<filter id="filter0_d_1_269" x="0.49884" y="0.619141" width="87.8992" height="81.0997" filterUnits="userSpaceOnUse" color-interpolation-filters="sRGB">
<feFlood flood-opacity="0" result="BackgroundImageFix"/>
<feColorMatrix in="SourceAlpha" type="matrix" values="0 0 0 0 0 0 0 0 0 0 0 0 0 0 0 0 0 0 127 0" result="hardAlpha"/>
<feOffset dy="1"/>
<feGaussianBlur stdDeviation="0.5"/>
<feComposite in2="hardAlpha" operator="out"/>
<feColorMatrix type="matrix" values="0 0 0 0 0 0 0 0 0 0 0 0 0 0 0 0 0 0 0.4 0"/>
<feBlend mode="normal" in2="BackgroundImageFix" result="effect1_dropShadow_1_269"/>
<feBlend mode="normal" in="SourceGraphic" in2="effect1_dropShadow_1_269" result="shape"/>
</filter>
</defs>
</svg>
