<svg width="78" height="78" viewBox="0 0 78 78" fill="none" xmlns="http://www.w3.org/2000/svg">
<g filter="url(#filter0_d_9_210)">
<circle cx="39" cy="35" r="29" fill="white"/>
</g>
<path d="M45.406 30.034C46.2013 30.034 46.846 29.3893 46.846 28.594C46.846 27.7987 46.2013 27.154 45.406 27.154C44.6107 27.154 43.966 27.7987 43.966 28.594C43.966 29.3893 44.6107 30.034 45.406 30.034Z" fill="#FF2E00"/>
<path d="M39 28.838C37.7813 28.838 36.5899 29.1994 35.5766 29.8765C34.5632 30.5536 33.7734 31.516 33.3071 32.6419C32.8407 33.7679 32.7186 35.0068 32.9564 36.2022C33.1942 37.3975 33.781 38.4954 34.6428 39.3572C35.5046 40.219 36.6025 40.8058 37.7979 41.0436C38.9932 41.2814 40.2321 41.1593 41.3581 40.693C42.4841 40.2266 43.4464 39.4368 44.1235 38.4234C44.8006 37.4101 45.162 36.2187 45.162 35C45.162 33.3657 44.5128 31.7984 43.3572 30.6428C42.2016 29.4872 40.6343 28.838 39 28.838ZM39 39C38.2089 39 37.4355 38.7654 36.7777 38.3259C36.1199 37.8864 35.6072 37.2617 35.3045 36.5307C35.0017 35.7998 34.9225 34.9956 35.0769 34.2197C35.2312 33.4437 35.6122 32.731 36.1716 32.1716C36.731 31.6122 37.4437 31.2312 38.2196 31.0769C38.9956 30.9225 39.7998 31.0017 40.5307 31.3045C41.2616 31.6072 41.8864 32.1199 42.3259 32.7777C42.7654 33.4355 43 34.2089 43 35C43 36.0609 42.5786 37.0783 41.8284 37.8284C41.0783 38.5786 40.0609 39 39 39Z" fill="#FF2E00"/>
<path d="M39 25.162C42.204 25.162 42.584 25.174 43.849 25.232C44.6098 25.241 45.3635 25.3807 46.077 25.645C46.5947 25.8447 47.0648 26.1505 47.4571 26.5429C47.8495 26.9352 48.1553 27.4053 48.355 27.923C48.6193 28.6365 48.759 29.3902 48.768 30.151C48.826 31.416 48.838 31.796 48.838 35.001C48.838 38.206 48.826 38.584 48.768 39.849C48.759 40.6098 48.6193 41.3635 48.355 42.077C48.1553 42.5947 47.8495 43.0648 47.4571 43.4571C47.0648 43.8495 46.5947 44.1553 46.077 44.355C45.3635 44.6193 44.6098 44.759 43.849 44.768C42.584 44.826 42.204 44.838 39 44.838C35.796 44.838 35.416 44.826 34.151 44.768C33.3902 44.759 32.6365 44.6193 31.923 44.355C31.4053 44.1553 30.9352 43.8495 30.5429 43.4571C30.1505 43.0648 29.8447 42.5947 29.645 42.077C29.3807 41.3635 29.241 40.6098 29.232 39.849C29.174 38.584 29.162 38.204 29.162 35C29.162 31.796 29.174 31.416 29.232 30.151C29.241 29.3902 29.3807 28.6365 29.645 27.923C29.8447 27.4053 30.1505 26.9352 30.5429 26.5429C30.9352 26.1505 31.4053 25.8447 31.923 25.645C32.6365 25.3807 33.3902 25.241 34.151 25.232C35.416 25.174 35.796 25.162 39 25.162ZM39 23C35.741 23 35.332 23.014 34.052 23.072C33.0568 23.0921 32.0722 23.2808 31.14 23.63C30.3427 23.9383 29.6187 24.4098 29.0142 25.0142C28.4098 25.6187 27.9383 26.3427 27.63 27.14C27.2807 28.0725 27.092 29.0574 27.072 30.053C27.014 31.333 27 31.74 27 35C27 38.26 27.014 38.668 27.072 39.948C27.0921 40.9432 27.2808 41.9278 27.63 42.86C27.9383 43.6573 28.4098 44.3813 29.0142 44.9858C29.6187 45.5902 30.3427 46.0617 31.14 46.37C32.0725 46.7193 33.0574 46.908 34.053 46.928C35.333 46.986 35.741 47 39 47C42.259 47 42.668 46.986 43.948 46.928C44.9436 46.908 45.9285 46.7193 46.861 46.37C47.6583 46.0617 48.3823 45.5902 48.9868 44.9858C49.5912 44.3813 50.0627 43.6573 50.371 42.86C50.72 41.9275 50.9083 40.9425 50.928 39.947C50.986 38.667 51 38.26 51 35C51 31.74 50.986 31.332 50.928 30.052C50.9079 29.0568 50.7192 28.0722 50.37 27.14C50.0617 26.3427 49.5902 25.6187 48.9858 25.0142C48.3813 24.4098 47.6573 23.9383 46.86 23.63C45.9275 23.281 44.9425 23.0927 43.947 23.073C42.667 23.013 42.26 23 39 23Z" fill="#FF2E00"/>
<defs>
<filter id="filter0_d_9_210" x="0" y="0" width="78" height="78" filterUnits="userSpaceOnUse" color-interpolation-filters="sRGB">
<feFlood flood-opacity="0" result="BackgroundImageFix"/>
<feColorMatrix in="SourceAlpha" type="matrix" values="0 0 0 0 0 0 0 0 0 0 0 0 0 0 0 0 0 0 127 0" result="hardAlpha"/>
<feOffset dy="4"/>
<feGaussianBlur stdDeviation="5"/>
<feColorMatrix type="matrix" values="0 0 0 0 0.276788 0 0 0 0 0.334264 0 0 0 0 0.445833 0 0 0 0.15 0"/>
<feBlend mode="normal" in2="BackgroundImageFix" result="effect1_dropShadow_9_210"/>
<feBlend mode="normal" in="SourceGraphic" in2="effect1_dropShadow_9_210" result="shape"/>
</filter>
</defs>
</svg>
