<svg width="36" height="33" viewBox="0 0 36 33" fill="none" xmlns="http://www.w3.org/2000/svg">
<g filter="url(#filter0_d_173_99)">
<path d="M32.9165 27.6214C32.9165 27.6214 28.7173 24.789 26.7888 23.5753C24.8603 22.3615 24.1867 21.6306 23.7146 21.5071C23.2425 21.3836 21.3993 20.3938 21.1165 20.0365C20.8336 19.6791 17.881 18.3727 16.204 18.0017C14.5269 17.6306 13.3151 17.2149 12.5509 16.7654C11.7866 16.3158 11.2131 16.7992 10.5724 16.4957C9.93164 16.1923 9.21249 15.8438 8.57177 15.6977C7.93106 15.5516 6.78444 15.6075 6.25598 15.2928C5.72753 14.9781 3.94068 14.8658 3.52449 14.6408C3.10829 14.4158 1.82735 14.0114 1.83862 12.4378C1.8499 10.8643 3.12006 9.11084 3.82793 8.17798C4.53581 7.24512 5.98489 5.90736 7.20014 5.31176C8.41539 4.71617 10.2802 3.67056 10.7184 3.27693C11.1567 2.8833 13.0793 2.32152 13.3602 2.24309C13.6411 2.16466 15.1701 1.65828 16.1814 1.3774C17.1928 1.09651 18.16 0.905329 18.9806 0.961702C19.8012 1.01808 20.7115 1.05141 21.5547 0.826406C22.3979 0.601403 25.0054 1.21857 25.7363 1.54602C26.4672 1.87348 27.3775 2.58035 27.5908 3.62547C27.804 4.67058 27.0148 5.76128 27.0148 5.76128L26.8491 6.3907L31.6635 25.591L32.9165 27.6214Z" fill="#CF3031" stroke="white" stroke-width="0.5" stroke-miterlimit="10"/>
<path d="M27.0658 5.66913C27.0658 5.66913 27.5491 6.12992 27.6844 6.74758C27.8197 7.36523 27.808 7.73632 28.91 9.00643C28.91 9.00643 29.0938 9.41134 29.4002 10.3854C29.7066 11.3594 30.2699 11.1133 30.3596 12.7021C30.3596 12.7021 31.1464 14.2908 31.291 14.8452C31.4356 15.3997 31.868 16.1198 32.1376 17.0409C32.4072 17.962 32.4317 18.8919 32.617 19.6335C32.8023 20.3752 33.1043 21.2821 33.1268 21.6865C33.1494 22.0909 33.6215 23.6351 33.7788 24.3096C33.9362 24.9841 33.9063 25.7557 33.9553 26.3925C34.0043 27.0292 34.1347 27.6739 33.4906 28.3337C32.8464 28.9935 34.045 30.2219 32.8386 30.3641C31.6322 30.5063 32.3366 28.9332 32.0592 28.041C31.7817 27.1488 32.2763 27.0748 31.9317 26.5949C31.5871 26.115 31.34 25.7405 31.1223 25.8307C30.9047 25.9209 31.1822 26.8871 30.8375 27.2322C30.4929 27.5773 29.6762 27.2768 29.6237 26.1003C29.5713 24.9238 29.9532 24.9165 29.0919 24.3395C28.2305 23.7625 27.7879 22.9669 27.5178 22.4213C27.2477 21.8757 26.1932 21.4566 26.1608 22.5409C26.1285 23.6253 25.1721 23.3875 25.2618 22.2713C25.3515 21.1551 25.3216 21.3194 23.9431 20.2179C22.5646 19.1164 22.0312 19.0865 22.1518 20.3527C22.1518 20.3527 22.1817 20.5978 21.8822 20.4728C21.5827 20.3478 21.3577 20.2179 21.4023 19.6036C21.4469 18.9894 21.4474 18.9291 21.215 18.8919C20.9827 18.8546 20.5106 18.5845 20.1513 17.9115C19.7919 17.2384 18.6149 17.3418 18.5698 17.8134C18.5247 18.285 17.5433 18.5487 17.131 17.4762C16.7187 16.4036 16.7486 17.4463 15.9844 16.8389C15.2201 16.2315 14.9579 15.9247 13.7294 15.8796C12.5009 15.8345 11.1366 14.958 10.6567 14.7408C10.1768 14.5237 9.03899 14.5609 8.55858 14.3487C8.07816 14.1364 6.98988 13.5094 7.88403 12.43C8.77819 11.3506 10.1601 10.378 11.0131 9.71575C11.8661 9.05349 12.0916 9.18732 13.2833 8.45691C14.475 7.72651 14.8461 7.46768 15.7677 7.11915C16.6893 6.77061 17.8811 6.47845 18.7237 6.01766C19.5664 5.55687 20.1312 5.99511 21.7489 5.46716C23.3666 4.93922 22.794 5.70295 25.1882 5.42207C25.1887 5.42207 26.6952 5.19069 27.0658 5.66913Z" fill="#CF3031" stroke="white" stroke-width="0.5" stroke-miterlimit="10"/>
<g opacity="0.2">
<path opacity="0.2" d="M29.6962 16.9095C29.6092 16.9095 29.5388 16.839 29.5388 16.7521C29.5388 16.6652 29.6092 16.5948 29.6962 16.5948C29.7831 16.5948 29.8535 16.6652 29.8535 16.7521C29.8535 16.839 29.7831 16.9095 29.6962 16.9095Z" fill="white"/>
<path opacity="0.2" d="M28.8304 15.982C28.7435 15.982 28.6731 15.9116 28.6731 15.8247C28.6731 15.7377 28.7435 15.6673 28.8304 15.6673C28.9173 15.6673 28.9878 15.7377 28.9878 15.8247C28.9878 15.9116 28.9173 15.982 28.8304 15.982Z" fill="white"/>
<path opacity="0.2" d="M27.0882 15.3845C27.0013 15.3845 26.9309 15.314 26.9309 15.2271C26.9309 15.1402 27.0013 15.0697 27.0882 15.0697C27.1752 15.0697 27.2456 15.1402 27.2456 15.2271C27.2456 15.314 27.1752 15.3845 27.0882 15.3845Z" fill="white"/>
<path opacity="0.2" d="M24.4354 15.5418C24.3485 15.5418 24.2781 15.4714 24.2781 15.3845C24.2781 15.2975 24.3485 15.2271 24.4354 15.2271C24.5223 15.2271 24.5928 15.2975 24.5928 15.3845C24.5928 15.4714 24.5223 15.5418 24.4354 15.5418Z" fill="white"/>
<path opacity="0.2" d="M23.7162 16.4296C23.6293 16.4296 23.5588 16.3591 23.5588 16.2722C23.5588 16.1853 23.6293 16.1149 23.7162 16.1149C23.8031 16.1149 23.8735 16.1853 23.8735 16.2722C23.8735 16.3591 23.8031 16.4296 23.7162 16.4296Z" fill="white"/>
<path opacity="0.2" d="M26.4364 18.5992C26.3495 18.5992 26.279 18.5287 26.279 18.4418C26.279 18.3549 26.3495 18.2845 26.4364 18.2845C26.5233 18.2845 26.5938 18.3549 26.5938 18.4418C26.5938 18.5287 26.5233 18.5992 26.4364 18.5992Z" fill="white"/>
<path opacity="0.2" d="M26.8583 19.4644C26.7714 19.4644 26.7009 19.394 26.7009 19.3071C26.7009 19.2202 26.7714 19.1497 26.8583 19.1497C26.9452 19.1497 27.0156 19.2202 27.0156 19.3071C27.0156 19.394 26.9452 19.4644 26.8583 19.4644Z" fill="white"/>
<path opacity="0.2" d="M25.6102 19.1218C25.5233 19.1218 25.4529 19.0513 25.4529 18.9644C25.4529 18.8775 25.5233 18.807 25.6102 18.807C25.6971 18.807 25.7676 18.8775 25.7676 18.9644C25.7676 19.0513 25.6971 19.1218 25.6102 19.1218Z" fill="white"/>
</g>
<path opacity="0.3" d="M31.1293 21.8978C31.1293 21.8978 33.0627 22.7076 32.4558 24.1037C31.8489 25.4998 30.3538 23.2047 29.2969 22.6331C28.2399 22.0615 28.9709 21.1267 29.488 21.2336C30.0052 21.3404 30.7469 21.735 31.1293 21.8978Z" fill="white"/>
<path d="M31.4726 21.6527C31.4726 21.6527 33.406 22.4625 32.7991 23.8586C32.1922 25.2547 30.697 22.9596 29.6401 22.388C28.5832 21.8164 29.3141 20.8816 29.8313 20.9885C30.3485 21.0953 31.0902 21.4899 31.4726 21.6527Z" fill="#CF3031" stroke="white" stroke-width="0.5" stroke-miterlimit="10"/>
<g opacity="0.2">
<path opacity="0.2" d="M32.0736 23.0243C31.9867 23.0243 31.9162 22.9538 31.9162 22.8669C31.9162 22.78 31.9867 22.7096 32.0736 22.7096C32.1605 22.7096 32.231 22.78 32.231 22.8669C32.231 22.9538 32.1605 23.0243 32.0736 23.0243Z" fill="white"/>
<path opacity="0.2" d="M31.0848 22.2429C30.9979 22.2429 30.9275 22.1724 30.9275 22.0855C30.9275 21.9986 30.9979 21.9282 31.0848 21.9282C31.1717 21.9282 31.2422 21.9986 31.2422 22.0855C31.2422 22.1724 31.1717 22.2429 31.0848 22.2429Z" fill="white"/>
<path opacity="0.2" d="M29.8036 21.8949C29.7167 21.8949 29.6462 21.8244 29.6462 21.7375C29.6462 21.6506 29.7167 21.5801 29.8036 21.5801C29.8905 21.5801 29.9609 21.6506 29.9609 21.7375C29.9609 21.8244 29.8905 21.8949 29.8036 21.8949Z" fill="white"/>
</g>
<path opacity="0.2" d="M26.4637 8.86329C26.4637 8.86329 26.9285 7.75396 25.9765 7.07944C25.0245 6.40492 22.9116 6.45639 22.9116 6.45639C22.9116 6.45639 23.069 6.726 23.4062 7.43043C23.7435 8.13485 25.0097 9.08045 26.4637 8.86329Z" fill="white"/>
<path d="M26.9051 8.61819C26.9051 8.61819 27.3699 7.50886 26.4179 6.83434C25.4659 6.15982 23.353 6.21129 23.353 6.21129C23.353 6.21129 23.5104 6.4809 23.8476 7.18532C24.1849 7.88975 25.4512 8.83535 26.9051 8.61819Z" fill="white" stroke="#CF3031" stroke-width="0.5" stroke-linecap="round" stroke-linejoin="round"/>
<path d="M26.9053 8.61818C26.9053 8.61818 25.9739 7.3966 25.0841 7.32159Z" fill="white"/>
<path d="M27.0432 8.51524C26.651 8.07406 26.2054 7.67013 25.6671 7.4167C25.4864 7.33015 25.2906 7.27922 25.0906 7.2667C25.0757 7.26603 25.0612 7.27127 25.0502 7.28129C25.0392 7.2913 25.0326 7.30526 25.0318 7.32013C25.0312 7.33417 25.0359 7.34792 25.045 7.35864C25.0541 7.36936 25.0669 7.37626 25.0808 7.37797C25.6323 7.47258 26.0613 7.89122 26.4279 8.29024C26.5503 8.42839 26.6648 8.57323 26.7711 8.72407C26.7845 8.74275 26.8015 8.75854 26.8212 8.7705C26.8408 8.78247 26.8626 8.79037 26.8854 8.79373C26.9081 8.79709 26.9313 8.79584 26.9536 8.79007C26.9758 8.78429 26.9967 8.7741 27.0149 8.7601C27.0332 8.7461 27.0484 8.72858 27.0597 8.70858C27.0711 8.68857 27.0783 8.66649 27.0809 8.64365C27.0835 8.62081 27.0816 8.59767 27.0751 8.57562C27.0686 8.55356 27.0577 8.53303 27.0432 8.51524V8.51524Z" fill="white"/>
<path d="M27.0432 8.51524C26.651 8.07406 26.2054 7.67013 25.6671 7.4167C25.4864 7.33015 25.2906 7.27922 25.0906 7.2667C25.0757 7.26603 25.0612 7.27127 25.0502 7.28129C25.0392 7.2913 25.0326 7.30526 25.0318 7.32013C25.0312 7.33417 25.0359 7.34792 25.045 7.35864C25.0541 7.36936 25.0669 7.37626 25.0808 7.37797C25.6323 7.47258 26.0613 7.89122 26.4279 8.29024C26.5503 8.42839 26.6648 8.57323 26.7711 8.72407C26.7845 8.74275 26.8015 8.75854 26.8212 8.7705C26.8408 8.78247 26.8626 8.79037 26.8854 8.79373C26.9081 8.79709 26.9313 8.79584 26.9536 8.79007C26.9758 8.78429 26.9967 8.7741 27.0149 8.7601C27.0332 8.7461 27.0484 8.72858 27.0597 8.70858C27.0711 8.68857 27.0783 8.66649 27.0809 8.64365C27.0835 8.62081 27.0816 8.59767 27.0751 8.57562C27.0686 8.55356 27.0577 8.53303 27.0432 8.51524V8.51524Z" fill="#CF3031"/>
<path d="M29.7101 21.3085C29.7101 21.3085 30.9073 21.4245 31.2703 20.3157C31.6333 19.2069 30.9596 17.2037 30.9596 17.2037C30.9596 17.2037 30.7485 17.4338 30.1752 17.9642C29.602 18.4946 29.0729 19.9837 29.7101 21.3085Z" fill="white" stroke="#CF3031" stroke-width="0.5" stroke-linecap="round" stroke-linejoin="round"/>
<path d="M29.8494 21.4101C30.1549 20.9051 30.4091 20.36 30.4921 19.7709C30.5214 19.5726 30.5122 19.3706 30.465 19.1758C30.4612 19.1614 30.4519 19.1491 30.4391 19.1415C30.4263 19.1339 30.411 19.1318 30.3966 19.1354C30.383 19.139 30.3712 19.1476 30.3637 19.1594C30.3561 19.1713 30.3533 19.1855 30.3558 19.1994C30.4284 19.7542 30.1553 20.2877 29.8825 20.7559C29.7866 20.9136 29.6821 21.0658 29.5695 21.2119C29.5556 21.2303 29.5455 21.2512 29.5399 21.2735C29.5343 21.2958 29.5332 21.319 29.5367 21.3417C29.5402 21.3644 29.5482 21.3862 29.5603 21.4058C29.5724 21.4253 29.5883 21.4422 29.6071 21.4555C29.6259 21.4688 29.6471 21.4782 29.6696 21.4831C29.692 21.488 29.7153 21.4884 29.7379 21.4841C29.7605 21.4799 29.782 21.4712 29.8011 21.4584C29.8203 21.4457 29.8367 21.4293 29.8494 21.4101V21.4101Z" fill="#CF3031"/>
<path opacity="0.2" d="M27.9914 18.4437C28.6816 17.4961 29.3571 16.5319 28.7949 15.7505C28.2424 14.9706 26.6766 15.2676 25.6227 16.6878C24.5687 18.1079 24.7403 19.6932 25.6477 19.9952C26.5604 20.3055 27.285 19.3795 27.9914 18.4437Z" fill="white"/>
<path d="M27.9914 18.3456C28.6816 17.3981 29.3571 16.4338 28.7949 15.6525C28.2424 14.8725 26.6766 15.1696 25.6227 16.5897C24.5687 18.0098 24.7403 19.5952 25.6477 19.8971C26.5604 20.2074 27.285 19.2814 27.9914 18.3456Z" fill="#CF3031" stroke="white" stroke-width="0.5" stroke-miterlimit="10"/>
<path opacity="0.2" d="M22.8487 14.1162C21.8701 13.4706 20.8756 12.8405 20.1211 13.4384C19.3676 14.0264 19.7369 15.5766 21.2044 16.5637C22.6718 17.5507 24.2475 17.3058 24.5072 16.3854C24.7748 15.4593 23.8162 14.7785 22.8487 14.1162Z" fill="white"/>
<path d="M22.751 14.1207C21.7725 13.4752 20.778 12.8451 20.0234 13.4429C19.2699 14.0309 19.6392 15.5812 21.1067 16.5682C22.5742 17.5552 24.1499 17.3104 24.4095 16.39C24.6772 15.4638 23.7186 14.783 22.751 14.1207Z" fill="#CF3031" stroke="white" stroke-width="0.5" stroke-miterlimit="10"/>
<path opacity="0.2" d="M26.8162 13.0686C27.9874 13.0175 29.1625 12.9446 29.423 12.0178C29.6884 11.0997 28.48 10.0606 26.7125 10.1219C24.9451 10.1831 23.8124 11.3055 24.142 12.2032C24.4684 13.1104 25.6441 13.0996 26.8162 13.0686Z" fill="white"/>
<path d="M26.8929 13.0074C28.0641 12.9564 29.2392 12.8835 29.4996 11.9567C29.765 11.0386 28.5567 9.99952 26.7892 10.0607C25.0217 10.122 23.8891 11.2444 24.2186 12.1421C24.545 13.0492 25.7208 13.0385 26.8929 13.0074Z" fill="#CF3031" stroke="white" stroke-width="0.5" stroke-miterlimit="10"/>
<path opacity="0.2" d="M21.9288 8.51475C20.9141 7.9277 19.8843 7.35703 19.1661 7.99812C18.4484 8.62931 18.908 10.1552 20.4309 11.0545C21.9537 11.9537 23.5124 11.6168 23.7175 10.6828C23.9304 9.74255 22.9335 9.11911 21.9288 8.51475Z" fill="white"/>
<path d="M21.8311 8.52503C20.8164 7.93799 19.7866 7.36731 19.0685 8.00841C18.3508 8.6396 18.8104 10.1655 20.3332 11.0647C21.8561 11.964 23.4147 11.6271 23.6199 10.6931C23.8328 9.75283 22.8359 9.1294 21.8311 8.52503Z" fill="#CF3031" stroke="white" stroke-width="0.5" stroke-miterlimit="10"/>
<path d="M26.3758 16.7074C26.3758 16.7074 26.8406 15.5981 25.8886 14.9236C24.9366 14.2491 22.8237 14.3005 22.8237 14.3005C22.8237 14.3005 22.9811 14.5702 23.3184 15.2746C23.6556 15.979 24.9219 16.9246 26.3758 16.7074Z" fill="white" stroke="#CF3031" stroke-width="0.5" stroke-linecap="round" stroke-linejoin="round"/>
<path d="M26.5143 16.6045C26.1222 16.1633 25.6766 15.7594 25.1383 15.506C24.9576 15.4194 24.7618 15.3685 24.5618 15.356C24.5469 15.3553 24.5324 15.3605 24.5214 15.3705C24.5104 15.3806 24.5037 15.3945 24.503 15.4094C24.5024 15.4234 24.5071 15.4372 24.5162 15.4479C24.5253 15.4586 24.5381 15.4655 24.552 15.4672C25.1035 15.5618 25.5324 15.9805 25.8991 16.3795C26.0214 16.5176 26.136 16.6625 26.2423 16.8133C26.2557 16.832 26.2727 16.8478 26.2924 16.8598C26.312 16.8717 26.3338 16.8796 26.3566 16.883C26.3793 16.8863 26.4025 16.8851 26.4248 16.8793C26.447 16.8735 26.4679 16.8634 26.4861 16.8494C26.5044 16.8354 26.5196 16.8178 26.5309 16.7978C26.5423 16.7778 26.5495 16.7557 26.5521 16.7329C26.5547 16.7101 26.5527 16.6869 26.5463 16.6649C26.5398 16.6428 26.5289 16.6223 26.5143 16.6045V16.6045Z" fill="#CF3031"/>
<path d="M21.8537 13.5561C21.8537 13.5561 23.0533 13.4698 23.2252 12.3158C23.3971 11.1618 22.397 9.29998 22.397 9.29998C22.397 9.29998 22.2275 9.56214 21.7513 10.1812C21.2751 10.8002 21.0033 12.357 21.8537 13.5561Z" fill="white" stroke="#CF3031" stroke-width="0.5" stroke-linecap="round" stroke-linejoin="round"/>
<path d="M22.008 13.633C22.2246 13.0838 22.3837 12.5038 22.3668 11.9092C22.3624 11.7088 22.3194 11.5112 22.2402 11.3271C22.2341 11.3135 22.2229 11.3029 22.209 11.2976C22.1951 11.2923 22.1796 11.2927 22.166 11.2987C22.1532 11.3045 22.1431 11.3149 22.1376 11.3279C22.1321 11.3408 22.1318 11.3554 22.1365 11.3686C22.3012 11.9033 22.1214 12.4751 21.9309 12.9825C21.8629 13.154 21.7854 13.3216 21.6988 13.4845C21.6882 13.5049 21.6818 13.5273 21.68 13.5502C21.6782 13.5731 21.681 13.5961 21.6883 13.618C21.6956 13.6398 21.7072 13.6599 21.7224 13.6771C21.7376 13.6944 21.7561 13.7084 21.7768 13.7184C21.7975 13.7283 21.8201 13.734 21.843 13.7351C21.866 13.7361 21.8889 13.7326 21.9105 13.7246C21.9321 13.7167 21.9518 13.7044 21.9686 13.6887C21.9853 13.673 21.9988 13.654 22.008 13.633V13.633Z" fill="#CF3031"/>
<g opacity="0.2">
<path opacity="0.2" d="M21.8241 11.43C21.7372 11.43 21.6667 11.3595 21.6667 11.2726C21.6667 11.1857 21.7372 11.1153 21.8241 11.1153C21.911 11.1153 21.9814 11.1857 21.9814 11.2726C21.9814 11.3595 21.911 11.43 21.8241 11.43Z" fill="white"/>
<path opacity="0.2" d="M20.7176 12.0339C20.6307 12.0339 20.5603 11.9635 20.5603 11.8766C20.5603 11.7897 20.6307 11.7192 20.7176 11.7192C20.8045 11.7192 20.875 11.7897 20.875 11.8766C20.875 11.9635 20.8045 12.0339 20.7176 12.0339Z" fill="white"/>
<path opacity="0.2" d="M19.8949 13.0766C19.808 13.0766 19.7375 13.0061 19.7375 12.9192C19.7375 12.8323 19.808 12.7619 19.8949 12.7619C19.9818 12.7619 20.0522 12.8323 20.0522 12.9192C20.0522 13.0061 19.9818 13.0766 19.8949 13.0766Z" fill="white"/>
</g>
<path d="M5.48557 11.0594C4.72573 10.0545 3.47568 9.84026 2.33004 10.2638C2.28713 10.2791 2.25206 10.3108 2.23252 10.3519C2.21298 10.393 2.21059 10.4403 2.22587 10.4832C2.24114 10.5261 2.27284 10.5611 2.31398 10.5807C2.35512 10.6002 2.40233 10.6026 2.44524 10.5873C2.81154 10.4307 3.20572 10.3496 3.60411 10.3491C4.13475 10.3565 4.64619 10.5487 5.05026 10.8927C5.15206 10.9774 5.24502 11.0722 5.32772 11.1756C5.34345 11.1956 5.36636 11.2088 5.39162 11.2122C5.41687 11.2157 5.44247 11.2092 5.463 11.1941C5.48353 11.1789 5.49737 11.1564 5.50158 11.1313C5.50579 11.1062 5.50005 11.0804 5.48557 11.0594V11.0594Z" fill="white"/>
<path d="M6.17973 15.2977C6.5023 14.7805 6.58024 14.134 6.47386 13.5418C6.43789 13.3497 6.38523 13.161 6.3165 12.9781C6.31007 12.9608 6.29741 12.9466 6.28101 12.9382C6.2646 12.9298 6.24566 12.9279 6.22791 12.9329C6.21017 12.9378 6.19492 12.9492 6.18518 12.9648C6.17544 12.9805 6.17193 12.9992 6.17532 13.0173C6.22594 13.1977 6.26087 13.3823 6.27973 13.5688L6.29101 13.7055C6.29101 13.7545 6.29101 13.8663 6.29101 13.9109C6.27912 14.2922 6.17066 14.6643 5.9758 14.9923C5.95547 15.0265 5.93287 15.0592 5.90815 15.0903C5.89216 15.108 5.88001 15.1288 5.87249 15.1514C5.86496 15.1741 5.86221 15.198 5.86442 15.2217C5.86664 15.2455 5.87376 15.2685 5.88534 15.2893C5.89692 15.3102 5.9127 15.3284 5.93169 15.3428C5.95067 15.3572 5.97245 15.3675 5.99563 15.3731C6.01882 15.3786 6.0429 15.3793 6.06636 15.3751C6.08982 15.3708 6.11214 15.3618 6.13191 15.3485C6.15168 15.3351 6.16847 15.3178 6.18121 15.2977H6.17973Z" fill="white"/>
<path d="M25.7734 9.19516C24.9891 9.06182 24.2302 8.7878 23.6317 8.25544C23.4304 8.07319 23.2397 7.87957 23.0606 7.67553C23.3219 8.81672 24.6655 9.55203 25.7734 9.19516V9.19516Z" fill="white"/>
<path d="M29.6963 15.0997C28.7159 14.159 27.0491 13.7271 25.7255 13.9879C25.6329 14.007 25.5407 14.0266 25.4495 14.0506C25.6363 14.08 25.8206 14.0854 26.0059 14.1109C27.2793 14.2477 28.5238 14.5812 29.6948 15.0997H29.6963Z" fill="white"/>
<path d="M19.4224 10.5589C18.8434 10.706 18.4135 11.204 18.1762 11.7354C18.1512 11.8084 18.0782 11.9751 18.0659 12.0486C18.0488 12.1109 18.0292 12.2001 18.014 12.2633C18.005 12.2989 17.9988 12.3351 17.9953 12.3717C17.9397 12.7312 17.9587 13.0983 18.0512 13.4501C18.1429 13.0741 18.2022 12.7035 18.3174 12.3388C18.5282 11.6579 18.8817 11.0442 19.4199 10.5594L19.4224 10.5589Z" fill="white"/>
<path opacity="0.2" d="M15.4336 13.03C16.1238 12.0829 16.7993 11.1182 16.2375 10.3368C15.6851 9.55692 14.1188 9.85448 13.0653 11.2741C12.0118 12.6937 12.1829 14.2795 13.0903 14.582C14.0036 14.8918 14.7277 13.9658 15.4336 13.03Z" fill="white"/>
<path d="M15.5312 12.5398C16.2215 11.5927 16.897 10.628 16.3352 9.84663C15.7827 9.06672 14.2165 9.36427 13.163 10.7839C12.1095 12.2035 12.2806 13.7893 13.188 14.0918C14.1013 14.4016 14.8253 13.4756 15.5312 12.5398Z" fill="#CF3031" stroke="white" stroke-width="0.5" stroke-miterlimit="10"/>
<path d="M16.5845 10.8379C16.5845 10.8379 15.4007 10.6253 14.949 11.701C14.4974 12.7768 15.0066 14.8279 15.0066 14.8279C15.0066 14.8279 15.2356 14.6158 15.85 14.1335C16.4643 13.6513 17.1123 12.21 16.5845 10.8379Z" fill="white" stroke="#CF3031" stroke-width="0.5" stroke-linecap="round" stroke-linejoin="round"/>
<path d="M16.1755 10.9529C15.83 11.4316 15.5325 11.9543 15.4021 12.5347C15.3569 12.7299 15.3497 12.9321 15.3809 13.13C15.3835 13.1447 15.3917 13.1577 15.4039 13.1663C15.4161 13.1749 15.4311 13.1783 15.4458 13.1758C15.4597 13.1734 15.4721 13.1658 15.4806 13.1546C15.489 13.1434 15.493 13.1294 15.4916 13.1154C15.4642 12.5566 15.7797 12.0469 16.0895 11.6023C16.1978 11.4529 16.3143 11.3096 16.4385 11.1731C16.4538 11.156 16.4655 11.1359 16.4729 11.1142C16.4803 11.0924 16.4833 11.0694 16.4816 11.0465C16.48 11.0235 16.4737 11.0012 16.4632 10.9807C16.4528 10.9602 16.4383 10.9421 16.4207 10.9273C16.403 10.9125 16.3826 10.9015 16.3606 10.8948C16.3386 10.888 16.3155 10.8858 16.2927 10.8882C16.2698 10.8906 16.2476 10.8976 16.2275 10.9087C16.2074 10.9198 16.1897 10.9348 16.1755 10.9529V10.9529Z" fill="#CF3031"/>
<g opacity="0.2">
<path opacity="0.2" d="M15.7494 10.7324C15.6625 10.7324 15.592 10.662 15.592 10.5751C15.592 10.4882 15.6625 10.4177 15.7494 10.4177C15.8363 10.4177 15.9067 10.4882 15.9067 10.5751C15.9067 10.662 15.8363 10.7324 15.7494 10.7324Z" fill="white"/>
<path opacity="0.2" d="M14.6434 11.3369C14.5565 11.3369 14.4861 11.2664 14.4861 11.1795C14.4861 11.0926 14.5565 11.0221 14.6434 11.0221C14.7303 11.0221 14.8008 11.0926 14.8008 11.1795C14.8008 11.2664 14.7303 11.3369 14.6434 11.3369Z" fill="white"/>
<path opacity="0.2" d="M13.8202 12.379C13.7333 12.379 13.6628 12.3086 13.6628 12.2217C13.6628 12.1348 13.7333 12.0643 13.8202 12.0643C13.9071 12.0643 13.9775 12.1348 13.9775 12.2217C13.9775 12.3086 13.9071 12.379 13.8202 12.379Z" fill="white"/>
</g>
<path d="M13.3481 9.86134C12.7687 10.0084 12.3393 10.5069 12.1015 11.0378C12.0765 11.1109 12.0064 11.2775 11.9912 11.3511C11.974 11.4133 11.9544 11.5025 11.9422 11.5658C11.933 11.6013 11.9267 11.6376 11.9231 11.6741C11.8676 12.0336 11.8866 12.4007 11.979 12.7526C12.0711 12.3776 12.1304 12.0084 12.2476 11.6432C12.4584 10.9623 12.8118 10.3486 13.3506 9.86379L13.3481 9.86134Z" fill="white"/>
<path opacity="0.1" d="M33.2691 29.2852C33.2691 29.2852 33.1221 29.7489 32.7632 29.7489C32.4044 29.7489 32.1524 29.319 32.1524 29.319L32.246 30.2259L33.2353 30.3004C33.2353 30.3004 33.374 29.8847 33.374 29.8734C33.374 29.8621 33.2691 29.2852 33.2691 29.2852Z" fill="white"/>
<path d="M20.4565 2.49948C19.5251 2.38085 18.5766 2.43624 17.6476 2.56124C14.8597 2.9534 12.1611 4.16911 10.0811 6.07404C13.1361 3.97156 16.7368 2.63673 20.4565 2.49948V2.49948Z" fill="white"/>
<path d="M3.06738 15.3845C2.62559 15.1793 2.23584 14.8769 1.92721 14.5001C1.61858 14.1232 1.39904 13.6815 1.28495 13.208C1.20177 12.8832 1.13631 12.5541 1.08886 12.2222C0.991908 12.6037 0.97422 13.0011 1.0369 13.3898C1.08717 13.6991 1.19225 13.9969 1.3472 14.2692C1.70261 14.8805 2.35166 15.3477 3.06738 15.3845Z" fill="#CF3031"/>
<path d="M19.1997 0.0376701C18.6007 -0.0226249 17.9962 -0.00203696 17.3962 0.0401205C15.8907 0.166487 14.4078 0.486451 12.9842 0.992096C10.4163 1.89095 8.05595 3.29825 6.04421 5.1299C7.25255 4.25178 8.51908 3.45664 9.83506 2.74997C11.6762 1.77313 13.633 1.03199 15.6594 0.544051C16.8207 0.27738 18.0046 0.0744353 19.1987 0.0376701H19.1997Z" fill="#CF3031"/>
</g>
<defs>
<filter id="filter0_d_173_99" x="0" y="0" width="35.2505" height="32.6229" filterUnits="userSpaceOnUse" color-interpolation-filters="sRGB">
<feFlood flood-opacity="0" result="BackgroundImageFix"/>
<feColorMatrix in="SourceAlpha" type="matrix" values="0 0 0 0 0 0 0 0 0 0 0 0 0 0 0 0 0 0 127 0" result="hardAlpha"/>
<feOffset dy="1"/>
<feGaussianBlur stdDeviation="0.5"/>
<feComposite in2="hardAlpha" operator="out"/>
<feColorMatrix type="matrix" values="0 0 0 0 0 0 0 0 0 0 0 0 0 0 0 0 0 0 0.4 0"/>
<feBlend mode="normal" in2="BackgroundImageFix" result="effect1_dropShadow_173_99"/>
<feBlend mode="normal" in="SourceGraphic" in2="effect1_dropShadow_173_99" result="shape"/>
</filter>
</defs>
</svg>
